<?xml version="1.0" standalone="no"?>
<!DOCTYPE svg PUBLIC "-//W3C//DTD SVG 1.1//EN" "http://www.w3.org/Graphics/SVG/1.1/DTD/svg11.dtd" >
<svg xmlns="http://www.w3.org/2000/svg" xmlns:xlink="http://www.w3.org/1999/xlink" version="1.1">
<metadata>
Created by FontForge 20170104 at Thu Feb 27 04:42:26 2014
 By myTaste
Copyright (c) 2010-2014 by tyPoland Lukasz Dziedzic with Reserved Font Name "Lato". Licensed under the SIL Open Font License, Version 1.1. 
</metadata>
<defs>
<font id="Lato-Semibold" horiz-adv-x="800" >
  <font-face 
    font-family="Lato Semibold"
    font-weight="600"
    font-stretch="normal"
    units-per-em="2000"
    panose-1="2 15 7 2 2 2 4 3 2 3"
    ascent="1610"
    descent="-390"
    x-height="1020"
    cap-height="1440"
    bbox="-1152 -555 2687 2180"
    underline-thickness="194"
    underline-position="-200"
    unicode-range="U+000D-FEFF"
  />
<missing-glyph horiz-adv-x="1080" 
d="M244 1144q53 45 123 76.5t166 31.5q67 0 120.5 -18t91.5 -51.5t58.5 -81t20.5 -105.5q0 -55 -14.5 -94.5t-36.5 -68.5t-48 -51t-49.5 -40.5t-41 -36.5t-21.5 -41l-19 -100h-147l-15 116q-5 36 7.5 62t34 47t47.5 40t49.5 41t39 49t15.5 64q0 43 -30 68t-81 25
q-38 0 -64.5 -7.5t-45 -17t-32.5 -17t-27 -7.5q-30 0 -44 25zM390 304q0 26 9.5 49t26 40t39 26.5t49.5 9.5q25 0 47.5 -9.5t39 -26.5t26 -40t9.5 -49t-9.5 -49t-26 -39.5t-39 -26t-47.5 -9.5q-27 0 -49.5 9.5t-39 26t-26 39.5t-9.5 49zM43 1440h993v-1440h-993v1440z
M101 62h871v1316h-871v-1316z" />
    <glyph glyph-name="uniFB01" unicode="fi" horiz-adv-x="1175" 
d="M201 0v849l-100 14q-25 5 -40.5 18t-15.5 37v88h156v43q0 94 30 173t91 137t152.5 90.5t214.5 32.5q40 0 82.5 -5t72.5 -15l-7 -112q-2 -21 -25 -23.5t-61 -2.5q-93 0 -158 -17.5t-106 -53t-59.5 -88t-18.5 -122.5v-37h625v-1006h-215v851h-403v-851h-215z" />
    <glyph glyph-name="uniFB02" unicode="fl" horiz-adv-x="1203" 
d="M201 0v849l-100 14q-25 5 -40.5 18t-15.5 37v88h156v48q0 83 26 158t78.5 132t132 91t187.5 34q81 0 154 -6t145 -7h143v-1456h-213v1306q-54 2 -106 5t-90 3q-120 0 -184.5 -68t-64.5 -192v-48h253v-155h-246v-851h-215z" />
    <glyph glyph-name="f_b.liga" unicode="fb" horiz-adv-x="1848" 
d="M851 0v1333q-41 13 -84.5 20.5t-84.5 7.5q-70 0 -121.5 -21t-85.5 -58.5t-50.5 -89t-16.5 -111.5v-75h279v-155h-272v-851h-215v849l-100 14q-25 5 -40.5 18t-15.5 37v88h156v75q0 91 27.5 168.5t87 134t153.5 88t227 31.5q47 0 88.5 -3.5t85 -8t91 -8t106.5 -3.5v-595
q63 69 141 110t178 41q89 0 160.5 -34.5t121.5 -99.5t77 -157.5t27 -208.5q0 -124 -30.5 -225.5t-87.5 -174t-138 -112t-181 -39.5q-49 0 -89 9.5t-74 27t-62.5 43t-54.5 57.5l-9 -79q-5 -23 -18 -33t-36 -10h-140zM1313 866q-79 0 -137.5 -35.5t-109.5 -101.5v-473
q45 -58 98.5 -81.5t116.5 -23.5q127 0 198 92t71 285q0 176 -61.5 257t-175.5 81z" />
    <glyph glyph-name="f_f_b.liga" unicode="ffb" horiz-adv-x="2488" 
d="M200 0v849l-100 14q-25 5 -40.5 18t-15.5 37v88h156v69q0 88 25.5 157t73 117t115.5 73t153 25q35 0 66.5 -5t61.5 -14l-4 -109q-2 -26 -26.5 -31.5t-61.5 -5.5q-45 0 -81 -10.5t-61.5 -35.5t-39 -66t-13.5 -101v-63h432v75q0 91 27.5 168.5t86.5 134t153 88t227 31.5
q44 0 84 -3.5t80.5 -7.5t85 -7.5t98.5 -4.5h23v-595q63 69 141 110t178 41q89 0 160.5 -34.5t121.5 -99.5t77 -157.5t27 -208.5q0 -124 -30.5 -225.5t-87.5 -174t-138 -112t-181 -39.5q-49 0 -89 9.5t-74 27t-62.5 43t-54.5 57.5l-9 -79q-5 -23 -18 -33t-36 -10h-140v1333
q-40 13 -84 20.5t-85 7.5q-70 0 -121.5 -21t-85.5 -58.5t-50.5 -89t-16.5 -111.5v-75h279v-155h-272v-851h-214v851h-425v-851h-215zM1952 866q-79 0 -137.5 -35.5t-109.5 -101.5v-473q45 -58 98.5 -81.5t116.5 -23.5q127 0 198 92t71 285q0 176 -61.5 257t-175.5 81z" />
    <glyph glyph-name="uniFB00" unicode="ff" horiz-adv-x="1349" 
d="M200 0v849l-100 14q-25 5 -40.5 18t-15.5 37v88h156v69q0 88 25.5 157t73 117t115.5 73t153 25q35 0 66.5 -5t61.5 -14l-4 -109q-2 -26 -26.5 -31.5t-61.5 -5.5q-45 0 -81 -10.5t-61.5 -35.5t-39 -66t-13.5 -101v-63h432v99q0 88 25.5 157t73 117t115.5 73t152 25
q35 0 67 -5t62 -14l-5 -109q-2 -26 -26.5 -31.5t-61.5 -5.5q-45 0 -81 -10.5t-61.5 -35.5t-39 -66t-13.5 -101v-93h279v-155h-272v-851h-214v851h-425v-851h-215z" />
    <glyph glyph-name="f_h.liga" unicode="fh" horiz-adv-x="1842" 
d="M851 0v1333q-41 13 -84.5 20.5t-84.5 7.5q-70 0 -121.5 -21t-85.5 -58.5t-50.5 -89t-16.5 -111.5v-75h279v-155h-272v-851h-215v849l-100 14q-25 5 -40.5 18t-15.5 37v88h156v75q0 91 27.5 168.5t87 134t153.5 88t227 31.5q44 0 84 -3.5t80.5 -7.5t85 -7.5t98.5 -4.5h23
v-581q63 62 138 99.5t175 37.5q84 0 147.5 -28t107 -79t65.5 -122.5t22 -157.5v-649h-214v649q0 103 -47.5 160t-144.5 57q-72 0 -133.5 -33t-115.5 -90v-743h-215z" />
    <glyph glyph-name="f_f_h.liga" unicode="ffh" horiz-adv-x="2482" 
d="M200 0v849l-100 14q-25 5 -40.5 18t-15.5 37v88h156v69q0 88 25.5 157t73 117t115.5 73t153 25q35 0 66.5 -5t61.5 -14l-4 -109q-2 -26 -26.5 -31.5t-61.5 -5.5q-45 0 -81 -10.5t-61.5 -35.5t-39 -66t-13.5 -101v-63h432v75q0 91 27.5 168.5t86.5 134t153 88t227 31.5
q44 0 84 -3.5t80.5 -7.5t85 -7.5t98.5 -4.5h23v-581q63 62 138 99.5t175 37.5q84 0 147.5 -28t107 -79t65.5 -122.5t22 -157.5v-649h-214v649q0 103 -47.5 160t-144.5 57q-72 0 -133.5 -33t-115.5 -90v-743h-215v1333q-40 13 -84 20.5t-85 7.5q-70 0 -121.5 -21t-85.5 -58.5
t-50.5 -89t-16.5 -111.5v-75h279v-155h-272v-851h-214v851h-425v-851h-215z" />
    <glyph glyph-name="f_igrave.liga" unicode="f&#xec;" horiz-adv-x="1175" 
d="M723 1482q63 0 101 -20.5t56 -54.5l146 -242h-122q-25 0 -40.5 7t-31.5 25l-118 127q-81 -2 -139 -21t-95 -54t-54 -86.5t-17 -119.5v-37h625v-1006h-215v851h-403v-851h-215v849l-100 14q-25 5 -40.5 18t-15.5 37v88h156v43q0 94 28.5 173t91.5 137t162 90.5t240 32.5z
" />
    <glyph glyph-name="f_icircumflex.liga" unicode="f&#xee;" horiz-adv-x="1174" 
d="M201 0v849l-100 14q-25 5 -40.5 18t-15.5 37v88h156v125q0 165 79 253t222 88q26 0 46 -2.5t40 -8.5v-119q0 -17 -15.5 -22.5t-40.5 -5.5q-64 0 -93.5 -42.5t-29.5 -140.5v-125h625v-1006h-215v851h-403v-851h-215zM1260 1169h-144q-13 0 -25.5 4t-25.5 18l-110 116
q-5 5 -9.5 10t-9.5 11q-9 -12 -18 -21l-112 -116q-11 -11 -24 -16.5t-27 -5.5h-149l227 271h200z" />
    <glyph glyph-name="f_itilde.liga" unicode="f&#x129;" horiz-adv-x="1174" 
d="M45 0zM1035 1344q32 0 50 18.5t19 61.5h131q0 -52 -14 -94.5t-39.5 -73t-61 -47t-77.5 -16.5q-35 0 -66 13.5t-58 29.5t-51 29.5t-45 13.5q-32 0 -50 -19.5t-18 -62.5h-133q0 52 14.5 95t40 73.5t61 47.5t77.5 17q36 0 67 -13.5t58 -29.5t50.5 -29.5t44.5 -13.5zM201 0
v849l-100 14q-25 5 -40.5 18t-15.5 37v88h156v125q0 165 79 253t222 88q26 0 46 -2.5t40 -8.5v-119q0 -17 -15.5 -22.5t-40.5 -5.5q-64 0 -93.5 -42.5t-29.5 -140.5v-125h625v-1006h-215v851h-403v-851h-215z" />
    <glyph glyph-name="f_idieresis.liga" unicode="f&#xef;" horiz-adv-x="1174" 
d="M882 1291q0 -26 -10 -48.5t-27.5 -39t-41 -26.5t-49.5 -10q-25 0 -47.5 10t-39.5 26.5t-27 39t-10 48.5t10 49.5t27 41t39.5 27.5t47.5 10q26 0 49.5 -10t41 -27.5t27.5 -41t10 -49.5zM1222 1291q0 -26 -10 -48.5t-27 -39t-40 -26.5t-49 -10t-49 10t-40 26.5t-27 39
t-10 48.5t10 49.5t27 41t40 27.5t49 10t49 -10t40 -27.5t27 -41t10 -49.5zM201 0v849l-100 14q-25 5 -40.5 18t-15.5 37v88h156v125q0 165 79 253t222 88q26 0 46 -2.5t40 -8.5v-119q0 -17 -15.5 -22.5t-40.5 -5.5q-64 0 -93.5 -42.5t-29.5 -140.5v-125h625v-1006h-215v851
h-403v-851h-215z" />
    <glyph glyph-name="f_imacron.liga" unicode="f&#x12b;" horiz-adv-x="1174" 
d="M45 0zM633 1361h586v-139h-586v139zM201 0v849l-100 14q-25 5 -40.5 18t-15.5 37v88h156v125q0 165 79 253t222 88q26 0 46 -2.5t40 -8.5v-119q0 -17 -15.5 -22.5t-40.5 -5.5q-64 0 -93.5 -42.5t-29.5 -140.5v-125h625v-1006h-215v851h-403v-851h-215z" />
    <glyph glyph-name="f_ibreve.liga" unicode="f&#x12d;" horiz-adv-x="1174" 
d="M45 0zM926 1163q-81 0 -136.5 22t-89.5 60t-48.5 88t-14.5 107h151q0 -32 6.5 -57.5t22 -43.5t42 -28t67.5 -10q40 0 67 10t42.5 28t22 43.5t6.5 57.5h151q0 -57 -14.5 -107t-48.5 -88t-89.5 -60t-136.5 -22zM201 0v849l-100 14q-25 5 -40.5 18t-15.5 37v88h156v125
q0 165 79 253t222 88q26 0 46 -2.5t40 -8.5v-119q0 -17 -15.5 -22.5t-40.5 -5.5q-64 0 -93.5 -42.5t-29.5 -140.5v-125h625v-1006h-215v851h-403v-851h-215z" />
    <glyph glyph-name="f_iogonek.liga" unicode="f&#x12f;" horiz-adv-x="1174" 
d="M201 0v849l-100 14q-25 5 -40.5 18t-15.5 37v88h156v43q0 94 30 173t91 137t152.5 90.5t214.5 32.5q40 0 82.5 -5t72.5 -15l-7 -112q-2 -21 -25 -23.5t-61 -2.5q-93 0 -158 -17.5t-106 -53t-59.5 -88t-18.5 -122.5v-37h625v-1006h-25q-20 -11 -39.5 -26t-35.5 -33
t-26 -39.5t-10 -45.5q0 -33 21.5 -52.5t59.5 -19.5q21 0 34 3t22 6t15 6t11 3q16 0 21 -14l33 -80q-32 -23 -79.5 -37t-101.5 -14q-94 0 -145.5 40t-51.5 106q0 56 37.5 106.5t101.5 90.5h-57v851h-403v-851h-215z" />
    <glyph glyph-name="f_dotlessi.liga" unicode="f&#x131;" horiz-adv-x="1175" 
d="M201 0v849l-100 14q-25 5 -40.5 18t-15.5 37v88h156v125q0 165 79 253t222 88q26 0 46 -2.5t40 -8.5v-119q0 -17 -15.5 -22.5t-40.5 -5.5q-64 0 -93.5 -42.5t-29.5 -140.5v-125h625v-1006h-215v851h-403v-851h-215z" />
    <glyph glyph-name="uniFB03" unicode="ffi" horiz-adv-x="1814" 
d="M201 0v849l-100 14q-25 5 -40.5 18t-15.5 37v88h156v69q0 88 25.5 157t73 117t115.5 73t153 25q35 0 66.5 -5t61.5 -14l-4 -109q-2 -26 -26.5 -31.5t-61.5 -5.5q-45 0 -81 -10.5t-61.5 -35.5t-39 -66t-13.5 -101v-63h432v43q0 94 30 173t90.5 137t152.5 90.5t215 32.5
q39 0 81.5 -5t72.5 -15l-7 -112q-2 -21 -25 -23.5t-61 -2.5q-93 0 -158 -17.5t-106 -53t-59.5 -88t-18.5 -122.5v-37h625v-1006h-214v851h-404v-851h-214v851h-425v-851h-215z" />
    <glyph glyph-name="f_f_igrave.liga" unicode="ff&#xec;" horiz-adv-x="1813" 
d="M201 0v849l-101 14q-25 5 -40.5 18t-15.5 37v88h157v69q0 88 25.5 157t73 117t115.5 73t153 25q35 0 66.5 -5t61.5 -14l-4 -109q-2 -26 -26.5 -31.5t-61.5 -5.5q-45 0 -81 -10.5t-61.5 -35.5t-39 -66t-13.5 -101v-63h431v99q0 88 28.5 157t88 117t150 73t213.5 25
q83 0 128.5 -12t59.5 -36l157 -264h-121q-25 0 -40.5 7t-31.5 25l-123 132q-8 1 -15 1h-15q-142 0 -207 -53.5t-65 -177.5v-93h625v-1006h-215v851h-403v-851h-214v851h-424v-851h-215z" />
    <glyph glyph-name="f_f_icircumflex.liga" unicode="ff&#xee;" horiz-adv-x="1813" 
d="M45 0zM1459 0v851h-404v-851h-214v851h-425v-851h-215v849l-100 14q-25 5 -40.5 18t-15.5 37v88h156v69q0 88 25.5 157t73 117t115.5 73t153 25q35 0 66.5 -5t61.5 -14l-4 -109q-2 -26 -26.5 -31.5t-61.5 -5.5q-45 0 -81 -10.5t-61.5 -35.5t-39 -66t-13.5 -101v-63h432
v125q0 165 78.5 253t221.5 88q26 0 46.5 -2.5t39.5 -8.5v-119q0 -17 -15 -22.5t-40 -5.5q-65 0 -94.5 -42.5t-29.5 -140.5v-125h625v-1006h-214zM1897 1169h-144q-13 0 -25.5 4t-25.5 18l-110 116q-5 5 -9.5 10t-9.5 11q-9 -12 -18 -21l-112 -116q-11 -11 -24 -16.5
t-27 -5.5h-149l227 271h200z" />
    <glyph glyph-name="f_f_itilde.liga" unicode="ff&#x129;" horiz-adv-x="1813" 
d="M45 0zM1459 0v851h-404v-851h-214v851h-425v-851h-215v849l-100 14q-25 5 -40.5 18t-15.5 37v88h156v69q0 88 25.5 157t73 117t115.5 73t153 25q35 0 66.5 -5t61.5 -14l-4 -109q-2 -26 -26.5 -31.5t-61.5 -5.5q-45 0 -81 -10.5t-61.5 -35.5t-39 -66t-13.5 -101v-63h432
v125q0 165 78.5 253t221.5 88q26 0 46.5 -2.5t39.5 -8.5v-119q0 -17 -15 -22.5t-40 -5.5q-65 0 -94.5 -42.5t-29.5 -140.5v-125h625v-1006h-214zM1676 1344q32 0 50 18.5t19 61.5h131q0 -52 -14 -94.5t-39.5 -73t-61 -47t-77.5 -16.5q-35 0 -66 13.5t-58 29.5t-51 29.5
t-45 13.5q-32 0 -50 -19.5t-18 -62.5h-133q0 52 14.5 95t40 73.5t61 47.5t77.5 17q36 0 67 -13.5t58 -29.5t50.5 -29.5t44.5 -13.5z" />
    <glyph glyph-name="f_f_idieresis.liga" unicode="ff&#xef;" horiz-adv-x="1813" 
d="M1518 1291q0 -26 -10 -48.5t-27.5 -39t-40.5 -26.5t-49 -10q-25 0 -47.5 10t-39.5 26.5t-27 39t-10 48.5t10 49.5t27 41t39.5 27.5t47.5 10q26 0 49 -10t40.5 -27.5t27.5 -41t10 -49.5zM1858 1291q0 -26 -10 -48.5t-27 -39t-40 -26.5t-49 -10t-48.5 10t-39.5 26.5t-27 39
t-10 48.5t10 49.5t27 41t39.5 27.5t48.5 10t49 -10t40 -27.5t27 -41t10 -49.5zM1459 0v851h-404v-851h-214v851h-425v-851h-215v849l-100 14q-25 5 -40.5 18t-15.5 37v88h156v69q0 88 25.5 157t73 117t115.5 73t153 25q35 0 66.5 -5t61.5 -14l-4 -109q-2 -26 -26.5 -31.5
t-61.5 -5.5q-45 0 -81 -10.5t-61.5 -35.5t-39 -66t-13.5 -101v-63h432v125q0 165 78.5 253t221.5 88q26 0 46.5 -2.5t39.5 -8.5v-119q0 -17 -15 -22.5t-40 -5.5q-65 0 -94.5 -42.5t-29.5 -140.5v-125h625v-1006h-214z" />
    <glyph glyph-name="f_f_imacron.liga" unicode="ff&#x12b;" horiz-adv-x="1813" 
d="M45 0zM1459 0v851h-404v-851h-214v851h-425v-851h-215v849l-100 14q-25 5 -40.5 18t-15.5 37v88h156v69q0 88 25.5 157t73 117t115.5 73t153 25q35 0 66.5 -5t61.5 -14l-4 -109q-2 -26 -26.5 -31.5t-61.5 -5.5q-45 0 -81 -10.5t-61.5 -35.5t-39 -66t-13.5 -101v-63h432
v125q0 165 78.5 253t221.5 88q26 0 46.5 -2.5t39.5 -8.5v-119q0 -17 -15 -22.5t-40 -5.5q-65 0 -94.5 -42.5t-29.5 -140.5v-125h625v-1006h-214zM1276 1361h586v-139h-586v139z" />
    <glyph glyph-name="f_f_ibreve.liga" unicode="ff&#x12d;" horiz-adv-x="1813" 
d="M45 0zM1459 0v851h-404v-851h-214v851h-425v-851h-215v849l-100 14q-25 5 -40.5 18t-15.5 37v88h156v69q0 88 25.5 157t73 117t115.5 73t153 25q35 0 66.5 -5t61.5 -14l-4 -109q-2 -26 -26.5 -31.5t-61.5 -5.5q-45 0 -81 -10.5t-61.5 -35.5t-39 -66t-13.5 -101v-63h432
v125q0 165 78.5 253t221.5 88q26 0 46.5 -2.5t39.5 -8.5v-119q0 -17 -15 -22.5t-40 -5.5q-65 0 -94.5 -42.5t-29.5 -140.5v-125h625v-1006h-214zM1569 1163q-81 0 -136.5 22t-89.5 60t-48.5 88t-14.5 107h151q0 -32 6.5 -57.5t22 -43.5t42 -28t67.5 -10q40 0 67 10t42.5 28
t22 43.5t6.5 57.5h151q0 -57 -14.5 -107t-48.5 -88t-89.5 -60t-136.5 -22z" />
    <glyph glyph-name="f_f_iogonek.liga" unicode="ff&#x12f;" horiz-adv-x="1813" 
d="M201 0v849l-100 14q-25 5 -40.5 18t-15.5 37v88h156v69q0 88 25.5 157t73 117t115.5 73t153 25q35 0 66.5 -5t61.5 -14l-4 -109q-2 -26 -26.5 -31.5t-61.5 -5.5q-45 0 -81 -10.5t-61.5 -35.5t-39 -66t-13.5 -101v-63h432v43q0 94 30 173t90.5 137t152.5 90.5t215 32.5
q39 0 81.5 -5t72.5 -15l-7 -112q-2 -21 -25 -23.5t-61 -2.5q-93 0 -158 -17.5t-106 -53t-59.5 -88t-18.5 -122.5v-37h625v-1006h-22q-20 -11 -39.5 -26t-35.5 -33t-26 -39.5t-10 -45.5q0 -33 21.5 -52.5t59.5 -19.5q21 0 34 3t22 6t15 6t11 3q16 0 21 -14l33 -80
q-32 -23 -79.5 -37t-101.5 -14q-94 0 -145.5 40t-51.5 106q0 56 37.5 106.5t101.5 90.5h-59v851h-404v-851h-214v851h-425v-851h-215z" />
    <glyph glyph-name="f_f_dotlessi.liga" unicode="ff&#x131;" horiz-adv-x="1814" 
d="M1459 0v851h-404v-851h-214v851h-425v-851h-215v849l-100 14q-25 5 -40.5 18t-15.5 37v88h156v69q0 88 25.5 157t73 117t115.5 73t153 25q35 0 66.5 -5t61.5 -14l-4 -109q-2 -26 -26.5 -31.5t-61.5 -5.5q-45 0 -81 -10.5t-61.5 -35.5t-39 -66t-13.5 -101v-63h432v125
q0 165 78.5 253t221.5 88q26 0 46.5 -2.5t39.5 -8.5v-119q0 -17 -15 -22.5t-40 -5.5q-65 0 -94.5 -42.5t-29.5 -140.5v-125h625v-1006h-214z" />
    <glyph glyph-name="f_j.liga" unicode="fj" horiz-adv-x="1175" 
d="M201 0v849l-100 14q-25 5 -40.5 18t-15.5 37v88h156v43q0 94 30 173t91 137t152.5 90.5t214.5 32.5q40 0 82.5 -5t72.5 -15l-7 -112q-2 -21 -25 -23.5t-61 -2.5q-93 0 -158 -17.5t-106 -53t-59.5 -88t-18.5 -122.5v-37h625v-1059q0 -64 -17 -120.5t-54 -98.5t-95.5 -66
t-141.5 -24q-34 0 -62.5 5t-57.5 14l8 117q2 10 6 15t11.5 7.5t19.5 3t31 0.5q76 0 106.5 33.5t30.5 113.5v904h-403v-851h-215z" />
    <glyph glyph-name="f_f_j.liga" unicode="ffj" horiz-adv-x="1814" 
d="M201 0v849l-100 14q-25 5 -40.5 18t-15.5 37v88h156v69q0 88 25.5 157t73 117t115.5 73t153 25q35 0 66.5 -5t61.5 -14l-4 -109q-2 -26 -26.5 -31.5t-61.5 -5.5q-45 0 -81 -10.5t-61.5 -35.5t-39 -66t-13.5 -101v-63h432v43q0 94 30 173t90.5 137t152.5 90.5t215 32.5
q39 0 81.5 -5t72.5 -15l-7 -112q-2 -21 -25 -23.5t-61 -2.5q-93 0 -158 -17.5t-106 -53t-59.5 -88t-18.5 -122.5v-37h625v-1059q0 -64 -17 -120.5t-53.5 -98.5t-95 -66t-142.5 -24q-34 0 -62.5 5t-57.5 14l8 117q2 10 6 15t11.5 7.5t19.5 3t31 0.5q38 0 64.5 8t43 25.5
t23.5 45.5t7 68v904h-404v-851h-214v851h-425v-851h-215z" />
    <glyph glyph-name="f_k.liga" unicode="fk" horiz-adv-x="1763" 
d="M200 0v849l-100 14q-25 5 -40.5 18t-15.5 37v88h156v75q0 91 27.5 168.5t87 134t153.5 88t227 31.5q44 0 84 -3.5t80.5 -7.5t85 -7.5t98.5 -4.5h23v-858h46q22 0 36 6t29 25l286 327q15 20 33 30t46 10h195l-344 -388q-30 -39 -66 -62q20 -14 35 -31.5t29 -39.5l367 -499
h-192q-26 0 -44.5 8.5t-32.5 31.5l-295 400q-15 23 -30 29.5t-45 6.5h-53v-476h-215v1333q-41 13 -84.5 20.5t-84.5 7.5q-70 0 -121.5 -21t-85.5 -58.5t-50.5 -89t-16.5 -111.5v-75h279v-155h-272v-851h-215z" />
    <glyph glyph-name="f_f_k.liga" unicode="ffk" horiz-adv-x="2404" 
d="M201 0v849l-100 14q-25 5 -40.5 18t-15.5 37v88h156v69q0 88 25.5 157t73 117t115.5 73t153 25q35 0 66.5 -5t61.5 -14l-4 -109q-2 -26 -26.5 -31.5t-61.5 -5.5q-45 0 -81 -10.5t-61.5 -35.5t-39 -66t-13.5 -101v-63h432v75q0 91 27.5 168.5t86.5 134t153 88t227 31.5
q44 0 84 -3.5t80.5 -7.5t85 -7.5t98.5 -4.5h23v-858h46q22 0 36 6t29 25l286 327q15 20 33 30t46 10h195l-344 -388q-30 -39 -66 -62q20 -14 35 -31.5t29 -39.5l367 -499h-192q-26 0 -44.5 8.5t-32.5 31.5l-295 400q-15 23 -30 29.5t-45 6.5h-53v-476h-215v1333
q-40 13 -84 20.5t-85 7.5q-70 0 -121.5 -21t-85.5 -58.5t-50.5 -89t-16.5 -111.5v-75h279v-155h-272v-851h-214v851h-425v-851h-215z" />
    <glyph glyph-name="uniFB04" unicode="ffl" horiz-adv-x="1841" 
d="M200 0v849l-100 14q-25 5 -40.5 18t-15.5 37v88h156v69q0 88 25.5 157t73 117t115.5 73t153 25q35 0 66.5 -5t61.5 -14l-4 -109q-2 -26 -26.5 -31.5t-61.5 -5.5q-45 0 -81 -10.5t-61.5 -35.5t-39 -66t-13.5 -101v-63h432v48q0 83 25.5 158t78 132t132 91t187.5 34
q81 0 154.5 -6t145.5 -7h142v-1456h-213v1306q-54 2 -106 5t-90 3q-120 0 -184.5 -68t-64.5 -192v-48h279v-155h-272v-851h-214v851h-425v-851h-215z" />
    <glyph glyph-name="f_t.liga" unicode="ft" horiz-adv-x="1393" 
d="M1071 851v-579q0 -55 27 -84t72 -29q25 0 43 6.5t31 14t22.5 14t18.5 6.5q18 0 29 -20l64 -105q-50 -44 -118 -67.5t-140 -23.5q-127 0 -195.5 71.5t-68.5 201.5v594h-441v-851h-215v849l-100 14q-25 5 -40.5 18t-15.5 37v88h156v86q0 87 25.5 156t73 117t115.5 73.5
t153 25.5q35 0 66.5 -5t61.5 -15l-4 -108q-2 -27 -26.5 -32t-61.5 -5q-45 0 -81 -10.5t-61.5 -35.5t-39 -66t-13.5 -102v-79h456l48 297q5 17 17 27.5t32 10.5h110v-335h283v-155h-283z" />
    <glyph glyph-name="f_f_t.liga" unicode="fft" horiz-adv-x="2033" 
d="M201 0v849l-100 14q-25 5 -40.5 18t-15.5 37v88h156v69q0 88 25.5 157t73 117t115.5 73t153 25q35 0 66.5 -5t61.5 -14l-4 -109q-2 -26 -26.5 -31.5t-61.5 -5.5q-45 0 -81 -10.5t-61.5 -35.5t-39 -66t-13.5 -101v-63h432v86q0 87 25.5 156t73 117t115.5 73.5t152 25.5
q67 0 129 -20l-5 -108q-2 -27 -26.5 -32t-61.5 -5q-45 0 -81 -10.5t-61.5 -35.5t-39 -66t-13.5 -102v-79h457l48 297q4 17 16 27.5t32 10.5h110v-335h283v-155h-283v-579q0 -55 27 -84t72 -29q25 0 43.5 6.5t31.5 14t22.5 14t17.5 6.5q11 0 17 -4.5t13 -15.5l63 -105
q-50 -44 -117.5 -67.5t-139.5 -23.5q-128 0 -196 71.5t-68 201.5v594h-442v-851h-214v851h-425v-851h-215z" />
    <glyph glyph-name="t_f.liga" unicode="tf" horiz-adv-x="1391" 
d="M881 0v851h-472v-579q0 -55 27 -84t72 -29q25 0 43 6.5t31 14t22.5 14t18.5 6.5q18 0 29 -20l64 -105q-50 -44 -118 -67.5t-140 -23.5q-127 0 -195.5 71.5t-68.5 201.5v594h-112q-18 0 -31 11.5t-13 34.5v87l165 24l47 295q5 17 17 27.5t32 10.5h110v-335h472v86
q0 87 25.5 156t73 117t115.5 73.5t152 25.5q67 0 129 -20l-5 -108q-2 -27 -26.5 -32t-61.5 -5q-45 0 -81 -10.5t-61.5 -35.5t-39 -66t-13.5 -102v-79h279v-155h-272v-851h-214z" />
    <glyph glyph-name="t_iogonek.liga" unicode="t&#x12f;" horiz-adv-x="1261" 
d="M1154 -198q16 0 21 -14l32 -80q-31 -23 -78.5 -37t-101.5 -14q-94 0 -145.5 40t-51.5 106q0 56 37.5 106.5t101.5 90.5h-63v851h-497v-579q0 -55 27 -84t72 -29q25 0 43 6.5t31 14t22.5 14t18.5 6.5q18 0 29 -20l64 -105q-50 -44 -118 -67.5t-140 -23.5
q-127 0 -195.5 71.5t-68.5 201.5v594h-112q-18 0 -31 11.5t-13 34.5v87l165 24l47 295q5 17 17 27.5t32 10.5h110v-335h712v-1006h-19q-20 -11 -40 -26t-35.5 -33t-25.5 -39.5t-10 -45.5q0 -33 21.5 -52.5t58.5 -19.5q21 0 34.5 3t22.5 6t15 6t11 3zM1157 1328
q0 -29 -11.5 -55t-31.5 -45.5t-46.5 -31t-55.5 -11.5t-54.5 11.5t-45 31t-31 45.5t-11.5 55q0 30 11.5 56t31 45.5t45 31t54.5 11.5t55.5 -11.5t46.5 -31t31.5 -45.5t11.5 -56z" />
    <glyph glyph-name="t_dotlessi.liga" unicode="t&#x131;" horiz-adv-x="1262" 
d="M458 -16q-127 0 -195.5 71.5t-68.5 201.5v594h-112q-18 0 -31 11.5t-13 34.5v87l165 24l47 295q5 17 17 27.5t32 10.5h110v-335h712v-1006h-215v851h-497v-579q0 -55 27 -84t72 -29q25 0 43 6.5t31 14t22.5 14t18.5 6.5q18 0 29 -20l64 -105q-50 -44 -118 -67.5
t-140 -23.5z" />
    <glyph glyph-name="t_t.liga" unicode="tt" horiz-adv-x="1387" 
d="M458 -16q-127 0 -195.5 71.5t-68.5 201.5v594h-112q-18 0 -31 11.5t-13 34.5v87l165 24l47 295q5 17 17 27.5t32 10.5h110v-335h450l48 297q4 17 16 27.5t32 10.5h110v-335h283v-155h-283v-579q0 -55 27 -84t72 -29q25 0 43.5 6.5t31.5 14t22.5 14t17.5 6.5q11 0 17 -4.5
t13 -15.5l64 -105q-51 -44 -118.5 -67.5t-139.5 -23.5q-128 0 -196 71.5t-68 201.5v594h-442v-579q0 -55 27 -84t72 -29q25 0 43 6.5t31 14t22.5 14t18.5 6.5q18 0 29 -20l64 -105q-50 -44 -118 -67.5t-140 -23.5z" />
    <glyph glyph-name="t_t_f.liga" unicode="ttf" horiz-adv-x="2047" 
d="M1537 0v851h-472v-579q0 -55 27 -84t72 -29q25 0 43.5 6.5t31.5 14t22.5 14t17.5 6.5q11 0 17 -4.5t13 -15.5l64 -105q-51 -44 -118.5 -67.5t-139.5 -23.5q-128 0 -196 71.5t-68 201.5v594h-442v-579q0 -55 27 -84t72 -29q25 0 43 6.5t31 14t22.5 14t18.5 6.5
q18 0 29 -20l64 -105q-50 -44 -118 -67.5t-140 -23.5q-127 0 -195.5 71.5t-68.5 201.5v594h-112q-18 0 -31 11.5t-13 34.5v87l165 24l47 295q5 17 17 27.5t32 10.5h110v-335h450l48 297q4 17 16 27.5t32 10.5h110v-335h472v86q0 87 25.5 156t73 117t115.5 73.5t152 25.5
q67 0 129 -20l-5 -108q-2 -27 -26 -32t-62 -5q-45 0 -80.5 -10.5t-61 -35.5t-39 -66t-13.5 -102v-79h278v-155h-272v-851h-214z" />
    <glyph glyph-name="t_t_iogonek.liga" unicode="tt&#x12f;" horiz-adv-x="1897" 
d="M1792 -198q16 0 21 -14l33 -80q-32 -23 -79.5 -37t-101.5 -14q-94 0 -145.5 40t-51.5 106q0 56 37.5 106.5t101.5 90.5h-64v851h-478v-579q0 -55 27 -84t72 -29q25 0 43.5 6.5t31.5 14t22.5 14t17.5 6.5q11 0 17 -4.5t13 -15.5l64 -105q-51 -44 -118.5 -67.5
t-139.5 -23.5q-128 0 -196 71.5t-68 201.5v594h-442v-579q0 -55 27 -84t72 -29q25 0 43 6.5t31 14t22.5 14t18.5 6.5q18 0 29 -20l64 -105q-50 -44 -118 -67.5t-140 -23.5q-127 0 -195.5 71.5t-68.5 201.5v594h-112q-18 0 -31 11.5t-13 34.5v87l165 24l47 295q5 17 17 27.5
t32 10.5h110v-335h450l48 297q4 17 16 27.5t32 10.5h110v-335h692v-1006h-17q-20 -11 -39.5 -26t-35.5 -33t-26 -39.5t-10 -45.5q0 -33 21.5 -52.5t59.5 -19.5q21 0 34 3t22 6t15 6t11 3zM1793 1328q0 -29 -11.5 -55t-31.5 -45.5t-46.5 -31t-55.5 -11.5t-54.5 11.5t-45 31
t-30.5 45.5t-11 55q0 30 11 56t30.5 45.5t45 31t54.5 11.5t55.5 -11.5t46.5 -31t31.5 -45.5t11.5 -56z" />
    <glyph glyph-name="t_t_dotlessi.liga" unicode="tt&#x131;" horiz-adv-x="1898" 
d="M1757 1006v-1006h-214v851h-478v-579q0 -55 27 -84t72 -29q25 0 43.5 6.5t31.5 14t22.5 14t17.5 6.5q11 0 17 -4.5t13 -15.5l64 -105q-51 -44 -118.5 -67.5t-139.5 -23.5q-128 0 -196 71.5t-68 201.5v594h-442v-579q0 -55 27 -84t72 -29q25 0 43 6.5t31 14t22.5 14
t18.5 6.5q18 0 29 -20l64 -105q-50 -44 -118 -67.5t-140 -23.5q-127 0 -195.5 71.5t-68.5 201.5v594h-112q-18 0 -31 11.5t-13 34.5v87l165 24l47 295q5 17 17 27.5t32 10.5h110v-335h450l48 297q4 17 16 27.5t32 10.5h110v-335h692z" />
    <glyph glyph-name="f_uni01D0.liga" unicode="f&#x1d0;" horiz-adv-x="1174" 
d="M201 0v849l-100 14q-25 5 -40.5 18t-15.5 37v88h156v125q0 165 79 253t222 88q26 0 46 -2.5t40 -8.5v-119q0 -17 -15.5 -22.5t-40.5 -5.5q-64 0 -93.5 -42.5t-29.5 -140.5v-125h625v-1006h-215v851h-403v-851h-215zM1031 1169h-199l-207 271h149q13 0 26.5 -4t18.5 -12
l96 -122q5 -8 10 -17t10 -19q4 10 9 19t10 17l96 122q5 8 18.5 12t26.5 4h143z" />
    <glyph glyph-name="f_uni0209.liga" unicode="f&#x209;" horiz-adv-x="1174" 
d="M536 1472q37 0 63 -3t45.5 -10.5t34 -20t27.5 -31.5l179 -242h-102q-25 0 -40.5 7t-31.5 25l-111 117q-54 -2 -91 -12t-59 -31.5t-31.5 -55.5t-9.5 -84v-125h625v-1006h-215v851h-403v-851h-215v849l-100 14q-25 5 -40.5 18t-15.5 37v88h156v125q0 83 24.5 146.5
t68.5 107t106 65.5t136 22zM936 1456q36 0 55 -12t32 -37l132 -242h-88q-25 0 -41.5 6.5t-30.5 25.5l-200 259h141z" />
    <glyph glyph-name="f_uni020B.liga" unicode="f&#x20b;" horiz-adv-x="1174" 
d="M201 0v849l-100 14q-25 5 -40.5 18t-15.5 37v88h156v125q0 165 79 253t222 88q26 0 46 -2.5t40 -8.5v-119q0 -17 -15.5 -22.5t-40.5 -5.5q-64 0 -93.5 -42.5t-29.5 -140.5v-125h625v-1006h-215v851h-403v-851h-215zM933 1450q81 0 136 -22t89 -60t48.5 -88.5t14.5 -106.5
h-150q0 31 -6.5 56.5t-22 44t-42.5 28.5t-67 10q-41 0 -67.5 -10t-42.5 -28.5t-22.5 -44t-6.5 -56.5h-150q0 56 14.5 106.5t48.5 88.5t89.5 60t136.5 22z" />
    <glyph glyph-name="f_uni1E2F.liga" unicode="f&#x1e2f;" horiz-adv-x="1174" 
d="M878 1209q0 -23 -9.5 -43t-25.5 -35t-37 -24t-44 -9t-43 9t-35.5 24t-24.5 35t-9 43q0 24 9 45t24.5 36.5t35.5 25t43 9.5t44 -9.5t37 -25t25.5 -36.5t9.5 -45zM1215 1209q0 -23 -9 -43t-24.5 -35t-36 -24t-43.5 -9t-44 9t-36.5 24t-24.5 35t-9 43q0 24 9 45t24.5 36.5
t36.5 25t44 9.5t43.5 -9.5t36 -25t24.5 -36.5t9 -45zM1267 1596l-220 -215q-18 -17 -38.5 -24.5t-47.5 -7.5h-115l126 199q14 24 32 36t55 12h208zM201 0v849l-100 14q-25 5 -40.5 18t-15.5 37v88h156v125q0 165 79 253t222 88q26 0 46 -2.5t40 -8.5v-119q0 -17 -15.5 -22.5
t-40.5 -5.5q-64 0 -93.5 -42.5t-29.5 -140.5v-125h625v-1006h-215v851h-403v-851h-215z" />
    <glyph glyph-name="f_f_uni01D0.liga" unicode="ff&#x1d0;" horiz-adv-x="1813" 
d="M201 0v849l-100 14q-25 5 -40.5 18t-15.5 37v88h156v69q0 88 25.5 157t73 117t115.5 73t153 25q35 0 66.5 -5t61.5 -14l-4 -109q-2 -26 -26.5 -31.5t-61.5 -5.5q-45 0 -81 -10.5t-61.5 -35.5t-39 -66t-13.5 -101v-63h432v125q0 165 78.5 253t221.5 88q26 0 46.5 -2.5
t39.5 -8.5v-119q0 -17 -15 -22.5t-40 -5.5q-65 0 -94.5 -42.5t-29.5 -140.5v-125h625v-1006h-214v851h-404v-851h-214v851h-425v-851h-215zM1259 1440h148q14 0 27 -4t18 -12l97 -122q5 -8 9.5 -17l9.5 -19l9.5 19t9.5 17l96 122q6 8 19 12t27 4h143l-207 -271h-200z" />
    <glyph glyph-name="f_f_uni0209.liga" unicode="ff&#x209;" horiz-adv-x="1813" 
d="M201 0v849l-100 14q-25 5 -40.5 18t-15.5 37v88h156v69q0 88 25.5 157t73 117t115.5 73t153 25q35 0 66.5 -5t61.5 -14l-4 -109q-2 -26 -26.5 -31.5t-61.5 -5.5q-45 0 -81 -10.5t-61.5 -35.5t-39 -66t-13.5 -101v-63h432v125q0 165 87 253t256 88q37 0 63 -3t45.5 -10.5
t34 -20t27.5 -31.5l178 -242h-101q-25 0 -40 7.5t-32 24.5l-111 117q-55 -2 -93 -12t-62 -31.5t-34.5 -55.5t-10.5 -84v-125h625v-1006h-214v851h-404v-851h-214v851h-425v-851h-215zM1585 1456q37 0 55.5 -12t31.5 -37l132 -242h-88q-25 0 -41.5 6.5t-30.5 25.5l-199 259
h140z" />
    <glyph glyph-name="f_f_uni020B.liga" unicode="ff&#x20b;" horiz-adv-x="1813" 
d="M201 0v849l-100 14q-25 5 -40.5 18t-15.5 37v88h156v69q0 88 25.5 157t73 117t115.5 73t153 25q35 0 66.5 -5t61.5 -14l-4 -109q-2 -26 -26.5 -31.5t-61.5 -5.5q-45 0 -81 -10.5t-61.5 -35.5t-39 -66t-13.5 -101v-63h432v125q0 165 78.5 253t221.5 88q26 0 46.5 -2.5
t39.5 -8.5v-119q0 -17 -15 -22.5t-40 -5.5q-65 0 -94.5 -42.5t-29.5 -140.5v-125h625v-1006h-214v851h-404v-851h-214v851h-425v-851h-215zM1560 1450q81 0 136 -22t89 -60t48.5 -88.5t14.5 -106.5h-150q0 31 -6.5 56.5t-22 44t-42.5 28.5t-67 10q-41 0 -67.5 -10t-42 -28.5
t-22 -44t-6.5 -56.5h-151q0 56 14.5 106.5t48.5 88.5t89.5 60t136.5 22z" />
    <glyph glyph-name="f_f_uni1E2F.liga" unicode="ff&#x1e2f;" horiz-adv-x="1813" 
d="M201 0v849l-100 14q-25 5 -40.5 18t-15.5 37v88h156v69q0 88 25.5 157t73 117t115.5 73t153 25q35 0 66.5 -5t61.5 -14l-4 -109q-2 -26 -26.5 -31.5t-61.5 -5.5q-45 0 -81 -10.5t-61.5 -35.5t-39 -66t-13.5 -101v-63h432v125q0 165 78.5 253t221.5 88q26 0 46.5 -2.5
t39.5 -8.5v-119q0 -17 -15 -22.5t-40 -5.5q-65 0 -94.5 -42.5t-29.5 -140.5v-125h625v-1006h-214v851h-404v-851h-214v851h-425v-851h-215zM1906 1596l-221 -215q-18 -17 -38 -24.5t-47 -7.5h-115l125 199q14 24 32.5 36t54.5 12h209zM1854 1209q0 -23 -9 -43t-24.5 -35
t-36.5 -24t-44 -9t-43.5 9t-36 24t-24.5 35t-9 43q0 24 9 45t24.5 36.5t36 25t43.5 9.5t44 -9.5t36.5 -25t24.5 -36.5t9 -45zM1516 1209q0 -23 -9.5 -43t-25 -35t-36.5 -24t-44 -9t-43 9t-35.5 24t-24.5 35t-9 43q0 24 9 45t24.5 36.5t35.5 25t43 9.5t44 -9.5t36.5 -25
t25 -36.5t9.5 -45z" />
    <glyph glyph-name="f_uni0237.liga" unicode="f&#x237;" horiz-adv-x="1175" 
d="M201 0v849l-100 14q-25 5 -40.5 18t-15.5 37v88h156v125q0 165 79 253t222 88q26 0 46 -2.5t40 -8.5v-119q0 -17 -15.5 -22.5t-40.5 -5.5q-64 0 -93.5 -42.5t-29.5 -140.5v-125h625v-1059q0 -64 -17 -120.5t-54 -98.5t-95.5 -66t-141.5 -24q-34 0 -62.5 5t-57.5 14l8 117
q2 10 6 15t11.5 7.5t19.5 3t31 0.5q76 0 106.5 33.5t30.5 113.5v904h-403v-851h-215z" />
    <glyph glyph-name="f_f_uni0237.liga" unicode="ff&#x237;" horiz-adv-x="1814" 
d="M1673 -53q0 -64 -17 -120.5t-53.5 -98.5t-95 -66t-142.5 -24q-34 0 -62.5 5t-57.5 14l8 117q2 10 6 15t11.5 7.5t19.5 3t31 0.5q38 0 64.5 8t43 25.5t23.5 45.5t7 68v904h-404v-851h-214v851h-425v-851h-215v849l-100 14q-25 5 -40.5 18t-15.5 37v88h156v69
q0 88 25.5 157t73 117t115.5 73t153 25q35 0 66.5 -5t61.5 -14l-4 -109q-2 -26 -26.5 -31.5t-61.5 -5.5q-45 0 -81 -10.5t-61.5 -35.5t-39 -66t-13.5 -101v-63h432v125q0 165 78.5 253t221.5 88q26 0 46.5 -2.5t39.5 -8.5v-119q0 -17 -15 -22.5t-40 -5.5q-65 0 -94.5 -42.5
t-29.5 -140.5v-125h625v-1059v0z" />
    <glyph glyph-name="f_jcircumflex.liga" unicode="f&#x135;" horiz-adv-x="1174" 
d="M45 0zM201 0v849l-100 14q-25 5 -40.5 18t-15.5 37v88h156v125q0 165 79 253t222 88q26 0 46 -2.5t40 -8.5v-119q0 -17 -15.5 -22.5t-40.5 -5.5q-64 0 -93.5 -42.5t-29.5 -140.5v-125h625v-1059q0 -64 -17 -120.5t-54 -98.5t-95.5 -66t-141.5 -24q-34 0 -62.5 5t-57.5 14
l8 117q2 10 6 15t11.5 7.5t19.5 3t31 0.5q76 0 106.5 33.5t30.5 113.5v904h-403v-851h-215zM1256 1169h-144q-13 0 -25.5 4t-25.5 18l-110 116q-5 5 -9.5 10t-9.5 11q-9 -12 -18 -21l-112 -116q-11 -11 -24 -16.5t-27 -5.5h-149l227 271h200z" />
    <glyph glyph-name="f_lcaron.liga" unicode="f&#x13e;" horiz-adv-x="1202" 
d="M45 0zM201 0v849l-100 14q-25 5 -40.5 18t-15.5 37v88h156v48q0 83 26 158t78.5 132t132 91t187.5 34q81 0 154 -6t145 -7h143v-1456h-213v1306q-54 2 -106 5t-90 3q-120 0 -184.5 -68t-64.5 -192v-48h253v-155h-246v-851h-215zM1381 1482q25 0 31 -11.5t6 -23.5
q0 -9 -3.5 -25.5t-13.5 -45.5t-27 -75.5t-45 -115.5q-12 -25 -29.5 -32.5t-46.5 -7.5h-75l59 337h144z" />
    <glyph glyph-name="f_uni013C.liga" unicode="f&#x13c;" horiz-adv-x="1203" 
d="M45 0zM201 0v849l-100 14q-25 5 -40.5 18t-15.5 37v88h156v48q0 83 26 158t78.5 132t132 91t187.5 34q81 0 154 -6t145 -7h143v-1456h-213v1306q-54 2 -106 5t-90 3q-120 0 -184.5 -68t-64.5 -192v-48h253v-155h-246v-851h-215zM1019 -93q26 0 32 -11.5t6 -23.5
q0 -9 -2.5 -25.5t-9.5 -42.5t-20.5 -63.5t-34.5 -88.5q-11 -25 -28.5 -33t-46.5 -8h-76l50 296h130z" />
    <glyph glyph-name="f_uni021B.liga" unicode="f&#x21b;" horiz-adv-x="1393" 
d="M44 0zM1071 851v-579q0 -55 27 -84t72 -29q25 0 43 6.5t31 14t22.5 14t18.5 6.5q18 0 29 -20l64 -105q-50 -44 -118 -67.5t-140 -23.5q-127 0 -195.5 71.5t-68.5 201.5v594h-441v-851h-215v849l-100 14q-25 5 -40.5 18t-15.5 37v88h156v86q0 87 25.5 156t73 117
t115.5 73.5t153 25.5q35 0 66.5 -5t61.5 -15l-4 -108q-2 -27 -26.5 -32t-61.5 -5q-45 0 -81 -10.5t-61.5 -35.5t-39 -66t-13.5 -102v-79h456l48 297q5 17 17 27.5t32 10.5h110v-335h283v-155h-283zM1157 -93q26 0 32 -11.5t6 -23.5q0 -9 -2.5 -25.5t-9.5 -42.5t-20.5 -63.5
t-34.5 -88.5q-11 -25 -28.5 -33t-46.5 -8h-76l50 296h130z" />
    <glyph glyph-name="f_tcaron.liga" unicode="f&#x165;" horiz-adv-x="1393" 
d="M44 0zM1071 851v-579q0 -55 27 -84t72 -29q25 0 43 6.5t31 14t22.5 14t18.5 6.5q18 0 29 -20l64 -105q-50 -44 -118 -67.5t-140 -23.5q-127 0 -195.5 71.5t-68.5 201.5v594h-441v-851h-215v849l-100 14q-25 5 -40.5 18t-15.5 37v88h156v86q0 87 25.5 156t73 117
t115.5 73.5t153 25.5q35 0 66.5 -5t61.5 -15l-4 -108q-2 -27 -26.5 -32t-61.5 -5q-45 0 -81 -10.5t-61.5 -35.5t-39 -66t-13.5 -102v-79h456l48 297q5 17 17 27.5t32 10.5h110v-335h283v-155h-283zM1464 1482q25 0 31 -11.5t6 -23.5q0 -9 -3.5 -25.5t-13.5 -45.5t-27 -75.5
t-45 -115.5q-12 -25 -29.5 -32.5t-46.5 -7.5h-75l59 337h144z" />
    <glyph glyph-name="f_uni1ECB.liga" unicode="f&#x1ecb;" horiz-adv-x="1175" 
d="M45 0zM201 0v849l-100 14q-25 5 -40.5 18t-15.5 37v88h156v43q0 94 30 173t91 137t152.5 90.5t214.5 32.5q40 0 82.5 -5t72.5 -15l-7 -112q-2 -21 -25 -23.5t-61 -2.5q-93 0 -158 -17.5t-106 -53t-59.5 -88t-18.5 -122.5v-37h625v-1006h-215v851h-403v-851h-215z
M1055 -243q0 -26 -10.5 -49t-28 -40t-41 -27t-49.5 -10t-48.5 10t-39.5 27t-27 40t-10 49t10 49.5t27 41t39.5 27.5t48.5 10t49.5 -10t41 -27.5t28 -41t10.5 -49.5z" />
    <glyph glyph-name="f_uni1E2D.liga" unicode="f&#x1e2d;" horiz-adv-x="1175" 
d="M45 0zM201 0v849l-100 14q-25 5 -40.5 18t-15.5 37v88h156v43q0 94 30 173t91 137t152.5 90.5t214.5 32.5q40 0 82.5 -5t72.5 -15l-7 -112q-2 -21 -25 -23.5t-61 -2.5q-93 0 -158 -17.5t-106 -53t-59.5 -88t-18.5 -122.5v-37h625v-1006h-215v851h-403v-851h-215z
M1032 -163q32 0 50 18.5t19 61.5h131q0 -52 -14 -94.5t-39.5 -73t-61 -47t-77.5 -16.5q-35 0 -66 13.5t-58 29.5t-51 29.5t-45 13.5q-32 0 -50 -19.5t-18 -62.5h-133q0 52 14.5 95t40 73.5t61 47.5t77.5 17q36 0 67 -13.5t58 -29.5t50.5 -29.5t44.5 -13.5z" />
    <glyph glyph-name="f_uni0268.liga" unicode="f&#x268;" horiz-adv-x="1214" 
d="M819 569v282h-403v-851h-215v849l-100 14q-25 5 -40.5 18t-15.5 37v88h156v43q0 94 30 173t91 137t152.5 90.5t214.5 32.5q40 0 82.5 -5t72.5 -15l-7 -112q-2 -21 -25 -23.5t-61 -2.5q-93 0 -158 -17.5t-106 -53t-59.5 -88t-18.5 -122.5v-37h625v-437h148v-155h-148v-414
h-215v414h-144v155h144z" />
    <glyph glyph-name="f_iacute.liga" unicode="f&#xed;" horiz-adv-x="1174" 
d="M45 0zM201 0v849l-100 14q-25 5 -40.5 18t-15.5 37v88h156v125q0 165 79 253t222 88q26 0 46 -2.5t40 -8.5v-119q0 -17 -15.5 -22.5t-40.5 -5.5q-64 0 -93.5 -42.5t-29.5 -140.5v-125h625v-1006h-215v851h-403v-851h-215zM1246 1456l-241 -259q-16 -18 -31.5 -25
t-40.5 -7h-128l145 242q14 25 32.5 37t54.5 12h209z" />
    <glyph glyph-name="f_uni1EC9.liga" unicode="f&#x1ec9;" horiz-adv-x="1174" 
d="M45 0zM201 0v849l-100 14q-25 5 -40.5 18t-15.5 37v88h156v125q0 165 79 253t222 88q26 0 46 -2.5t40 -8.5v-119q0 -17 -15.5 -22.5t-40.5 -5.5q-64 0 -93.5 -42.5t-29.5 -140.5v-125h625v-1006h-215v851h-403v-851h-215zM723 1433q32 23 84 37.5t112 14.5q49 0 85 -10
t59.5 -28t35 -42t11.5 -52q0 -51 -34.5 -89.5t-86.5 -59.5l-18 -84h-104v142q53 7 72 25.5t19 41.5q0 22 -15 37.5t-51 15.5q-20 0 -35 -4t-27 -9.5t-21.5 -9.5t-17.5 -4q-11 0 -16.5 5.5t-11.5 14.5z" />
    <glyph glyph-name="f_f_uni1ECB.liga" unicode="ff&#x1ecb;" horiz-adv-x="1814" 
d="M45 0zM201 0v849l-100 14q-25 5 -40.5 18t-15.5 37v88h156v69q0 88 25.5 157t73 117t115.5 73t153 25q35 0 66.5 -5t61.5 -14l-4 -109q-2 -26 -26.5 -31.5t-61.5 -5.5q-45 0 -81 -10.5t-61.5 -35.5t-39 -66t-13.5 -101v-63h432v43q0 94 30 173t90.5 137t152.5 90.5
t215 32.5q39 0 81.5 -5t72.5 -15l-7 -112q-2 -21 -25 -23.5t-61 -2.5q-93 0 -158 -17.5t-106 -53t-59.5 -88t-18.5 -122.5v-37h625v-1006h-214v851h-404v-851h-214v851h-425v-851h-215zM1697 -243q0 -26 -10.5 -49t-28 -40t-41 -27t-49.5 -10t-48.5 10t-39.5 27t-27 40
t-10 49t10 49.5t27 41t39.5 27.5t48.5 10t49.5 -10t41 -27.5t28 -41t10.5 -49.5z" />
    <glyph glyph-name="f_f_uni1E2D.liga" unicode="ff&#x1e2d;" horiz-adv-x="1814" 
d="M45 0zM201 0v849l-100 14q-25 5 -40.5 18t-15.5 37v88h156v69q0 88 25.5 157t73 117t115.5 73t153 25q35 0 66.5 -5t61.5 -14l-4 -109q-2 -26 -26.5 -31.5t-61.5 -5.5q-45 0 -81 -10.5t-61.5 -35.5t-39 -66t-13.5 -101v-63h432v43q0 94 30 173t90.5 137t152.5 90.5
t215 32.5q39 0 81.5 -5t72.5 -15l-7 -112q-2 -21 -25 -23.5t-61 -2.5q-93 0 -158 -17.5t-106 -53t-59.5 -88t-18.5 -122.5v-37h625v-1006h-214v851h-404v-851h-214v851h-425v-851h-215zM1674 -163q32 0 50 18.5t19 61.5h131q0 -52 -14 -94.5t-39.5 -73t-61 -47t-77.5 -16.5
q-35 0 -66 13.5t-58 29.5t-51 29.5t-45 13.5q-32 0 -50 -19.5t-18 -62.5h-133q0 52 14.5 95t40 73.5t61 47.5t77.5 17q36 0 67 -13.5t58 -29.5t50.5 -29.5t44.5 -13.5z" />
    <glyph glyph-name="f_f_uni0268.liga" unicode="ff&#x268;" horiz-adv-x="1856" 
d="M1459 569v282h-404v-851h-214v851h-425v-851h-215v849l-100 14q-25 5 -40.5 18t-15.5 37v88h156v69q0 88 25.5 157t73 117t115.5 73t153 25q35 0 66.5 -5t61.5 -14l-4 -109q-2 -26 -26.5 -31.5t-61.5 -5.5q-45 0 -81 -10.5t-61.5 -35.5t-39 -66t-13.5 -101v-63h432v43
q0 94 30 173t90.5 137t152.5 90.5t215 32.5q39 0 81.5 -5t72.5 -15l-7 -112q-2 -21 -25 -23.5t-61 -2.5q-93 0 -158 -17.5t-106 -53t-59.5 -88t-18.5 -122.5v-37h625v-437h150v-155h-150v-414h-214v414h-143v155h143z" />
    <glyph glyph-name="f_f_iacute.liga" unicode="ff&#xed;" horiz-adv-x="1813" 
d="M45 0zM1459 0v851h-404v-851h-214v851h-425v-851h-215v849l-100 14q-25 5 -40.5 18t-15.5 37v88h156v69q0 88 25.5 157t73 117t115.5 73t153 25q35 0 66.5 -5t61.5 -14l-4 -109q-2 -26 -26.5 -31.5t-61.5 -5.5q-45 0 -81 -10.5t-61.5 -35.5t-39 -66t-13.5 -101v-63h432
v125q0 165 78.5 253t221.5 88q26 0 46.5 -2.5t39.5 -8.5v-119q0 -17 -15 -22.5t-40 -5.5q-65 0 -94.5 -42.5t-29.5 -140.5v-125h625v-1006h-214zM1888 1456l-241 -259q-16 -18 -31.5 -25t-40.5 -7h-128l145 242q14 25 32.5 37t54.5 12h209z" />
    <glyph glyph-name="f_f_uni1EC9.liga" unicode="ff&#x1ec9;" horiz-adv-x="1804" 
d="M45 0zM1459 0v851h-404v-851h-214v851h-425v-851h-215v849l-100 14q-25 5 -40.5 18t-15.5 37v88h156v69q0 88 25.5 157t73 117t115.5 73t153 25q35 0 66.5 -5t61.5 -14l-4 -109q-2 -26 -26.5 -31.5t-61.5 -5.5q-45 0 -81 -10.5t-61.5 -35.5t-39 -66t-13.5 -101v-63h432
v125q0 165 78.5 253t221.5 88q26 0 46.5 -2.5t39.5 -8.5v-119q0 -17 -15 -22.5t-40 -5.5q-65 0 -94.5 -42.5t-29.5 -140.5v-125h625v-1006h-214zM1366 1433q32 23 84 37.5t112 14.5q49 0 85 -10t59.5 -28t35 -42t11.5 -52q0 -51 -34.5 -89.5t-86.5 -59.5l-18 -84h-104v142
q53 7 72 25.5t19 41.5q0 22 -15 37.5t-51 15.5q-20 0 -35 -4t-27 -9.5t-21.5 -9.5t-17.5 -4q-11 0 -16.5 5.5t-11.5 14.5z" />
    <glyph glyph-name="f_lacute.liga" unicode="f&#x13a;" horiz-adv-x="1203" 
d="M45 0zM201 0v849l-100 14q-25 5 -40.5 18t-15.5 37v88h156v48q0 83 26 158t78.5 132t132 91t187.5 34q81 0 154 -6t145 -7h143v-1456h-213v1306q-54 2 -106 5t-90 3q-120 0 -184.5 -68t-64.5 -192v-48h253v-155h-246v-851h-215zM1364 1857l-325 -286q-18 -16 -34 -20
t-40 -4h-155l220 273q9 13 18 20t20 11t24.5 5t31.5 1h240z" />
    <glyph glyph-name="t_i.liga" unicode="ti" horiz-adv-x="1261" 
d="M38 0zM458 -16q-127 0 -195.5 71.5t-68.5 201.5v594h-112q-18 0 -31 11.5t-13 34.5v87l165 24l47 295q5 17 17 27.5t32 10.5h110v-335h712v-1006h-215v851h-497v-579q0 -55 27 -84t72 -29q25 0 43 6.5t31 14t22.5 14t18.5 6.5q18 0 29 -20l64 -105q-50 -44 -118 -67.5
t-140 -23.5zM1165 1333q0 -29 -11.5 -54.5t-31.5 -45t-46.5 -31t-55.5 -11.5t-54.5 11.5t-45 31t-31 45t-11.5 54.5q0 30 11.5 56.5t31 46t45 31t54.5 11.5t55.5 -11.5t46.5 -31t31.5 -46t11.5 -56.5z" />
    <glyph glyph-name="t_igrave.liga" unicode="t&#xec;" horiz-adv-x="1261" 
d="M38 0zM458 -16q-127 0 -195.5 71.5t-68.5 201.5v594h-112q-18 0 -31 11.5t-13 34.5v87l165 24l47 295q5 17 17 27.5t32 10.5h110v-335h712v-1006h-215v851h-497v-579q0 -55 27 -84t72 -29q25 0 43 6.5t31 14t22.5 14t18.5 6.5q18 0 29 -20l64 -105q-50 -44 -118 -67.5
t-140 -23.5zM927 1456q37 0 55 -12t32 -37l146 -242h-122q-25 0 -40.5 7t-31.5 25l-241 259h202z" />
    <glyph glyph-name="t_iacute.liga" unicode="t&#xed;" horiz-adv-x="1260" 
d="M37 0zM457 -16q-127 0 -195.5 71.5t-68.5 201.5v594h-112q-18 0 -31 11.5t-13 34.5v87l165 24l47 295q5 17 17 27.5t32 10.5h110v-335h712v-1006h-215v851h-497v-579q0 -55 27 -84t72 -29q25 0 43 6.5t31 14t22.5 14t18.5 6.5q18 0 29 -20l64 -105q-50 -44 -118 -67.5
t-140 -23.5zM1339 1456l-241 -259q-16 -18 -31.5 -25t-40.5 -7h-128l145 242q14 25 32.5 37t54.5 12h209z" />
    <glyph glyph-name="t_icircumflex.liga" unicode="t&#xee;" horiz-adv-x="1261" 
d="M38 0zM458 -16q-127 0 -195.5 71.5t-68.5 201.5v594h-112q-18 0 -31 11.5t-13 34.5v87l165 24l47 295q5 17 17 27.5t32 10.5h110v-335h712v-1006h-215v851h-497v-579q0 -55 27 -84t72 -29q25 0 43 6.5t31 14t22.5 14t18.5 6.5q18 0 29 -20l64 -105q-50 -44 -118 -67.5
t-140 -23.5zM1348 1169h-144q-13 0 -25.5 4t-25.5 18l-110 116q-5 5 -9.5 10t-9.5 11q-9 -12 -18 -21l-112 -116q-11 -11 -24 -16.5t-27 -5.5h-149l227 271h200z" />
    <glyph glyph-name="t_idieresis.liga" unicode="t&#xef;" horiz-adv-x="1261" 
d="M38 0zM458 -16q-127 0 -195.5 71.5t-68.5 201.5v594h-112q-18 0 -31 11.5t-13 34.5v87l165 24l47 295q5 17 17 27.5t32 10.5h110v-335h712v-1006h-215v851h-497v-579q0 -55 27 -84t72 -29q25 0 43 6.5t31 14t22.5 14t18.5 6.5q18 0 29 -20l64 -105q-50 -44 -118 -67.5
t-140 -23.5zM984 1291q0 -26 -10.5 -48.5t-28 -39t-40.5 -26.5t-49 -10q-25 0 -47.5 10t-39.5 26.5t-27 39t-10 48.5t10 49.5t27 41t39.5 27.5t47.5 10q26 0 49 -10t40.5 -27.5t28 -41t10.5 -49.5zM1310 1291q0 -26 -10 -48.5t-27 -39t-40 -26.5t-49 -10t-49 10t-40 26.5
t-27 39t-10 48.5t10 49.5t27 41t40 27.5t49 10t49 -10t40 -27.5t27 -41t10 -49.5z" />
    <glyph glyph-name="t_imacron.liga" unicode="t&#x12b;" horiz-adv-x="1261" 
d="M38 0zM458 -16q-127 0 -195.5 71.5t-68.5 201.5v594h-112q-18 0 -31 11.5t-13 34.5v87l165 24l47 295q5 17 17 27.5t32 10.5h110v-335h712v-1006h-215v851h-497v-579q0 -55 27 -84t72 -29q25 0 43 6.5t31 14t22.5 14t18.5 6.5q18 0 29 -20l64 -105q-50 -44 -118 -67.5
t-140 -23.5zM728 1361h586v-139h-586v139z" />
    <glyph glyph-name="t_itilde.liga" unicode="t&#x129;" horiz-adv-x="1260" 
d="M37 0zM457 -16q-127 0 -195.5 71.5t-68.5 201.5v594h-112q-18 0 -31 11.5t-13 34.5v87l165 24l47 295q5 17 17 27.5t32 10.5h110v-335h712v-1006h-215v851h-497v-579q0 -55 27 -84t72 -29q25 0 43 6.5t31 14t22.5 14t18.5 6.5q18 0 29 -20l64 -105q-50 -44 -118 -67.5
t-140 -23.5zM1128 1344q32 0 50 18.5t19 61.5h131q0 -52 -14 -94.5t-39.5 -73t-61 -47t-77.5 -16.5q-35 0 -66 13.5t-58 29.5t-51 29.5t-45 13.5q-32 0 -50 -19.5t-18 -62.5h-133q0 52 14.5 95t40 73.5t61 47.5t77.5 17q36 0 67 -13.5t58 -29.5t50.5 -29.5t44.5 -13.5z" />
    <glyph glyph-name="t_ibreve.liga" unicode="t&#x12d;" horiz-adv-x="1261" 
d="M38 0zM458 -16q-127 0 -195.5 71.5t-68.5 201.5v594h-112q-18 0 -31 11.5t-13 34.5v87l165 24l47 295q5 17 17 27.5t32 10.5h110v-335h712v-1006h-215v851h-497v-579q0 -55 27 -84t72 -29q25 0 43 6.5t31 14t22.5 14t18.5 6.5q18 0 29 -20l64 -105q-50 -44 -118 -67.5
t-140 -23.5zM1021 1163q-81 0 -136.5 22t-89.5 60t-48.5 88t-14.5 107h151q0 -32 6.5 -57.5t22 -43.5t42 -28t67.5 -10q40 0 67 10t42.5 28t22 43.5t6.5 57.5h151q0 -57 -14.5 -107t-48.5 -88t-89.5 -60t-136.5 -22z" />
    <glyph glyph-name="t_uni01D0.liga" unicode="t&#x1d0;" horiz-adv-x="1261" 
d="M38 0zM458 -16q-127 0 -195.5 71.5t-68.5 201.5v594h-112q-18 0 -31 11.5t-13 34.5v87l165 24l47 295q5 17 17 27.5t32 10.5h110v-335h712v-1006h-215v851h-497v-579q0 -55 27 -84t72 -29q25 0 43 6.5t31 14t22.5 14t18.5 6.5q18 0 29 -20l64 -105q-50 -44 -118 -67.5
t-140 -23.5zM694 1440h149q14 0 26 -5t19 -11l116 -122q5 -5 10 -10.5t10 -12.5q8 12 19 23l116 122q8 5 20 10.5t25 5.5h144l-227 -271h-200z" />
    <glyph glyph-name="t_uni1E2D.liga" unicode="t&#x1e2d;" horiz-adv-x="1260" 
d="M37 0zM457 -16q-127 0 -195.5 71.5t-68.5 201.5v594h-112q-18 0 -31 11.5t-13 34.5v87l165 24l47 295q5 17 17 27.5t32 10.5h110v-335h712v-1006h-215v851h-497v-579q0 -55 27 -84t72 -29q25 0 43 6.5t31 14t22.5 14t18.5 6.5q18 0 29 -20l64 -105q-50 -44 -118 -67.5
t-140 -23.5zM1163 1333q0 -29 -11.5 -54.5t-31.5 -45t-46.5 -31t-55.5 -11.5t-54.5 11.5t-45 31t-31 45t-11.5 54.5q0 30 11.5 56.5t31 46t45 31t54.5 11.5t55.5 -11.5t46.5 -31t31.5 -46t11.5 -56.5zM1124 -163q32 0 50 18.5t19 61.5h131q0 -52 -14 -94.5t-39.5 -73
t-61 -47t-77.5 -16.5q-35 0 -66 13.5t-58 29.5t-51 29.5t-45 13.5q-32 0 -50 -19.5t-18 -62.5h-133q0 52 14.5 95t40 73.5t61 47.5t77.5 17q36 0 67 -13.5t58 -29.5t50.5 -29.5t44.5 -13.5z" />
    <glyph glyph-name="t_uni1E2F.liga" unicode="t&#x1e2f;" horiz-adv-x="1260" 
d="M37 0zM457 -16q-127 0 -195.5 71.5t-68.5 201.5v594h-112q-18 0 -31 11.5t-13 34.5v87l165 24l47 295q5 17 17 27.5t32 10.5h110v-335h712v-1006h-215v851h-497v-579q0 -55 27 -84t72 -29q25 0 43 6.5t31 14t22.5 14t18.5 6.5q18 0 29 -20l64 -105q-50 -44 -118 -67.5
t-140 -23.5zM1382 1774l-241 -259q-16 -18 -31.5 -25t-40.5 -7h-128l145 242q14 25 32.5 37t54.5 12h209zM948 1291q0 -26 -10 -48.5t-27.5 -39t-41 -26.5t-49.5 -10q-25 0 -47.5 10t-39.5 26.5t-27 39t-10 48.5t10 49.5t27 41t39.5 27.5t47.5 10q26 0 49.5 -10t41 -27.5
t27.5 -41t10 -49.5zM1342 1291q0 -26 -10 -48.5t-27.5 -39t-40.5 -26.5t-49 -10t-48.5 10t-39.5 26.5t-27 39t-10 48.5t10 49.5t27 41t39.5 27.5t48.5 10t49 -10t40.5 -27.5t27.5 -41t10 -49.5z" />
    <glyph glyph-name="t_uni0268.liga" unicode="t&#x268;" horiz-adv-x="1312" 
d="M906 569v282h-497v-579q0 -55 27 -84t72 -29q25 0 43 6.5t31 14t22.5 14t18.5 6.5q18 0 29 -20l64 -105q-50 -44 -118 -67.5t-140 -23.5q-127 0 -195.5 71.5t-68.5 201.5v594h-112q-18 0 -31 11.5t-13 34.5v87l165 24l47 295q5 17 17 27.5t32 10.5h110v-335h712v-437h154
v-155h-154v-414h-215v414h-138v155h138zM1165 1333q0 -29 -11.5 -54.5t-31.5 -45t-46.5 -31t-55.5 -11.5t-54.5 11.5t-45 31t-31 45t-11.5 54.5q0 30 11.5 56.5t31 46t45 31t54.5 11.5t55.5 -11.5t46.5 -31t31.5 -46t11.5 -56.5z" />
    <glyph glyph-name="t_uni020B.liga" unicode="t&#x20b;" horiz-adv-x="1261" 
d="M38 0zM458 -16q-127 0 -195.5 71.5t-68.5 201.5v594h-112q-18 0 -31 11.5t-13 34.5v87l165 24l47 295q5 17 17 27.5t32 10.5h110v-335h712v-1006h-215v851h-497v-579q0 -55 27 -84t72 -29q25 0 43 6.5t31 14t22.5 14t18.5 6.5q18 0 29 -20l64 -105q-50 -44 -118 -67.5
t-140 -23.5zM1021 1455q81 0 136.5 -22t89.5 -60t48.5 -88.5t14.5 -106.5h-151q0 31 -6.5 56.5t-22 44t-42.5 28.5t-67 10q-41 0 -67.5 -10t-42 -28.5t-22 -44t-6.5 -56.5h-151q0 56 14.5 106.5t48.5 88.5t89.5 60t136.5 22z" />
    <glyph glyph-name="t_uni0209.liga" unicode="t&#x209;" horiz-adv-x="1261" 
d="M38 0zM458 -16q-127 0 -195.5 71.5t-68.5 201.5v594h-112q-18 0 -31 11.5t-13 34.5v87l165 24l47 295q5 17 17 27.5t32 10.5h110v-335h712v-1006h-215v851h-497v-579q0 -55 27 -84t72 -29q25 0 43 6.5t31 14t22.5 14t18.5 6.5q18 0 29 -20l64 -105q-50 -44 -118 -67.5
t-140 -23.5zM1038 1456q36 0 55 -12t32 -37l132 -242h-89q-24 0 -41 6.5t-31 25.5l-199 259h141zM720 1456q18 0 31 -3t23 -9.5t18 -15.5t16 -21l178 -242h-102q-24 0 -39.5 7t-32.5 25l-247 259h155z" />
    <glyph glyph-name="t_t_i.liga" unicode="tti" horiz-adv-x="1897" 
d="M38 0zM1757 1006v-1006h-214v851h-478v-579q0 -55 27 -84t72 -29q25 0 43.5 6.5t31.5 14t22.5 14t17.5 6.5q11 0 17 -4.5t13 -15.5l64 -105q-51 -44 -118.5 -67.5t-139.5 -23.5q-128 0 -196 71.5t-68 201.5v594h-442v-579q0 -55 27 -84t72 -29q25 0 43 6.5t31 14t22.5 14
t18.5 6.5q18 0 29 -20l64 -105q-50 -44 -118 -67.5t-140 -23.5q-127 0 -195.5 71.5t-68.5 201.5v594h-112q-18 0 -31 11.5t-13 34.5v87l165 24l47 295q5 17 17 27.5t32 10.5h110v-335h450l48 297q4 17 16 27.5t32 10.5h110v-335h692zM1797 1333q0 -29 -11.5 -54.5t-31.5 -45
t-46.5 -31t-55.5 -11.5t-54.5 11.5t-45 31t-31 45t-11.5 54.5q0 30 11.5 56.5t31 46t45 31t54.5 11.5t55.5 -11.5t46.5 -31t31.5 -46t11.5 -56.5z" />
    <glyph glyph-name="t_t_igrave.liga" unicode="tt&#xec;" horiz-adv-x="1897" 
d="M38 0zM1757 1006v-1006h-214v851h-478v-579q0 -55 27 -84t72 -29q25 0 43.5 6.5t31.5 14t22.5 14t17.5 6.5q11 0 17 -4.5t13 -15.5l64 -105q-51 -44 -118.5 -67.5t-139.5 -23.5q-128 0 -196 71.5t-68 201.5v594h-442v-579q0 -55 27 -84t72 -29q25 0 43 6.5t31 14t22.5 14
t18.5 6.5q18 0 29 -20l64 -105q-50 -44 -118 -67.5t-140 -23.5q-127 0 -195.5 71.5t-68.5 201.5v594h-112q-18 0 -31 11.5t-13 34.5v87l165 24l47 295q5 17 17 27.5t32 10.5h110v-335h450l48 297q4 17 16 27.5t32 10.5h110v-335h692zM1559 1456q37 0 55 -12t32 -37l146 -242
h-122q-25 0 -40.5 7t-31.5 25l-241 259h202z" />
    <glyph glyph-name="t_t_iacute.liga" unicode="tt&#xed;" horiz-adv-x="1896" 
d="M37 0zM1756 1006v-1006h-214v851h-478v-579q0 -55 27 -84t72 -29q25 0 43.5 6.5t31.5 14t22.5 14t17.5 6.5q11 0 17 -4.5t13 -15.5l64 -105q-51 -44 -118.5 -67.5t-139.5 -23.5q-128 0 -196 71.5t-68 201.5v594h-442v-579q0 -55 27 -84t72 -29q25 0 43 6.5t31 14t22.5 14
t18.5 6.5q18 0 29 -20l64 -105q-50 -44 -118 -67.5t-140 -23.5q-127 0 -195.5 71.5t-68.5 201.5v594h-112q-18 0 -31 11.5t-13 34.5v87l165 24l47 295q5 17 17 27.5t32 10.5h110v-335h450l48 297q4 17 16 27.5t32 10.5h110v-335h692zM1972 1456l-241 -259q-16 -18 -31.5 -25
t-40.5 -7h-128l145 242q14 25 32.5 37t54.5 12h209z" />
    <glyph glyph-name="t_t_icircumflex.liga" unicode="tt&#xee;" horiz-adv-x="1897" 
d="M38 0zM1757 1006v-1006h-214v851h-478v-579q0 -55 27 -84t72 -29q25 0 43.5 6.5t31.5 14t22.5 14t17.5 6.5q11 0 17 -4.5t13 -15.5l64 -105q-51 -44 -118.5 -67.5t-139.5 -23.5q-128 0 -196 71.5t-68 201.5v594h-442v-579q0 -55 27 -84t72 -29q25 0 43 6.5t31 14t22.5 14
t18.5 6.5q18 0 29 -20l64 -105q-50 -44 -118 -67.5t-140 -23.5q-127 0 -195.5 71.5t-68.5 201.5v594h-112q-18 0 -31 11.5t-13 34.5v87l165 24l47 295q5 17 17 27.5t32 10.5h110v-335h450l48 297q4 17 16 27.5t32 10.5h110v-335h692zM1980 1169h-144q-13 0 -25.5 4t-25.5 18
l-110 116q-5 5 -9.5 10t-9.5 11q-9 -12 -18 -21l-112 -116q-11 -11 -24 -16.5t-27 -5.5h-149l227 271h200z" />
    <glyph glyph-name="t_t_idieresis.liga" unicode="tt&#xef;" horiz-adv-x="1897" 
d="M38 0zM1757 1006v-1006h-214v851h-478v-579q0 -55 27 -84t72 -29q25 0 43.5 6.5t31.5 14t22.5 14t17.5 6.5q11 0 17 -4.5t13 -15.5l64 -105q-51 -44 -118.5 -67.5t-139.5 -23.5q-128 0 -196 71.5t-68 201.5v594h-442v-579q0 -55 27 -84t72 -29q25 0 43 6.5t31 14t22.5 14
t18.5 6.5q18 0 29 -20l64 -105q-50 -44 -118 -67.5t-140 -23.5q-127 0 -195.5 71.5t-68.5 201.5v594h-112q-18 0 -31 11.5t-13 34.5v87l165 24l47 295q5 17 17 27.5t32 10.5h110v-335h450l48 297q4 17 16 27.5t32 10.5h110v-335h692zM1616 1291q0 -26 -10.5 -48.5t-28 -39
t-40.5 -26.5t-49 -10q-25 0 -47.5 10t-39.5 26.5t-27 39t-10 48.5t10 49.5t27 41t39.5 27.5t47.5 10q26 0 49 -10t40.5 -27.5t28 -41t10.5 -49.5zM1942 1291q0 -26 -10 -48.5t-27 -39t-40 -26.5t-49 -10t-49 10t-40 26.5t-27 39t-10 48.5t10 49.5t27 41t40 27.5t49 10
t49 -10t40 -27.5t27 -41t10 -49.5z" />
    <glyph glyph-name="t_t_imacron.liga" unicode="tt&#x12b;" horiz-adv-x="1897" 
d="M38 0zM1757 1006v-1006h-214v851h-478v-579q0 -55 27 -84t72 -29q25 0 43.5 6.5t31.5 14t22.5 14t17.5 6.5q11 0 17 -4.5t13 -15.5l64 -105q-51 -44 -118.5 -67.5t-139.5 -23.5q-128 0 -196 71.5t-68 201.5v594h-442v-579q0 -55 27 -84t72 -29q25 0 43 6.5t31 14t22.5 14
t18.5 6.5q18 0 29 -20l64 -105q-50 -44 -118 -67.5t-140 -23.5q-127 0 -195.5 71.5t-68.5 201.5v594h-112q-18 0 -31 11.5t-13 34.5v87l165 24l47 295q5 17 17 27.5t32 10.5h110v-335h450l48 297q4 17 16 27.5t32 10.5h110v-335h692zM1360 1361h586v-139h-586v139z" />
    <glyph glyph-name="t_t_itilde.liga" unicode="tt&#x129;" horiz-adv-x="1896" 
d="M37 0zM1756 1006v-1006h-214v851h-478v-579q0 -55 27 -84t72 -29q25 0 43.5 6.5t31.5 14t22.5 14t17.5 6.5q11 0 17 -4.5t13 -15.5l64 -105q-51 -44 -118.5 -67.5t-139.5 -23.5q-128 0 -196 71.5t-68 201.5v594h-442v-579q0 -55 27 -84t72 -29q25 0 43 6.5t31 14t22.5 14
t18.5 6.5q18 0 29 -20l64 -105q-50 -44 -118 -67.5t-140 -23.5q-127 0 -195.5 71.5t-68.5 201.5v594h-112q-18 0 -31 11.5t-13 34.5v87l165 24l47 295q5 17 17 27.5t32 10.5h110v-335h450l48 297q4 17 16 27.5t32 10.5h110v-335h692zM1761 1344q32 0 50 18.5t19 61.5h131
q0 -52 -14 -94.5t-39.5 -73t-61 -47t-77.5 -16.5q-35 0 -66 13.5t-58 29.5t-51 29.5t-45 13.5q-32 0 -50 -19.5t-18 -62.5h-133q0 52 14.5 95t40 73.5t61 47.5t77.5 17q36 0 67 -13.5t58 -29.5t50.5 -29.5t44.5 -13.5z" />
    <glyph glyph-name="t_t_ibreve.liga" unicode="tt&#x12d;" horiz-adv-x="1897" 
d="M38 0zM1757 1006v-1006h-214v851h-478v-579q0 -55 27 -84t72 -29q25 0 43.5 6.5t31.5 14t22.5 14t17.5 6.5q11 0 17 -4.5t13 -15.5l64 -105q-51 -44 -118.5 -67.5t-139.5 -23.5q-128 0 -196 71.5t-68 201.5v594h-442v-579q0 -55 27 -84t72 -29q25 0 43 6.5t31 14t22.5 14
t18.5 6.5q18 0 29 -20l64 -105q-50 -44 -118 -67.5t-140 -23.5q-127 0 -195.5 71.5t-68.5 201.5v594h-112q-18 0 -31 11.5t-13 34.5v87l165 24l47 295q5 17 17 27.5t32 10.5h110v-335h450l48 297q4 17 16 27.5t32 10.5h110v-335h692zM1653 1163q-81 0 -136.5 22t-89.5 60
t-48.5 88t-14.5 107h151q0 -32 6.5 -57.5t22 -43.5t42 -28t67.5 -10q40 0 67 10t42.5 28t22 43.5t6.5 57.5h151q0 -57 -14.5 -107t-48.5 -88t-89.5 -60t-136.5 -22z" />
    <glyph glyph-name="t_t_uni01D0.liga" unicode="tt&#x1d0;" horiz-adv-x="1897" 
d="M38 0zM1757 1006v-1006h-214v851h-478v-579q0 -55 27 -84t72 -29q25 0 43.5 6.5t31.5 14t22.5 14t17.5 6.5q11 0 17 -4.5t13 -15.5l64 -105q-51 -44 -118.5 -67.5t-139.5 -23.5q-128 0 -196 71.5t-68 201.5v594h-442v-579q0 -55 27 -84t72 -29q25 0 43 6.5t31 14t22.5 14
t18.5 6.5q18 0 29 -20l64 -105q-50 -44 -118 -67.5t-140 -23.5q-127 0 -195.5 71.5t-68.5 201.5v594h-112q-18 0 -31 11.5t-13 34.5v87l165 24l47 295q5 17 17 27.5t32 10.5h110v-335h450l48 297q4 17 16 27.5t32 10.5h110v-335h692zM1326 1440h149q14 0 26 -5t19 -11
l116 -122q5 -5 10 -10.5t10 -12.5q8 12 19 23l116 122q8 5 20 10.5t25 5.5h144l-227 -271h-200z" />
    <glyph glyph-name="t_t_uni1E2D.liga" unicode="tt&#x1e2d;" horiz-adv-x="1896" 
d="M37 0zM1756 1006v-1006h-214v851h-478v-579q0 -55 27 -84t72 -29q25 0 43.5 6.5t31.5 14t22.5 14t17.5 6.5q11 0 17 -4.5t13 -15.5l64 -105q-51 -44 -118.5 -67.5t-139.5 -23.5q-128 0 -196 71.5t-68 201.5v594h-442v-579q0 -55 27 -84t72 -29q25 0 43 6.5t31 14t22.5 14
t18.5 6.5q18 0 29 -20l64 -105q-50 -44 -118 -67.5t-140 -23.5q-127 0 -195.5 71.5t-68.5 201.5v594h-112q-18 0 -31 11.5t-13 34.5v87l165 24l47 295q5 17 17 27.5t32 10.5h110v-335h450l48 297q4 17 16 27.5t32 10.5h110v-335h692zM1759 -163q32 0 50 18.5t19 61.5h131
q0 -52 -14 -94.5t-39.5 -73t-61 -47t-77.5 -16.5q-35 0 -66 13.5t-58 29.5t-51 29.5t-45 13.5q-32 0 -50 -19.5t-18 -62.5h-133q0 52 14.5 95t40 73.5t61 47.5t77.5 17q36 0 67 -13.5t58 -29.5t50.5 -29.5t44.5 -13.5zM1796 1333q0 -29 -11.5 -54.5t-31.5 -45t-46.5 -31
t-55.5 -11.5t-54.5 11.5t-45 31t-31 45t-11.5 54.5q0 30 11.5 56.5t31 46t45 31t54.5 11.5t55.5 -11.5t46.5 -31t31.5 -46t11.5 -56.5z" />
    <glyph glyph-name="t_t_uni1E2F.liga" unicode="tt&#x1e2f;" horiz-adv-x="1896" 
d="M37 0zM1756 1006v-1006h-214v851h-478v-579q0 -55 27 -84t72 -29q25 0 43.5 6.5t31.5 14t22.5 14t17.5 6.5q11 0 17 -4.5t13 -15.5l64 -105q-51 -44 -118.5 -67.5t-139.5 -23.5q-128 0 -196 71.5t-68 201.5v594h-442v-579q0 -55 27 -84t72 -29q25 0 43 6.5t31 14t22.5 14
t18.5 6.5q18 0 29 -20l64 -105q-50 -44 -118 -67.5t-140 -23.5q-127 0 -195.5 71.5t-68.5 201.5v594h-112q-18 0 -31 11.5t-13 34.5v87l165 24l47 295q5 17 17 27.5t32 10.5h110v-335h450l48 297q4 17 16 27.5t32 10.5h110v-335h692zM2015 1774l-241 -259q-16 -18 -31.5 -25
t-40.5 -7h-128l145 242q14 25 32.5 37t54.5 12h209zM1581 1291q0 -26 -10 -48.5t-27.5 -39t-41 -26.5t-49.5 -10q-25 0 -47.5 10t-39.5 26.5t-27 39t-10 48.5t10 49.5t27 41t39.5 27.5t47.5 10q26 0 49.5 -10t41 -27.5t27.5 -41t10 -49.5zM1975 1291q0 -26 -10 -48.5
t-27.5 -39t-40.5 -26.5t-49 -10t-48.5 10t-39.5 26.5t-27 39t-10 48.5t10 49.5t27 41t39.5 27.5t48.5 10t49 -10t40.5 -27.5t27.5 -41t10 -49.5z" />
    <glyph glyph-name="t_t_uni0268.liga" unicode="tt&#x268;" horiz-adv-x="1945" 
d="M1543 569v282h-478v-579q0 -55 27 -84t72 -29q25 0 43.5 6.5t31.5 14t22.5 14t17.5 6.5q11 0 17 -4.5t13 -15.5l64 -105q-51 -44 -118.5 -67.5t-139.5 -23.5q-128 0 -196 71.5t-68 201.5v594h-442v-579q0 -55 27 -84t72 -29q25 0 43 6.5t31 14t22.5 14t18.5 6.5
q18 0 29 -20l64 -105q-50 -44 -118 -67.5t-140 -23.5q-127 0 -195.5 71.5t-68.5 201.5v594h-112q-18 0 -31 11.5t-13 34.5v87l165 24l47 295q5 17 17 27.5t32 10.5h110v-335h450l48 297q4 17 16 27.5t32 10.5h110v-335h692v-437h153v-155h-153v-414h-214v414h-140v155h140z
M1797 1333q0 -29 -11.5 -54.5t-31.5 -45t-46.5 -31t-55.5 -11.5t-54.5 11.5t-45 31t-31 45t-11.5 54.5q0 30 11.5 56.5t31 46t45 31t54.5 11.5t55.5 -11.5t46.5 -31t31.5 -46t11.5 -56.5z" />
    <glyph glyph-name="t_t_uni020B.liga" unicode="tt&#x20b;" horiz-adv-x="1897" 
d="M38 0zM1757 1006v-1006h-214v851h-478v-579q0 -55 27 -84t72 -29q25 0 43.5 6.5t31.5 14t22.5 14t17.5 6.5q11 0 17 -4.5t13 -15.5l64 -105q-51 -44 -118.5 -67.5t-139.5 -23.5q-128 0 -196 71.5t-68 201.5v594h-442v-579q0 -55 27 -84t72 -29q25 0 43 6.5t31 14t22.5 14
t18.5 6.5q18 0 29 -20l64 -105q-50 -44 -118 -67.5t-140 -23.5q-127 0 -195.5 71.5t-68.5 201.5v594h-112q-18 0 -31 11.5t-13 34.5v87l165 24l47 295q5 17 17 27.5t32 10.5h110v-335h450l48 297q4 17 16 27.5t32 10.5h110v-335h692zM1653 1455q81 0 136.5 -22t89.5 -60
t48.5 -88.5t14.5 -106.5h-151q0 31 -6.5 56.5t-22 44t-42.5 28.5t-67 10q-41 0 -67.5 -10t-42 -28.5t-22 -44t-6.5 -56.5h-151q0 56 14.5 106.5t48.5 88.5t89.5 60t136.5 22z" />
    <glyph glyph-name="t_t_uni0209.liga" unicode="tt&#x209;" horiz-adv-x="1897" 
d="M38 0zM1757 1006v-1006h-214v851h-478v-579q0 -55 27 -84t72 -29q25 0 43.5 6.5t31.5 14t22.5 14t17.5 6.5q11 0 17 -4.5t13 -15.5l64 -105q-51 -44 -118.5 -67.5t-139.5 -23.5q-128 0 -196 71.5t-68 201.5v594h-442v-579q0 -55 27 -84t72 -29q25 0 43 6.5t31 14t22.5 14
t18.5 6.5q18 0 29 -20l64 -105q-50 -44 -118 -67.5t-140 -23.5q-127 0 -195.5 71.5t-68.5 201.5v594h-112q-18 0 -31 11.5t-13 34.5v87l165 24l47 295q5 17 17 27.5t32 10.5h110v-335h450l48 297q4 17 16 27.5t32 10.5h110v-335h692zM1670 1456q36 0 55 -12t32 -37l132 -242
h-89q-24 0 -41 6.5t-31 25.5l-199 259h141zM1352 1456q18 0 31 -3t23 -9.5t18 -15.5t16 -21l178 -242h-102q-24 0 -39.5 7t-32.5 25l-247 259h155z" />
    <glyph glyph-name=".notdef" horiz-adv-x="1080" 
d="M244 1144q53 45 123 76.5t166 31.5q67 0 120.5 -18t91.5 -51.5t58.5 -81t20.5 -105.5q0 -55 -14.5 -94.5t-36.5 -68.5t-48 -51t-49.5 -40.5t-41 -36.5t-21.5 -41l-19 -100h-147l-15 116q-5 36 7.5 62t34 47t47.5 40t49.5 41t39 49t15.5 64q0 43 -30 68t-81 25
q-38 0 -64.5 -7.5t-45 -17t-32.5 -17t-27 -7.5q-30 0 -44 25zM390 304q0 26 9.5 49t26 40t39 26.5t49.5 9.5q25 0 47.5 -9.5t39 -26.5t26 -40t9.5 -49t-9.5 -49t-26 -39.5t-39 -26t-47.5 -9.5q-27 0 -49.5 9.5t-39 26t-26 39.5t-9.5 49zM43 1440h993v-1440h-993v1440z
M101 62h871v1316h-871v-1316z" />
    <glyph glyph-name="glyph1" horiz-adv-x="0" 
 />
    <glyph glyph-name="glyph1" horiz-adv-x="0" 
 />
    <glyph glyph-name="space" unicode=" " horiz-adv-x="498" 
 />
    <glyph glyph-name="space" unicode="&#xa0;" horiz-adv-x="498" 
 />
    <glyph glyph-name="A" unicode="A" horiz-adv-x="1373" 
d="M1376 0h-181q-31 0 -50 15.5t-29 38.5l-120 318h-620l-120 -318q-8 -20 -28 -37t-50 -17h-181l571 1440h237zM439 540h494l-198 526q-12 29 -24.5 69t-24.5 86q-12 -47 -24.5 -86.5t-23.5 -69.5z" />
    <glyph glyph-name="AE" unicode="&#xc6;" horiz-adv-x="1863" 
d="M732 1440h1048v-189h-720l54 -434h533v-183h-511l55 -445h590l-1 -189h-785l-46 372h-538l-159 -318q-11 -25 -33.5 -39.5t-54.5 -14.5h-178zM495 540h433l-90 724q-14 -47 -30 -87.5t-32 -75.5z" />
    <glyph glyph-name="B" unicode="B" horiz-adv-x="1306" 
d="M171 0v1440h479q138 0 236 -26.5t161 -75.5t92.5 -119.5t29.5 -158.5q0 -51 -15.5 -99t-48 -89t-81.5 -74.5t-116 -55.5q153 -32 229.5 -113t76.5 -211q0 -92 -34.5 -168.5t-100 -132t-161.5 -86.5t-219 -31h-528zM405 642v-457h290q79 0 133.5 18.5t89 50.5t50 75.5
t15.5 93.5q0 102 -69.5 160.5t-219.5 58.5h-289zM405 807h234q150 0 224 58t74 167q0 119 -69.5 172t-217.5 53h-245v-450z" />
    <glyph glyph-name="C" unicode="C" horiz-adv-x="1329" 
d="M1171 321q19 0 33 -15l93 -101q-88 -106 -216 -163.5t-306 -57.5q-158 0 -285.5 54.5t-217.5 152t-138.5 232.5t-48.5 297t51.5 297.5t145 233t224 151.5t287.5 54q156 0 275.5 -50.5t207.5 -134.5l-77 -109q-8 -11 -19 -19t-30 -8q-20 0 -45.5 18.5t-65 41t-99 41
t-148.5 18.5q-103 0 -189 -36t-148 -105t-96.5 -168t-34.5 -225q0 -127 36 -226.5t99 -168t148 -104.5t183 -36q60 0 107.5 6.5t87.5 21t75.5 36.5t70.5 54q20 18 40 18z" />
    <glyph glyph-name="Ccedilla" unicode="&#xc7;" horiz-adv-x="1329" 
d="M660 -242q7 0 14.5 -3t18 -6.5t24 -6.5t31.5 -3q38 0 56.5 14.5t18.5 35.5q0 34 -39 47.5t-114 24.5l41 126q-144 10 -259.5 68.5t-197 155t-125.5 226.5t-44 283q0 162 51.5 297.5t145 233t224 151.5t287.5 54q156 0 275.5 -50.5t207.5 -134.5l-77 -109q-8 -11 -19 -19
t-30 -8q-20 0 -45.5 18.5t-65 41t-99 41t-148.5 18.5q-103 0 -189 -36t-148 -105t-96.5 -168t-34.5 -225q0 -127 36 -226.5t99 -168t148 -104.5t183 -36q60 0 107.5 6.5t87.5 21t75.5 36.5t70.5 54q20 18 40 18q19 0 33 -15l93 -101q-81 -97 -194 -153t-269 -66l-15 -53
q94 -20 133.5 -56.5t39.5 -90.5q0 -33 -17 -59.5t-47.5 -45t-73 -28.5t-93.5 -10q-41 0 -77.5 7t-69.5 20l20 67q6 21 26 21z" />
    <glyph glyph-name="D" unicode="D" horiz-adv-x="1521" 
d="M1435 720q0 -160 -52 -292.5t-146.5 -227.5t-227 -147.5t-294.5 -52.5h-544v1440h544q162 0 294.5 -52.5t227 -147.5t146.5 -227.5t52 -292.5zM1196 720q0 124 -33.5 223t-96 167t-151.5 104.5t-200 36.5h-309v-1062h309q111 0 200 36t151.5 104.5t96 167t33.5 223.5z
" />
    <glyph glyph-name="E" unicode="E" horiz-adv-x="1152" 
d="M1069 1440v-189h-663v-434h530v-183h-530v-445h664l-1 -189h-898v1440h898z" />
    <glyph glyph-name="F" unicode="F" horiz-adv-x="1131" 
d="M1069 1440v-189h-663v-461h563v-189h-563v-601h-235v1440h898z" />
    <glyph glyph-name="G" unicode="G" horiz-adv-x="1456" 
d="M1350 139q-215 -155 -500 -155q-175 0 -316.5 54.5t-241.5 152t-154 232.5t-54 297q0 163 52 298.5t149 233t234 151t308 53.5q87 0 161.5 -13.5t138.5 -37.5t118 -58t99 -76l-67 -107q-16 -25 -41 -31t-54 12q-29 17 -61.5 36t-74.5 35.5t-97 27t-130 10.5
q-114 0 -205.5 -37.5t-156.5 -107t-100 -168.5t-35 -221q0 -129 37 -230.5t105 -172t164.5 -107.5t215.5 -37q89 0 158.5 19t136.5 53v286h-201q-23 0 -36 12.5t-13 32.5v133h461v-570v0z" />
    <glyph glyph-name="H" unicode="H" horiz-adv-x="1535" 
d="M1363 0h-234v641h-723v-641h-235v1440h235v-630h723v630h234v-1440z" />
    <glyph glyph-name="I" unicode="I" horiz-adv-x="577" 
d="M406 0h-235v1440h235v-1440z" />
    <glyph glyph-name="J" unicode="J" horiz-adv-x="852" 
d="M695 506q0 -121 -29.5 -217.5t-88 -164t-145 -104t-200.5 -36.5q-52 0 -103 6.5t-106 20.5l12 140q3 20 15.5 32t36.5 12q18 0 46.5 -7.5t74.5 -7.5q61 0 108.5 18t80 56.5t49 99t16.5 146.5v940h233v-934z" />
    <glyph glyph-name="K" unicode="K" horiz-adv-x="1349" 
d="M405 824h67q38 0 62 10.5t43 33.5l436 520q23 29 47.5 40.5t61.5 11.5h200l-515 -608q-21 -26 -40.5 -43.5t-42.5 -28.5q30 -11 54 -30.5t47 -51.5l534 -678h-204q-22 0 -37.5 3t-27 9t-20 15t-15.5 20l-450 550q-10 13 -20 22t-23.5 15t-30.5 8.5t-40 2.5h-86v-645h-234
v1440h234v-616z" />
    <glyph glyph-name="L" unicode="L" horiz-adv-x="1033" 
d="M405 196h598v-196h-832v1440h234v-1244z" />
    <glyph glyph-name="M" unicode="M" horiz-adv-x="1874" 
d="M887 564q14 -29 28 -59.5t25 -62.5q12 32 25.5 63.5t28.5 60.5l455 835q14 28 31 33.5t48 5.5h175v-1440h-206v987q0 24 1.5 52t3.5 57l-462 -854q-27 -53 -83 -53h-33q-57 0 -83 53l-471 857q3 -30 5 -58.5t2 -53.5v-987h-206v1440h175q31 0 48 -5.5t31 -33.5l462 -837
v0z" />
    <glyph glyph-name="N" unicode="N" horiz-adv-x="1535" 
d="M293 1440q15 0 25.5 -1.5t19.5 -5.5t17 -12t17 -20l792 -1017q-3 31 -4.5 61t-1.5 56v939h205v-1440h-119q-27 0 -46 9.5t-36 31.5l-791 1016q3 -29 4.5 -57.5t1.5 -52.5v-947h-206v1440h122v0z" />
    <glyph glyph-name="O" unicode="O" horiz-adv-x="1609" 
d="M1524 720q0 -160 -52 -295t-146.5 -232.5t-227 -152.5t-294.5 -55q-161 0 -293.5 55t-227.5 152.5t-147 232.5t-52 295t52 295t147 233t227.5 153t293.5 55q162 0 294.5 -55t227 -153t146.5 -233t52 -295zM1285 720q0 124 -33.5 223t-96 168t-151.5 106t-200 37
q-110 0 -199 -37t-152 -106t-97 -168t-34 -223q0 -125 34 -224t97 -167.5t152 -105t199 -36.5q111 0 200 36.5t151.5 105t96 167.5t33.5 224z" />
    <glyph glyph-name="Oslash" unicode="&#xd8;" horiz-adv-x="1609" 
d="M1524 720q0 -160 -52 -295t-146.5 -232.5t-227 -152.5t-294.5 -55q-104 0 -195.5 22.5t-169.5 65.5l-87 -119q-26 -35 -61 -49.5t-69 -14.5h-93l193 265q-113 99 -175.5 243.5t-62.5 321.5q0 160 52 295t147 233t227.5 153t293.5 55q113 0 211.5 -27t180.5 -78l70 96
q12 16 21.5 27t20 18t24 10.5t32.5 3.5h120l-176 -241q103 -100 159.5 -238.5t56.5 -306.5zM322 720q0 -125 33 -222.5t96 -166.5l621 851q-55 35 -122.5 53.5t-145.5 18.5q-110 0 -199 -37t-152 -106t-97 -168t-34 -223zM1285 720q0 114 -28 205t-80 160l-615 -842
q104 -56 242 -56q111 0 200 36.5t151.5 105t96 167.5t33.5 224z" />
    <glyph glyph-name="OE" unicode="&#x152;" horiz-adv-x="2171" 
d="M2088 1440v-189h-663v-434h530v-183h-530v-445h664l-1 -189h-870v209q-86 -106 -208 -165t-275 -59q-145 0 -264.5 55t-205 152.5t-132.5 232.5t-47 295t47 295t132.5 233t205 153t264.5 55q153 0 275 -60t208 -166v210h870zM1190 720q0 124 -30 224.5t-86 170.5
t-136 108t-179 38q-100 0 -180.5 -38t-136.5 -108t-86.5 -170.5t-30.5 -224.5q0 -125 30.5 -225t86.5 -169.5t136.5 -107t180.5 -37.5q99 0 179 37.5t136 107t86 169.5t30 225z" />
    <glyph glyph-name="P" unicode="P" horiz-adv-x="1221" 
d="M405 521v-521h-234v1440h448q141 0 244.5 -33t171 -92.5t100.5 -143t33 -184.5q0 -103 -35 -188.5t-104 -147t-171.5 -96t-238.5 -34.5h-214zM405 706h214q78 0 137.5 20t99 56.5t59.5 88.5t20 116q0 63 -19.5 113t-58.5 85t-98.5 53.5t-139.5 18.5h-214v-551z" />
    <glyph glyph-name="Q" unicode="Q" horiz-adv-x="1609" 
d="M1525 720q0 -99 -20 -188.5t-58 -167.5t-93 -142t-125 -112l367 -398h-192q-43 0 -76 11.5t-61 41.5l-231 253q-54 -16 -111.5 -24.5t-119.5 -8.5q-161 0 -293.5 55t-227.5 152.5t-147 232.5t-52 295t52 295t147 233t227.5 153t293.5 55q162 0 294.5 -55t227 -153
t146.5 -233t52 -295zM1286 720q0 124 -33.5 223t-96 168t-151.5 106t-200 37q-110 0 -199 -37t-152 -106t-97 -168t-34 -223q0 -125 34 -224t97 -167.5t152 -105t199 -36.5q111 0 200 36.5t151.5 105t96 167.5t33.5 224z" />
    <glyph glyph-name="R" unicode="R" horiz-adv-x="1270" 
d="M405 580v-580h-234v1440h424q142 0 244.5 -29t168.5 -82.5t97.5 -128.5t31.5 -167q0 -75 -22.5 -140t-65 -118t-105 -92t-141.5 -61q44 -26 75 -73l389 -549h-209q-62 0 -90 48l-336 485q-17 25 -37 36t-60 11h-130zM405 750h184q80 0 140 19.5t100 54.5t60 83.5
t20 107.5q0 118 -78 180t-236 62h-190v-507z" />
    <glyph glyph-name="S" unicode="S" horiz-adv-x="1091" 
d="M924 1194q-11 -18 -23 -26.5t-30 -8.5q-19 0 -42.5 16t-58 35.5t-81.5 36t-112 16.5q-60 0 -105.5 -15t-76.5 -42t-46.5 -63.5t-15.5 -79.5q0 -55 29 -91.5t76.5 -62.5t108.5 -45.5t124.5 -41.5t124.5 -50t108.5 -71t76.5 -105t29 -151q0 -96 -33 -180t-95.5 -146.5
t-154 -98.5t-208.5 -36q-69 0 -134.5 13.5t-125 38t-111.5 59.5t-93 78l68 112q9 14 23 22t31 8q23 0 51 -21.5t67.5 -47t95.5 -47t134 -21.5q127 0 196.5 62t69.5 171q0 61 -29 99.5t-76.5 64.5t-108.5 44t-124 38.5t-124 48t-108.5 72t-76.5 110t-29 163.5q0 78 30.5 151
t89 129.5t144.5 90.5t196 34q124 0 227.5 -39t178.5 -111z" />
    <glyph glyph-name="T" unicode="T" horiz-adv-x="1191" 
d="M1162 1440v-195h-449v-1245h-233v1245h-450v195h1132z" />
    <glyph glyph-name="U" unicode="U" horiz-adv-x="1479" 
d="M739 189q83 0 148.5 28t111 78t69.5 120.5t24 156.5v868h233v-868q0 -127 -40.5 -235t-116.5 -186.5t-184.5 -123t-244.5 -44.5t-244.5 44.5t-184.5 123t-116.5 186.5t-40.5 235v868h234v-867q0 -86 24 -156.5t69 -121t110.5 -78.5t148.5 -28z" />
    <glyph glyph-name="V" unicode="V" horiz-adv-x="1373" 
d="M-3 1440h187q31 0 50 -15.5t29 -38.5l371 -939q14 -39 28.5 -85t26.5 -97q11 51 23.5 97t27.5 85l370 939q8 20 28 37t50 17h188l-584 -1440h-211z" />
    <glyph glyph-name="W" unicode="W" horiz-adv-x="2087" 
d="M23 1440h196q30 0 50.5 -14.5t27.5 -39.5l270 -923q8 -30 14.5 -64.5t13.5 -72.5q8 38 16.5 73t18.5 64l309 923q7 20 28 37t50 17h68q31 0 50 -15.5t29 -38.5l308 -923q10 -29 18 -62.5t16 -71.5q7 37 13.5 71t14.5 63l269 923q6 22 27.5 38t50.5 16h183l-448 -1440
h-211l-338 1034q-6 17 -11.5 37t-10.5 43q-5 -23 -11 -43t-11 -37l-341 -1034h-211z" />
    <glyph glyph-name="X" unicode="X" horiz-adv-x="1320" 
d="M497 739l-466 701h232q25 0 36.5 -7.5t20.5 -22.5l350 -551q4 13 9.5 25t13.5 25l326 497q10 17 22 25.5t29 8.5h223l-470 -690l485 -750h-233q-24 0 -39 13t-24 29l-358 577q-4 -12 -8.5 -23t-10.5 -21l-346 -533q-11 -16 -24.5 -29t-35.5 -13h-218z" />
    <glyph glyph-name="Y" unicode="Y" horiz-adv-x="1273" 
d="M753 564v-564h-233v564l-526 876h205q31 0 49 -15t30 -38l295 -516q20 -39 36.5 -74t28.5 -69q12 35 28 69.5t36 73.5l293 516q10 20 29 36.5t49 16.5h206z" />
    <glyph glyph-name="Z" unicode="Z" horiz-adv-x="1208" 
d="M1149 1440v-87q0 -20 -6.5 -39t-17.5 -36l-773 -1089h782v-189h-1088v92q0 19 6 35.5t16 31.5l775 1092h-754v189h1060z" />
    <glyph glyph-name="a" unicode="a" horiz-adv-x="1005" 
d="M789 0q-31 0 -47 9.5t-27 38.5l-21 83q-39 -36 -77 -63t-78.5 -46t-87 -28.5t-102.5 -9.5q-62 0 -115.5 17t-92.5 51.5t-61.5 85.5t-22.5 120q0 59 31.5 115t104 100.5t191 73.5t292.5 33v68q0 110 -47 164t-138 54q-62 0 -104 -15.5t-73 -33.5t-55 -33.5t-51 -15.5
q-22 0 -37.5 11.5t-25.5 28.5l-39 70q173 161 412 161q88 0 156.5 -28.5t115 -80.5t71 -123.5t24.5 -158.5v-648h-96zM414 134q84 0 144.5 31.5t117.5 90.5v190q-115 -5 -194 -19t-128 -37t-70.5 -53.5t-21.5 -67.5q0 -36 11.5 -61.5t32 -42t48 -24t60.5 -7.5z" />
    <glyph glyph-name="ae" unicode="&#xe6;" horiz-adv-x="1615" 
d="M1143 1036q85 0 158 -33t127 -95t84.5 -150.5t30.5 -200.5q0 -50 -10 -67t-39 -17h-613q6 -81 27.5 -141t57.5 -99.5t85 -59t108 -19.5q69 0 113 13.5t73.5 30t48.5 30.5t37 14q32 0 44 -20l58 -74q-37 -45 -84 -76t-98.5 -50.5t-105.5 -28t-106 -8.5q-113 0 -207.5 52.5
t-153.5 161.5q-29 -57 -72.5 -98t-96.5 -67t-112.5 -38t-119.5 -12q-72 0 -130.5 18t-100.5 54t-64.5 90t-22.5 125q0 59 31.5 117t104 105t191 78t292.5 35v42q0 110 -47 167.5t-138 57.5q-62 0 -104 -16.5t-73 -36t-55 -36t-51 -16.5q-22 0 -37.5 11.5t-25.5 28.5l-39 70
q86 80 180 120.5t209 40.5q118 0 191.5 -47.5t109.5 -130.5q56 81 142 128t203 47zM678 473q-115 -5 -194 -21.5t-127.5 -42t-70 -58t-21.5 -69.5q0 -77 44 -112.5t118 -35.5q53 0 99 16.5t79.5 50.5t53 86t19.5 123v63zM1135 880q-113 0 -176 -72.5t-77 -202.5h470
q0 57 -14 107t-41.5 87.5t-68 59t-93.5 21.5z" />
    <glyph glyph-name="b" unicode="b" horiz-adv-x="1128" 
d="M131 0v1480h215v-595q63 69 141 110t178 41q89 0 160.5 -34.5t121.5 -99.5t77 -157.5t27 -208.5q0 -124 -30.5 -225.5t-87.5 -174t-138 -112t-181 -39.5q-49 0 -89 9.5t-74 27t-62.5 43t-54.5 57.5l-9 -79q-5 -23 -18 -33t-36 -10h-140zM593 866q-79 0 -137.5 -35.5
t-109.5 -101.5v-473q45 -58 98.5 -81.5t116.5 -23.5q127 0 198 92t71 285q0 176 -61.5 257t-175.5 81z" />
    <glyph glyph-name="c" unicode="c" horiz-adv-x="960" 
d="M852 820q-10 -13 -19 -20t-26 -7t-35.5 12t-44 26.5t-61.5 26.5t-90 12q-70 0 -122.5 -25t-88 -71.5t-53 -113t-17.5 -149.5q0 -86 19 -153t54.5 -113t86 -70t113.5 -24q62 0 101 15t65 33t44.5 33t39.5 15q26 0 40 -20l61 -79q-37 -45 -82 -76t-95 -50.5t-104 -28
t-109 -8.5q-95 0 -177.5 35.5t-144 103t-97 165t-35.5 222.5q0 113 32 209.5t93.5 166.5t152.5 109.5t210 39.5q111 0 195.5 -36t150.5 -102z" />
    <glyph glyph-name="ccedilla" unicode="&#xe7;" horiz-adv-x="961" 
d="M421 -242q6 0 13.5 -3t18 -6.5t24 -6.5t32.5 -3q37 0 55.5 14.5t18.5 35.5q0 34 -38.5 47.5t-114.5 24.5l42 127q-85 10 -157.5 49.5t-126 106t-83.5 159t-30 208.5q0 113 32 209.5t93.5 166.5t152.5 109.5t210 39.5q111 0 195.5 -36t150.5 -102l-57 -78q-10 -13 -19 -20
t-26 -7t-35.5 12t-44 26.5t-61.5 26.5t-90 12q-70 0 -122.5 -25t-88 -71.5t-53 -113t-17.5 -149.5q0 -86 19 -153t54.5 -113t86 -70t113.5 -24q62 0 101 15t65 33t44.5 33t39.5 15q26 0 40 -20l61 -79q-63 -76 -147 -113.5t-177 -46.5l-15 -55q93 -20 132.5 -57t39.5 -90
q0 -33 -17 -59.5t-47.5 -45t-73 -28.5t-93.5 -10q-41 0 -77.5 7t-68.5 20l20 67q6 21 26 21z" />
    <glyph glyph-name="d" unicode="d" horiz-adv-x="1128" 
d="M867 0q-43 0 -55 41l-19 110q-32 -37 -68 -67.5t-77.5 -52.5t-88.5 -34t-101 -12q-86 0 -156 34.5t-120 100.5t-77.5 163.5t-27.5 223.5q0 114 30.5 211t87.5 168.5t138.5 112t182.5 40.5q90 0 153 -28.5t113 -79.5v549h215v-1480h-130zM530 158q82 0 141 35t111 101v475
q-46 57 -99.5 80.5t-116.5 23.5q-126 0 -197 -92.5t-71 -273.5q0 -94 16 -160.5t46 -108.5t73 -61t97 -19z" />
    <glyph glyph-name="e" unicode="e" horiz-adv-x="1062" 
d="M558 1036q94 0 174 -30.5t138 -89.5t90.5 -144.5t32.5 -194.5q0 -50 -11 -67t-40 -17h-655q4 -87 27 -150.5t61.5 -105.5t92 -62.5t119.5 -20.5q63 0 109 14.5t80 32t58 32t44 14.5q26 0 40 -20l61 -79q-38 -45 -86 -76t-102 -50.5t-111 -28t-111 -8.5
q-106 0 -196.5 35.5t-157 104.5t-104 171t-37.5 235q0 106 33.5 198t96 160t152 107.5t202.5 39.5zM562 880q-117 0 -184 -67t-85 -188h507q0 54 -15.5 100.5t-45.5 81t-74.5 54t-102.5 19.5z" />
    <glyph glyph-name="f" unicode="f" horiz-adv-x="709" 
d="M200 0v849l-100 14q-25 5 -40.5 18t-15.5 37v88h156v86q0 87 25.5 156t73 117t115.5 73.5t153 25.5q35 0 66.5 -5t61.5 -15l-4 -108q-2 -27 -26.5 -32t-61.5 -5q-45 0 -81 -10.5t-61.5 -35.5t-39 -66t-13.5 -102v-79h279v-155h-272v-851h-215z" />
    <glyph glyph-name="g" unicode="g" horiz-adv-x="1049" 
d="M495 1038q66 0 123.5 -14.5t105.5 -40.5h286v-80q0 -40 -48 -49l-102 -17q26 -60 26 -129q0 -75 -29.5 -136t-81.5 -104t-124 -66t-156 -23q-32 0 -62.5 3.5t-59.5 9.5q-29 -17 -43 -36t-14 -39q0 -33 29 -49t76.5 -23t108.5 -9t124 -7t124 -16.5t108.5 -38t76.5 -71.5
t29 -117q0 -66 -33 -129t-95.5 -112t-152.5 -78.5t-205 -29.5q-114 0 -198.5 22t-141 59.5t-84 86.5t-27.5 102q0 72 45.5 123t123.5 80q-42 20 -67.5 55t-25.5 92q0 22 8 46t24.5 47.5t41 44.5t57.5 38q-76 42 -119.5 112t-43.5 163q0 76 29.5 137t82.5 104t125.5 66
t158.5 23zM794 -50q0 33 -19.5 53.5t-52.5 32.5t-77.5 17t-93.5 8t-101 5.5t-100 9.5q-48 -25 -78 -60t-30 -81q0 -30 15.5 -56t48 -45t83 -30t121.5 -11q142 0 213 44t71 113zM495 519q100 0 150 51t50 133q0 84 -50 133t-150 49q-99 0 -149.5 -49t-50.5 -133q0 -40 13 -74
t38 -58.5t62.5 -38t86.5 -13.5z" />
    <glyph glyph-name="h" unicode="h" horiz-adv-x="1122" 
d="M131 0v1480h215v-581q63 62 138 99.5t175 37.5q84 0 147.5 -28t107 -79t65.5 -122.5t22 -157.5v-649h-214v649q0 103 -47.5 160t-144.5 57q-72 0 -133.5 -33t-115.5 -90v-743h-215z" />
    <glyph glyph-name="i" unicode="i" horiz-adv-x="495" 
d="M355 1020v-1020h-215v1020h215zM391 1328q0 -29 -11.5 -55t-31.5 -45.5t-46.5 -31t-56.5 -11.5q-29 0 -54.5 11.5t-44.5 31t-30.5 45.5t-11.5 55q0 30 11.5 56t30.5 45.5t44.5 31t54.5 11.5q30 0 56.5 -11.5t46.5 -31t31.5 -45.5t11.5 -56z" />
    <glyph glyph-name="dotlessi" unicode="&#x131;" horiz-adv-x="496" 
d="M355 1020v-1020h-214v1020h214z" />
    <glyph glyph-name="j" unicode="j" horiz-adv-x="495" 
d="M355 1020v-1073q0 -64 -17 -120.5t-54 -98.5t-95.5 -66t-141.5 -24q-35 0 -63 5t-57 14l8 117q3 20 16.5 23t51.5 3q76 0 106.5 33.5t30.5 113.5v1073h215zM390 1328q0 -29 -11.5 -55t-31.5 -45.5t-46 -31t-56 -11.5q-29 0 -54.5 11.5t-45 31t-30.5 45.5t-11 55
q0 30 11 56t30.5 45.5t45 31t54.5 11.5q30 0 56 -11.5t46 -31t31.5 -45.5t11.5 -56z" />
    <glyph glyph-name="k" unicode="k" horiz-adv-x="1044" 
d="M346 1480v-858h46q22 0 36 6t29 25l286 327q15 20 33 30t46 10h195l-344 -388q-30 -39 -66 -62q20 -14 35 -31.5t29 -39.5l367 -499h-192q-26 0 -44.5 8.5t-32.5 31.5l-295 400q-15 23 -30 29.5t-45 6.5h-53v-476h-215v1480h215z" />
    <glyph glyph-name="m" unicode="m" horiz-adv-x="1661" 
d="M131 0v1020h130q44 0 56 -41l14 -89q28 32 58 58.5t64.5 46t74 30.5t85.5 11q49 0 90 -14t72.5 -40t54.5 -63t38 -83q23 53 58 91t78 62t91.5 35.5t98.5 11.5q82 0 146.5 -26t109 -75.5t67.5 -121.5t23 -164v-649h-215v649q0 108 -46.5 162.5t-137.5 54.5q-41 0 -77 -14
t-63 -41t-42.5 -67.5t-15.5 -94.5v-649h-215v649q0 112 -45 164.5t-132 52.5q-60 0 -111 -30.5t-94 -83.5v-752h-215z" />
    <glyph glyph-name="n" unicode="n" horiz-adv-x="1122" 
d="M131 0v1020h130q44 0 56 -41l15 -95q32 34 67.5 62t75.5 48t85.5 31t98.5 11q84 0 147.5 -28t107 -79t65.5 -122.5t22 -157.5v-649h-214v649q0 103 -47.5 160t-144.5 57q-72 0 -133.5 -33t-115.5 -90v-743h-215z" />
    <glyph glyph-name="o" unicode="o" horiz-adv-x="1142" 
d="M572 1036q113 0 204.5 -37t156 -105t99.5 -165t35 -218t-35 -218t-99.5 -165.5t-156 -105.5t-204.5 -37q-114 0 -205.5 37t-156.5 105.5t-100 165.5t-35 218t35 218t100 165t156.5 105t205.5 37zM572 153q138 0 205.5 92.5t67.5 264.5t-67.5 265.5t-205.5 93.5
q-140 0 -208 -93.5t-68 -265.5t68 -264.5t208 -92.5z" />
    <glyph glyph-name="oslash" unicode="&#xf8;" horiz-adv-x="1141" 
d="M937 889q63 -69 96.5 -164t33.5 -214q0 -121 -35 -218t-99.5 -165.5t-156 -105.5t-204.5 -37q-148 0 -258 61l-43 -58q-24 -37 -60 -51t-70 -14h-80l150 203q-66 69 -101 166t-35 219q0 121 35 218t100 165t156.5 105t205.5 37q75 0 141 -16.5t121 -48.5l61 82
q11 17 20.5 28.5t20.5 18t25 9.5t33 3h107zM283 510q0 -140 44 -226l405 548q-66 43 -160 43q-70 0 -124 -25t-90.5 -72t-55.5 -114.5t-19 -153.5zM572 146q69 0 122.5 24.5t90 71.5t55.5 114.5t19 153.5q0 132 -41 219l-402 -544q64 -39 156 -39z" />
    <glyph glyph-name="oe" unicode="&#x153;" horiz-adv-x="1749" 
d="M1279 1036q85 0 157.5 -33t125.5 -95t83.5 -150.5t30.5 -200.5q0 -50 -9.5 -67t-38.5 -17h-612q6 -81 28 -141t58 -99.5t85 -59t108 -19.5q58 0 100 14.5t73.5 32t54.5 32t44 14.5q25 0 39 -20l62 -79q-37 -45 -83.5 -76t-98 -50.5t-105.5 -28t-106 -8.5q-113 0 -208 53
t-154 164q-57 -104 -153.5 -160.5t-228.5 -56.5q-101 0 -185 37t-144 105.5t-93.5 165.5t-33.5 218t33.5 218t94.5 165t146.5 105t189.5 37q127 0 221.5 -55.5t150.5 -156.5q54 97 145.5 154.5t222.5 57.5zM551 153q129 0 191 92t62 265q0 172 -62.5 265.5t-190.5 93.5
q-130 0 -192.5 -93.5t-62.5 -265.5t62.5 -264.5t192.5 -92.5zM1270 880q-113 0 -176 -72.5t-77 -202.5h469q0 57 -14 107t-41 87.5t-67.5 59t-93.5 21.5z" />
    <glyph glyph-name="p" unicode="p" horiz-adv-x="1129" 
d="M131 -339v1359h130q44 0 56 -41l17 -107q32 37 68 68t77.5 53t89 34t101.5 12q86 0 156 -34.5t120 -100.5t77.5 -163.5t27.5 -223.5q0 -113 -30.5 -210.5t-87.5 -169t-138 -112t-183 -40.5q-90 0 -153 28.5t-113 79.5v-432h-215zM598 866q-83 0 -142 -35.5t-110 -101.5
v-473q45 -58 98.5 -81.5t118.5 -23.5q126 0 196.5 92t70.5 274q0 94 -16 160.5t-46 108.5t-73 61t-97 19z" />
    <glyph glyph-name="q" unicode="q" horiz-adv-x="1128" 
d="M997 1020v-1359h-215v478q-63 -70 -141.5 -112t-182.5 -42q-86 0 -156 34.5t-120 100.5t-77.5 163.5t-27.5 223.5q0 114 30.5 211t87.5 168.5t138.5 112t182.5 40.5q49 0 89.5 -8.5t74.5 -25t63.5 -40t55.5 -53.5l13 67q12 41 55 41h130zM530 158q82 0 141 35t111 101
v475q-45 57 -99 80.5t-117 23.5q-126 0 -197 -92.5t-71 -273.5q0 -94 16 -160.5t46 -108.5t73 -61t97 -19z" />
    <glyph glyph-name="r" unicode="r" horiz-adv-x="738" 
d="M131 0v1020h125q34 0 47 -12.5t18 -43.5l12 -133q49 97 117 152.5t163 55.5q33 0 62 -7.5t52 -22.5l-15 -162q-4 -17 -12.5 -23.5t-22.5 -6.5q-15 0 -43 5.5t-59 5.5q-45 0 -80 -13t-62 -38t-48 -61t-39 -82v-634h-215z" />
    <glyph glyph-name="s" unicode="s" horiz-adv-x="873" 
d="M740 835q-8 -14 -18 -20t-25 -6q-17 0 -37 10.5t-47 23.5t-63.5 23.5t-85.5 10.5q-40 0 -72.5 -9.5t-55 -27t-34.5 -41t-12 -50.5q0 -36 22 -60t58 -41.5t82 -31.5t94 -30t94 -37t82 -51.5t58 -74t22 -105.5q0 -72 -26 -133t-76 -106t-124.5 -70t-170.5 -25
q-53 0 -102.5 9.5t-94 26t-83 39.5t-68.5 50l50 82q9 15 22.5 23.5t33.5 8.5q21 0 41.5 -13.5t48 -29.5t66.5 -29.5t97 -13.5q48 0 83 11.5t58 31.5t34 45.5t11 54.5q0 39 -22 64t-58.5 43t-83 32t-94.5 30t-94.5 37t-83 53.5t-58.5 79t-22 113.5q0 61 24.5 116t72 97
t117 66.5t160.5 24.5q103 0 187 -33t141 -90z" />
    <glyph glyph-name="germandbls" unicode="&#xdf;" horiz-adv-x="1184" 
d="M637 1464q111 0 190 -32.5t129.5 -81t74.5 -106t24 -108.5q0 -59 -20.5 -101t-51 -73.5t-66.5 -56t-66.5 -46.5t-51 -46t-20.5 -54q0 -36 25.5 -61t64.5 -47.5t83.5 -47.5t83.5 -61.5t64.5 -88.5t25.5 -129q0 -82 -30 -145t-82 -106.5t-122 -66t-149 -22.5
q-94 0 -176.5 35.5t-142.5 89.5l50 82q9 15 22.5 23.5t33.5 8.5q21 0 41 -13.5t46.5 -29.5t61 -29.5t83.5 -13.5q37 0 67 11.5t51.5 32t33 48t11.5 60.5q0 51 -27.5 84t-68.5 58t-89 47.5t-89 53t-68.5 74t-27.5 110.5q0 55 21.5 95.5t54 72t70.5 58t70.5 54.5t54 61
t21.5 78q0 33 -12 63.5t-38.5 54.5t-68 38.5t-100.5 14.5q-133 0 -208 -82.5t-75 -242.5v-981h-214v987q0 105 35.5 192.5t101.5 151t159.5 98.5t209.5 35z" />
    <glyph glyph-name="t" unicode="t" horiz-adv-x="731" 
d="M458 -16q-127 0 -195.5 71.5t-68.5 201.5v594h-112q-18 0 -31 11.5t-13 34.5v87l165 24l47 295q5 17 17 27.5t32 10.5h110v-335h283v-155h-283v-579q0 -55 27 -84t72 -29q25 0 43 6.5t31 14t22.5 14t18.5 6.5q18 0 29 -20l64 -105q-50 -44 -118 -67.5t-140 -23.5z" />
    <glyph glyph-name="u" unicode="u" horiz-adv-x="1122" 
d="M336 1020v-649q0 -103 47.5 -160t144.5 -57q71 0 132.5 32.5t115.5 89.5v744h215v-1020h-130q-43 0 -55 41l-16 95q-65 -68 -143.5 -110t-182.5 -42q-84 0 -148 28t-107.5 79t-65.5 122.5t-22 157.5v649h215z" />
    <glyph glyph-name="v" unicode="v" horiz-adv-x="1045" 
d="M15 1020h177q25 0 41.5 -12.5t21.5 -29.5l226 -594q14 -43 25 -83.5t19 -82.5q8 41 19 82t26 84l230 594q6 18 22 30t39 12h168l-410 -1020h-194z" />
    <glyph glyph-name="w" unicode="w" horiz-adv-x="1589" 
d="M25 1020h170q25 0 41.5 -12.5t21.5 -29.5l170 -594q10 -41 17.5 -79.5t13.5 -76.5q10 38 20.5 76.5t23.5 79.5l191 597q5 18 20.5 29.5t37.5 11.5h94q23 0 39 -11.5t21 -29.5l186 -597q11 -41 22 -80t20 -77q12 76 34 157l173 594q6 18 22 30t39 12h162l-327 -1020h-171
q-30 0 -42 39l-203 635q-8 27 -14.5 53.5t-11.5 53.5q-11 -54 -27 -108l-206 -634q-11 -39 -47 -39h-163z" />
    <glyph glyph-name="x" unicode="x" horiz-adv-x="1021" 
d="M367 525l-339 495h206q25 0 36.5 -7.5t20.5 -22.5l230 -361q8 29 29 64l195 293q20 34 51 34h197l-339 -485l353 -535h-206q-25 0 -39.5 13t-23.5 29l-235 376q-9 -35 -24 -58l-213 -318q-11 -16 -24.5 -29t-35.5 -13h-192z" />
    <glyph glyph-name="y" unicode="y" horiz-adv-x="1044" 
d="M474 -290q-11 -23 -26.5 -36t-47.5 -13h-159l188 408l-416 951h187q27 0 41.5 -12.5t21.5 -29.5l243 -579q18 -50 30 -100q8 26 16.5 51t18.5 50l233 578q7 18 23.5 30t36.5 12h172z" />
    <glyph glyph-name="z" unicode="z" horiz-adv-x="912" 
d="M850 930q0 -23 -7.5 -45t-21.5 -37l-517 -681h529v-167h-778v90q0 15 7 36t21 40l520 687h-518v167h765v-90z" />
    <glyph glyph-name="ordfeminine" unicode="&#xaa;" horiz-adv-x="735" 
d="M542 841q-22 0 -32.5 6t-20.5 26l-13 42q-24 -21 -46 -36.5t-46 -26t-51.5 -15.5t-60.5 -5q-40 0 -73.5 10.5t-57.5 31.5t-37.5 52t-13.5 72q0 34 18 67.5t61 61.5t114.5 46t178.5 20v30q0 59 -25.5 84.5t-76.5 25.5q-36 0 -59.5 -8t-41.5 -17t-33 -17t-33 -8
q-16 0 -26.5 9t-18.5 20l-27 50q54 51 118 74t139 23q55 0 99 -17.5t74.5 -49t46.5 -75t16 -94.5v-382h-72zM320 940q45 0 77 16t65 47v93q-64 -2 -107 -9.5t-69 -19.5t-37 -28t-11 -34q0 -35 22.5 -50t59.5 -15z" />
    <glyph glyph-name="ordmasculine" unicode="&#xba;" horiz-adv-x="803" 
d="M403 1458q71 0 129.5 -22t100 -62.5t64.5 -98.5t23 -130q0 -74 -23 -132.5t-64.5 -99t-100 -62.5t-129.5 -22q-72 0 -131 22t-101 62.5t-65 99t-23 132.5q0 72 23 130t65 98.5t101 62.5t131 22zM403 956q149 0 149 187t-149 187q-78 0 -115 -46.5t-37 -140.5t37 -140.5
t115 -46.5z" />
    <glyph glyph-name="grave" unicode="`" 
d="M306 1456q37 0 55 -12t32 -37l146 -242h-122q-25 0 -40.5 7t-31.5 25l-241 259h202z" />
    <glyph glyph-name="acute" unicode="&#xb4;" 
d="M720 1456l-241 -259q-16 -18 -31.5 -25t-40.5 -7h-128l145 242q14 25 32.5 37t54.5 12h209z" />
    <glyph glyph-name="circumflex" unicode="&#x2c6;" 
d="M727 1169h-144q-13 0 -25.5 4t-25.5 18l-110 116q-5 5 -9.5 10t-9.5 11q-9 -12 -18 -21l-112 -116q-11 -11 -24 -16.5t-27 -5.5h-149l227 271h200z" />
    <glyph glyph-name="caron" unicode="&#x2c7;" 
d="M73 1440h149q14 0 26 -5t19 -11l116 -122q5 -5 10 -10.5t10 -12.5q8 12 19 23l116 122q8 5 20 10.5t25 5.5h144l-227 -271h-200z" />
    <glyph glyph-name="tilde" unicode="&#x2dc;" 
d="M509 1344q32 0 50 18.5t19 61.5h131q0 -52 -14 -94.5t-39.5 -73t-61 -47t-77.5 -16.5q-35 0 -66 13.5t-58 29.5t-51 29.5t-45 13.5q-32 0 -50 -19.5t-18 -62.5h-133q0 52 14.5 95t40 73.5t61 47.5t77.5 17q36 0 67 -13.5t58 -29.5t50.5 -29.5t44.5 -13.5z" />
    <glyph glyph-name="dieresis" unicode="&#xa8;" 
d="M329 1291q0 -26 -10 -48.5t-27.5 -39t-41 -26.5t-49.5 -10q-25 0 -47.5 10t-39.5 26.5t-27 39t-10 48.5t10 49.5t27 41t39.5 27.5t47.5 10q26 0 49.5 -10t41 -27.5t27.5 -41t10 -49.5zM723 1291q0 -26 -10 -48.5t-27.5 -39t-40.5 -26.5t-49 -10t-48.5 10t-39.5 26.5
t-27 39t-10 48.5t10 49.5t27 41t39.5 27.5t48.5 10t49 -10t40.5 -27.5t27.5 -41t10 -49.5z" />
    <glyph glyph-name="macron" unicode="&#xaf;" 
d="M107 1361h586v-139h-586v139z" />
    <glyph glyph-name="macron" unicode="&#x2c9;" 
d="M107 1361h586v-139h-586v139z" />
    <glyph glyph-name="breve" unicode="&#x2d8;" 
d="M400 1163q-81 0 -136.5 22t-89.5 60t-48.5 88t-14.5 107h151q0 -32 6.5 -57.5t22 -43.5t42 -28t67.5 -10q40 0 67 10t42.5 28t22 43.5t6.5 57.5h151q0 -57 -14.5 -107t-48.5 -88t-89.5 -60t-136.5 -22z" />
    <glyph glyph-name="ring" unicode="&#x2da;" 
d="M188 1321q0 44 17 80.5t46 62.5t67.5 40t80.5 14q43 0 82 -14t68 -40t46.5 -62.5t17.5 -80.5t-17.5 -79.5t-46.5 -61t-68 -39.5t-82 -14q-42 0 -80.5 14t-67.5 39.5t-46 61t-17 79.5zM306 1321q0 -42 25 -68t70 -26q42 0 68 26t26 68q0 43 -26 69t-68 26q-45 0 -70 -26
t-25 -69z" />
    <glyph glyph-name="hungarumlaut" unicode="&#x2dd;" 
d="M527 1456l-199 -259q-14 -19 -30.5 -25.5t-41.5 -6.5h-89l132 242q14 25 32.5 37t55.5 12h140zM859 1456l-247 -259q-16 -18 -31.5 -25t-40.5 -7h-102l179 242q8 12 16 21t17.5 15.5t22.5 9.5t31 3h155z" />
    <glyph glyph-name="dotaccent" unicode="&#x2d9;" 
d="M544 1333q0 -29 -11.5 -54.5t-31.5 -45t-46.5 -31t-55.5 -11.5t-54.5 11.5t-45 31t-31 45t-11.5 54.5q0 30 11.5 56.5t31 46t45 31t54.5 11.5t55.5 -11.5t46.5 -31t31.5 -46t11.5 -56.5z" />
    <glyph glyph-name="cedilla" unicode="&#xb8;" 
d="M281 -242q7 0 14.5 -3t18 -6.5t24 -6.5t31.5 -3q38 0 56.5 14.5t18.5 35.5q0 34 -39 47.5t-114 24.5l56 170h121l-28 -98q94 -20 133.5 -56.5t39.5 -90.5q0 -33 -17 -59.5t-47.5 -45t-73 -28.5t-93.5 -10q-41 0 -77.5 7t-69.5 20l20 67q6 21 26 21z" />
    <glyph glyph-name="ogonek" unicode="&#x2db;" 
d="M543 -198q16 0 21 -14l33 -80q-32 -23 -79.5 -37t-101.5 -14q-94 0 -145.5 40t-51.5 106q0 60 44 114.5t118 95.5l110 -13q-20 -11 -39.5 -26t-35.5 -33t-26 -39.5t-10 -45.5q0 -33 21.5 -52.5t59.5 -19.5q21 0 34 3t22 6t15 6t11 3z" />
    <glyph glyph-name="pi" unicode="&#x3c0;" horiz-adv-x="1248" 
d="M1188 1014v-102q0 -29 -17.5 -48.5t-50.5 -19.5h-137q0 -33 -0.5 -64t-0.5 -62q0 -128 3.5 -219.5t11 -154.5t19 -101t26.5 -58t34.5 -26.5t42.5 -6.5h42v-87q0 -35 -39.5 -53.5t-96.5 -18.5q-127 0 -187.5 85.5t-60.5 264.5q0 45 4 95.5t10 111t12 133t9 161.5h-342
q-4 -172 -15.5 -302.5t-30.5 -225t-44.5 -157t-57.5 -100t-70 -52.5t-81 -15q-14 0 -29.5 2.5t-28.5 7.5t-21.5 12.5t-8.5 18.5v146h20q31 0 61 35.5t54.5 114.5t41.5 206t23 309h-212v91q0 13 5.5 27t16 25.5t25.5 19t35 7.5h1035z" />
    <glyph glyph-name="exclam" unicode="!" horiz-adv-x="551" 
d="M378 1440v-572q0 -90 -8 -176.5t-21 -186.5h-145q-14 100 -21.5 186.5t-7.5 176.5v572h203zM134 124q0 29 10.5 54.5t29.5 44.5t44 30t55 11q29 0 54.5 -11t44 -30t29.5 -44.5t11 -54.5q0 -30 -11 -55t-29.5 -44t-44 -29.5t-54.5 -10.5q-30 0 -55 10.5t-44 29.5t-29.5 44
t-10.5 55z" />
    <glyph glyph-name="question" unicode="?" horiz-adv-x="908" 
d="M76 1311q33 30 72 56t84.5 46t99 31.5t115.5 11.5q83 0 152.5 -23.5t120 -67t78.5 -105t28 -137.5t-22 -131.5t-56 -96.5t-74 -71.5t-75.5 -57t-61 -53t-30.5 -58.5l-21 -150h-146l-15 165q-5 47 15 81t53.5 64t74 57.5t75.5 61.5t59 76t24 101q0 39 -15 70.5t-42 53.5
t-63 34t-78 12q-59 0 -100 -14t-70 -30.5t-48 -30t-32 -13.5q-31 0 -46 27zM268 124q0 29 10.5 54.5t29 44.5t44 30t54.5 11t54.5 -11t44.5 -30t30 -44.5t11 -54.5q0 -30 -11 -55t-30 -44t-44.5 -29.5t-54.5 -10.5t-54.5 10.5t-44 29.5t-29 44t-10.5 55z" />
    <glyph glyph-name="comma" unicode="," horiz-adv-x="461" 
d="M96 139q0 26 9.5 49t27 40t42 26.5t53.5 9.5q34 0 60 -12.5t43.5 -34t26 -50t8.5 -60.5q0 -46 -13.5 -97t-40 -101.5t-65 -98.5t-87.5 -88l-37 34q-8 8 -11.5 15t-3.5 18q0 17 17 32q10 12 25.5 29.5t31.5 41t30 51t20 58.5h-5q-29 0 -53 10.5t-41.5 29t-27 43.5t-9.5 55
z" />
    <glyph glyph-name="semicolon" unicode=";" horiz-adv-x="533" 
d="M126 0zM132 139q0 26 9.5 49t27 40t42 26.5t53.5 9.5q34 0 60 -12.5t43.5 -34t26 -50t8.5 -60.5q0 -46 -13.5 -97t-40 -101.5t-65 -98.5t-87.5 -88l-37 34q-8 8 -11.5 15t-3.5 18q0 17 17 32q10 12 25.5 29.5t31.5 41t30 51t20 58.5h-5q-29 0 -53 10.5t-41.5 29t-27 43.5
t-9.5 55zM126 853q0 29 10.5 54.5t29 44.5t44 30t54.5 11t54.5 -11t44.5 -30t30 -44.5t11 -54.5q0 -30 -11 -55t-30 -44t-44.5 -29.5t-54.5 -10.5t-54.5 10.5t-44 29.5t-29 44t-10.5 55z" />
    <glyph glyph-name="colon" unicode=":" horiz-adv-x="508" 
d="M115 0zM115 124q0 29 10.5 54.5t29 44.5t44 30t54.5 11t54.5 -11t44.5 -30t30 -44.5t11 -54.5q0 -30 -11 -55t-30 -44t-44.5 -29.5t-54.5 -10.5t-54.5 10.5t-44 29.5t-29 44t-10.5 55zM115 853q0 29 10.5 54.5t29 44.5t44 30t54.5 11t54.5 -11t44.5 -30t30 -44.5
t11 -54.5q0 -30 -11 -55t-30 -44t-44.5 -29.5t-54.5 -10.5t-54.5 10.5t-44 29.5t-29 44t-10.5 55z" />
    <glyph glyph-name="period" unicode="." horiz-adv-x="473" 
d="M98 124q0 29 10.5 54.5t29 44.5t44 30t54.5 11t54.5 -11t44.5 -30t30 -44.5t11 -54.5q0 -30 -11 -55t-30 -44t-44.5 -29.5t-54.5 -10.5t-54.5 10.5t-44 29.5t-29 44t-10.5 55z" />
    <glyph glyph-name="ellipsis" unicode="&#x2026;" horiz-adv-x="1523" 
d="M98 0zM98 124q0 29 10.5 54.5t29 44.5t44 30t54.5 11t54.5 -11t44.5 -30t30 -44.5t11 -54.5q0 -30 -11 -55t-30 -44t-44.5 -29.5t-54.5 -10.5t-54.5 10.5t-44 29.5t-29 44t-10.5 55zM1147 124q0 29 10.5 54.5t29 44.5t44 30t54.5 11t54.5 -11t44.5 -30t30 -44.5t11 -54.5
q0 -30 -11 -55t-30 -44t-44.5 -29.5t-54.5 -10.5t-54.5 10.5t-44 29.5t-29 44t-10.5 55zM623 124q0 29 10.5 54.5t29 44.5t44 30t54.5 11t54.5 -11t44.5 -30t30 -44.5t11 -54.5q0 -30 -11 -55t-30 -44t-44.5 -29.5t-54.5 -10.5t-54.5 10.5t-44 29.5t-29 44t-10.5 55z" />
    <glyph glyph-name="quoteleft" unicode="&#x2018;" horiz-adv-x="435" 
d="M164 938q-45 76 -61.5 158.5t-3.5 163t54.5 154t110.5 132.5l67 -41q18 -11 16 -28t-12 -28q-23 -28 -42 -71t-25.5 -95t3.5 -109t43 -112q16 -25 9.5 -44.5t-29.5 -27.5z" />
    <glyph glyph-name="quoteright" unicode="&#x2019;" horiz-adv-x="434" 
d="M278 1536q45 -76 61 -158.5t3 -163t-54.5 -154.5t-110.5 -132l-67 41q-17 11 -15.5 28.5t11.5 27.5q23 28 42 71t25.5 94.5t-3 108.5t-43.5 113q-16 26 -9 45t29 27z" />
    <glyph glyph-name="quotedblleft" unicode="&#x201c;" horiz-adv-x="754" 
d="M86 938zM164 938q-45 76 -61.5 158.5t-3.5 163t54.5 154t110.5 132.5l67 -41q18 -11 16 -28t-12 -28q-23 -28 -42 -71t-25.5 -95t3.5 -109t43 -112q16 -25 9.5 -44.5t-29.5 -27.5zM483 938q-45 76 -61.5 158.5t-3.5 163t54.5 154t110.5 132.5l67 -41q18 -11 16 -28
t-12 -28q-23 -28 -42 -71t-25.5 -95t3.5 -109t43 -112q16 -25 9.5 -44.5t-29.5 -27.5z" />
    <glyph glyph-name="quotedblright" unicode="&#x201d;" horiz-adv-x="753" 
d="M93 928zM278 1536q45 -76 61 -158.5t3 -163t-54.5 -154.5t-110.5 -132l-67 41q-17 11 -15.5 28.5t11.5 27.5q23 28 42 71t25.5 94.5t-3 108.5t-43.5 113q-16 26 -9 45t29 27zM597 1536q45 -76 61 -158.5t3 -163t-54.5 -154.5t-110.5 -132l-67 41q-17 11 -15.5 28.5
t11.5 27.5q23 28 42 71t25.5 94.5t-3 108.5t-43.5 113q-16 26 -9 45t29 27z" />
    <glyph glyph-name="quotesinglbase" unicode="&#x201a;" horiz-adv-x="433" 
d="M262 284q45 -76 61 -158.5t3 -163t-54.5 -154.5t-110.5 -132l-67 41q-17 11 -15.5 28.5t11.5 27.5q23 28 42 71t25.5 94.5t-3 108.5t-43.5 113q-16 26 -9 45t29 27z" />
    <glyph glyph-name="quotedblbase" unicode="&#x201e;" horiz-adv-x="752" 
d="M77 0zM262 284q45 -76 61 -158.5t3 -163t-54.5 -154.5t-110.5 -132l-67 41q-17 11 -15.5 28.5t11.5 27.5q23 28 42 71t25.5 94.5t-3 108.5t-43.5 113q-16 26 -9 45t29 27zM581 284q45 -76 61 -158.5t3 -163t-54.5 -154.5t-110.5 -132l-67 41q-17 11 -15.5 28.5t11.5 27.5
q23 28 42 71t25.5 94.5t-3 108.5t-43.5 113q-16 26 -9 45t29 27z" />
    <glyph glyph-name="guilsinglleft" unicode="&#x2039;" horiz-adv-x="572" 
d="M95 520v28l253 393l70 -34q27 -13 32 -36t-10 -51l-148 -246q-15 -27 -31 -40q8 -7 15.5 -17t15.5 -22l148 -247q15 -27 10 -50.5t-32 -36.5l-70 -34z" />
    <glyph glyph-name="guilsinglright" unicode="&#x203a;" horiz-adv-x="573" 
d="M478 548v-28l-253 -393l-70 34q-27 13 -32 36.5t10 50.5l148 247q8 12 15 22t15 17q-16 14 -30 40l-148 246q-15 28 -10 51t32 36l70 34z" />
    <glyph glyph-name="guillemotleft" unicode="&#xab;" horiz-adv-x="886" 
d="M95 127zM95 520v28l253 393l70 -34q27 -13 32 -36t-10 -51l-148 -246q-15 -27 -31 -40q8 -7 15.5 -17t15.5 -22l148 -247q15 -27 10 -50.5t-32 -36.5l-70 -34zM408 520v28l253 393l70 -34q27 -13 32 -36t-10 -51l-148 -246q-15 -27 -31 -40q8 -7 15.5 -17t15.5 -22
l148 -247q15 -27 10 -50.5t-32 -36.5l-70 -34z" />
    <glyph glyph-name="guillemotright" unicode="&#xbb;" horiz-adv-x="886" 
d="M118 127zM478 548v-28l-253 -393l-70 34q-27 13 -32 36.5t10 50.5l148 247q8 12 15 22t15 17q-16 14 -30 40l-148 246q-15 28 -10 51t32 36l70 34zM791 548v-28l-253 -393l-70 34q-27 13 -32 36.5t10 50.5l148 247q8 12 15 22t15 17q-16 14 -30 40l-148 246
q-15 28 -10 51t32 36l70 34z" />
    <glyph glyph-name="slash" unicode="/" horiz-adv-x="919" 
d="M268 -11q-15 -41 -48 -61.5t-67 -20.5h-91l592 1496q14 37 43.5 57t67.5 20h91z" />
    <glyph glyph-name="bar" unicode="|" horiz-adv-x="512" 
d="M173 1541h166v-1887h-166v1887z" />
    <glyph glyph-name="backslash" unicode="\" horiz-adv-x="919" 
d="M62 1480h92q38 0 67 -20t43 -57l592 -1496h-90q-35 0 -68 20.5t-48 61.5z" />
    <glyph glyph-name="hyphen" unicode="-" horiz-adv-x="745" 
d="M119 693h507v-182h-507v182z" />
    <glyph glyph-name="hyphen" unicode="&#x2010;" horiz-adv-x="745" 
d="M119 693h507v-182h-507v182z" />
    <glyph glyph-name="hyphen" unicode="&#xad;" horiz-adv-x="745" 
d="M119 693h507v-182h-507v182z" />
    <glyph glyph-name="endash" unicode="&#x2013;" horiz-adv-x="1160" 
d="M177 673h806v-155h-806v155z" />
    <glyph glyph-name="emdash" unicode="&#x2014;" horiz-adv-x="1591" 
d="M124 673h1344v-155h-1344v155z" />
    <glyph glyph-name="underscore" unicode="_" horiz-adv-x="926" 
d="M857 -148v-142h-788v142h788z" />
    <glyph glyph-name="bullet" unicode="&#x2022;" horiz-adv-x="1160" 
d="M175 594q0 84 32 158.5t87 130t128.5 87.5t156.5 32q84 0 158 -32t129 -87.5t87 -130t32 -158.5t-32 -157.5t-87 -128.5t-129 -87t-158 -32q-83 0 -156.5 32t-128.5 87t-87 128.5t-32 157.5z" />
    <glyph glyph-name="periodcentered" unicode="&#xb7;" horiz-adv-x="535" 
d="M98 594q0 36 13.5 67.5t36 54.5t53 36.5t65.5 13.5q36 0 67.5 -13.5t54.5 -36.5t36.5 -54.5t13.5 -67.5q0 -35 -13.5 -65.5t-36.5 -53.5t-54.5 -36.5t-67.5 -13.5q-35 0 -65.5 13.5t-53 36.5t-36 53.5t-13.5 65.5z" />
    <glyph glyph-name="periodcentered" unicode="&#x2219;" horiz-adv-x="535" 
d="M98 594q0 36 13.5 67.5t36 54.5t53 36.5t65.5 13.5q36 0 67.5 -13.5t54.5 -36.5t36.5 -54.5t13.5 -67.5q0 -35 -13.5 -65.5t-36.5 -53.5t-54.5 -36.5t-67.5 -13.5q-35 0 -65.5 13.5t-53 36.5t-36 53.5t-13.5 65.5z" />
    <glyph glyph-name="parenleft" unicode="(" horiz-adv-x="542" 
d="M267 628q0 -210 52 -410.5t151 -377.5q9 -18 11 -32t-2 -24.5t-11.5 -17.5t-16.5 -13l-95 -59q-75 115 -127 228.5t-85 229t-48 234t-15 242.5q0 123 15 241.5t48 234t85 229.5t127 229l95 -59q9 -6 16.5 -13t11.5 -17.5t2 -24.5t-11 -32q-99 -178 -151 -378t-52 -410z
" />
    <glyph glyph-name="parenright" unicode=")" horiz-adv-x="542" 
d="M274 628q0 210 -52 410t-150 378q-9 18 -11 32t1.5 24.5t11 17.5t16.5 13l96 59q74 -115 126 -229t85 -229.5t48 -234t15 -241.5q0 -124 -15 -242.5t-48 -234t-85 -229t-126 -228.5l-96 59q-9 6 -16.5 13t-11 17.5t-1.5 24.5t11 32q98 177 150 377.5t52 410.5z" />
    <glyph glyph-name="bracketleft" unicode="[" horiz-adv-x="620" 
d="M173 -300v1841h390v-85q0 -23 -16 -39.5t-42 -16.5h-152v-1558h152q26 0 42 -17t16 -40v-85h-390z" />
    <glyph glyph-name="bracketright" unicode="]" horiz-adv-x="620" 
d="M57 -215q0 23 16 40t42 17h152v1558h-152q-26 0 -42 16.5t-16 39.5v85h390v-1841h-390v85z" />
    <glyph glyph-name="braceleft" unicode="{" horiz-adv-x="607" 
d="M190 416q0 63 -31.5 102t-96.5 39v127q65 0 96.5 39t31.5 102q0 48 -7.5 96t-16 96t-16 96.5t-7.5 98.5q0 73 21.5 133.5t65 104t109 67.5t154.5 24h53v-97q0 -23 -16.5 -33.5t-30.5 -10.5h-14q-74 0 -114 -47t-40 -128q0 -56 6.5 -106.5t14 -99.5t14 -96.5t6.5 -95.5
q0 -75 -42 -131t-113 -76q71 -19 113 -75t42 -131q0 -48 -6.5 -95.5t-14 -96.5t-14 -100t-6.5 -106q0 -81 40 -127.5t114 -46.5h14q14 0 30.5 -11t16.5 -34v-97h-53q-89 0 -154.5 24t-109 67.5t-65 104t-21.5 133.5q0 50 7.5 98.5t16 96.5t16 96t7.5 96z" />
    <glyph glyph-name="braceright" unicode="}" horiz-adv-x="607" 
d="M417 416q0 -48 7.5 -96t16 -96t16 -96.5t7.5 -98.5q0 -73 -21.5 -133.5t-65 -104t-109 -67.5t-153.5 -24h-54v97q0 23 17 34t30 11h15q73 0 113.5 46.5t40.5 127.5q0 55 -6.5 106t-14.5 100t-14.5 96.5t-6.5 95.5q0 37 11 70.5t31 60.5t48.5 46.5t63.5 28.5
q-70 20 -112 76t-42 131q0 48 6.5 95.5t14.5 96.5t14.5 99.5t6.5 106.5q0 81 -40.5 128t-113.5 47h-15q-13 0 -30 10.5t-17 33.5v97h54q88 0 153.5 -24t109 -67.5t65 -104t21.5 -133.5q0 -50 -7.5 -98.5t-16 -96.5t-16 -96t-7.5 -96q0 -63 31.5 -102t96.5 -39v-127
q-65 0 -96.5 -39t-31.5 -102z" />
    <glyph glyph-name="asterisk" unicode="*" horiz-adv-x="850" 
d="M373 848v189q0 20 2.5 38t9.5 35q-21 -25 -56 -46l-165 -95l-51 89l164 95q36 22 70 26q-18 2 -35.5 9.5t-34.5 18.5l-165 96l51 89l166 -96q17 -11 31.5 -22.5t25.5 -25.5q-8 17 -10.5 35t-2.5 38v190h104v-189q0 -40 -12 -73q11 14 25 25t31 22l165 95l51 -89l-164 -95
q-17 -11 -34 -18t-34 -10q32 -4 68 -26l165 -96l-51 -89l-166 96q-17 10 -31.5 21.5t-25.5 25.5q13 -32 13 -72v-191h-104z" />
    <glyph glyph-name="dagger" unicode="&#x2020;" horiz-adv-x="1160" 
d="M99 915q0 18 6 35.5t18 30.5t31 21t45 8q33 0 69 -5t74 -11.5t77 -13t77 -10.5l-27 489q47 28 111 28t111 -28l-28 -489q38 4 77 10.5t77 13t74.5 11.5t69.5 5q26 0 45 -8t31 -21t18 -30.5t6 -35.5v-72h-398v-382l28 -790q-47 -28 -111 -28t-111 28l28 790v382h-398v72z
" />
    <glyph glyph-name="daggerdbl" unicode="&#x2021;" horiz-adv-x="1160" 
d="M99 915q0 18 6 35.5t18 30.5t31 21t45 8q33 0 69 -5t74 -11.5t77 -13t77 -10.5l-27 489q47 28 111 28t111 -28l-28 -489q38 4 77 10.5t77 13t74.5 11.5t69.5 5q26 0 45 -8t31 -21t18 -30.5t6 -35.5v-72h-398v-556h398v-72q0 -37 -24 -65.5t-76 -28.5q-33 0 -69.5 4.5
t-74.5 10.5t-77 12.5t-77 11.5l28 -489q-47 -28 -111 -28t-111 28l27 489q-38 -5 -77 -11.5t-77 -12.5t-74 -10.5t-69 -4.5q-52 0 -76 28.5t-24 65.5v72h398v556h-398v72z" />
    <glyph glyph-name="section" unicode="&#xa7;" horiz-adv-x="999" 
d="M813 1254q-8 -14 -18 -20t-25 -6q-17 0 -37 10.5t-47 23t-63.5 23t-85.5 10.5q-45 0 -80 -10.5t-59 -29t-36.5 -43t-12.5 -52.5q0 -34 24 -60.5t63 -49t89.5 -43t102.5 -43t102.5 -49.5t89.5 -62.5t63 -81.5t24 -107q0 -80 -38 -145t-121 -104q48 -37 77 -86t29 -117
q0 -72 -26 -133.5t-76.5 -106.5t-125 -70t-170.5 -25q-53 0 -102.5 9.5t-93.5 26t-82.5 39.5t-68.5 50l50 82q18 32 56 32q21 0 41 -13.5t48.5 -29.5t69 -29.5t101.5 -13.5q91 0 141 40t50 106q0 43 -24.5 73.5t-65 54t-91.5 43.5t-105 41.5t-105 47t-91.5 60.5t-65 82
t-24.5 112q0 79 42.5 142t130.5 99q-48 38 -78 91t-30 129q0 61 24.5 116t72 97t117 66.5t160.5 24.5q103 0 186.5 -33t141.5 -90zM284 725q0 -46 32 -78.5t82 -59t112 -50.5t122 -53q47 23 67.5 56.5t20.5 74.5q0 48 -30.5 82t-78.5 60.5t-107.5 50t-117.5 51.5
q-55 -27 -78.5 -59.5t-23.5 -74.5z" />
    <glyph glyph-name="paragraph" unicode="&#xb6;" horiz-adv-x="1439" 
d="M1368 1257h-217v-1462h-188v1462h-255v-1462h-187v849q-104 0 -188 31.5t-143 85.5t-91 126.5t-32 154.5q0 89 32 162t91 125.5t143 81.5t188 29h847v-183z" />
    <glyph glyph-name="asciicircum" unicode="^" horiz-adv-x="1160" 
d="M1045 688h-156q-20 0 -34 10.5t-22 27.5l-210 410q-14 29 -25 56.5t-19 53.5q-8 -26 -18 -53.5t-23 -56.5l-200 -410q-7 -17 -21.5 -27.5t-37.5 -10.5h-164l392 752h139z" />
    <glyph glyph-name="asciitilde" unicode="~" horiz-adv-x="1160" 
d="M755 633q60 0 93.5 38.5t34.5 106.5h173q0 -73 -19.5 -132.5t-56.5 -102t-90.5 -66t-121.5 -23.5q-53 0 -102.5 15t-94.5 33t-85.5 33t-74.5 15q-60 0 -93.5 -39t-34.5 -106h-173q0 73 19.5 132.5t56.5 102t90.5 65.5t121.5 23q52 0 102 -15t95 -32.5t85.5 -32.5
t74.5 -15z" />
    <glyph glyph-name="quotesingle" unicode="'" horiz-adv-x="416" 
d="M301 1440v-288l-19 -156q-6 -38 -22 -59.5t-53 -21.5q-32 0 -49 21.5t-24 59.5l-19 156v288h186z" />
    <glyph glyph-name="quotedbl" unicode="&#x22;" horiz-adv-x="767" 
d="M115 915zM301 1440v-288l-19 -156q-6 -38 -22 -59.5t-53 -21.5q-32 0 -49 21.5t-24 59.5l-19 156v288h186zM652 1440v-288l-19 -156q-6 -38 -22 -59.5t-53 -21.5q-32 0 -49 21.5t-24 59.5l-19 156v288h186z" />
    <glyph glyph-name="ampersand" unicode="&#x26;" horiz-adv-x="1436" 
d="M670 1456q84 0 151.5 -26t116 -70t76 -101t32.5 -118l-136 -28q-18 -4 -33.5 5t-23.5 30q-8 26 -23 51.5t-37 45.5t-52.5 32.5t-70.5 12.5q-46 0 -82.5 -15t-62 -41.5t-39 -61.5t-13.5 -75q0 -32 7 -62t23 -60t40.5 -61.5t59.5 -67.5l397 -409q35 65 56.5 137t28.5 145
q2 21 14 33.5t32 12.5h133q-1 -125 -37.5 -240.5t-103.5 -214.5l302 -310h-209q-17 0 -30.5 2t-25 6.5t-22 12.5t-22.5 21l-120 122q-95 -84 -215.5 -132t-261.5 -48q-82 0 -160.5 28t-140.5 80.5t-100 128t-38 170.5q0 68 22.5 129.5t63 114t95.5 94.5t121 72
q-57 75 -83 147.5t-26 146.5t27 140t78.5 115t125 77.5t166.5 28.5zM556 158q99 0 180 33.5t144 90.5l-401 408q-92 -54 -136 -126t-44 -156q0 -59 21.5 -105.5t57 -78.5t82 -49t96.5 -17z" />
    <glyph glyph-name="at" unicode="@" horiz-adv-x="1680" 
d="M1188 185q-73 0 -124.5 34t-68.5 109q-59 -75 -125.5 -108t-144.5 -33q-61 0 -106.5 21.5t-75.5 59t-45 89t-15 111.5q0 57 14.5 115t43 112t72 101.5t101 82.5t129.5 55.5t158 20.5q72 0 125 -11t101 -32l-94 -367q-18 -69 -18 -113t13.5 -68.5t37.5 -34t53 -9.5
q45 0 86 27t71.5 76t48.5 117.5t18 150.5q0 134 -42.5 235t-117.5 169t-178 102t-224 34q-132 0 -246.5 -50t-199 -138t-133 -208t-48.5 -259q0 -167 52 -293t142.5 -211t213.5 -128t264 -43q154 0 268 32t192 78q23 14 41 8.5t26 -26.5l30 -79q-106 -70 -243.5 -112
t-313.5 -42q-177 0 -329 56t-263 161t-174 256.5t-63 342.5q0 108 27.5 208.5t78 189t121.5 162t158 126t188 81.5t211 29q93 0 182.5 -20.5t169 -60.5t146.5 -99t115.5 -134.5t75.5 -167.5t27 -199t-31 -199.5t-86 -160.5t-130 -107t-162 -39zM768 327q28 0 57 9t55.5 31.5
t49 60.5t37.5 95l74 288q-34 7 -75 7q-68 0 -126 -29t-100.5 -77t-66.5 -110.5t-24 -128.5q0 -68 30.5 -107t88.5 -39z" />
    <glyph glyph-name="copyright" unicode="&#xa9;" horiz-adv-x="1655" 
d="M1068 495q9 1 17 -3.5t13 -10.5l72 -77q-56 -69 -140 -106t-200 -37q-99 0 -180 35t-138 96.5t-88.5 146.5t-31.5 184q0 101 35 186t96.5 146t145 95t181.5 34q110 0 187.5 -36t133.5 -93l-56 -79q-5 -7 -14.5 -14t-23.5 -7q-15 0 -30.5 10.5t-38.5 23.5t-58 23.5
t-90 10.5q-65 0 -116 -21t-87 -60t-55 -94.5t-19 -124.5q0 -72 19.5 -128t54 -94.5t81.5 -58t103 -19.5q51 0 84 8t57 19.5t43.5 23.5t42.5 21zM93 720q0 101 26 195t74 176t115 149t148.5 115t175.5 74.5t195 26.5t195 -26.5t176 -74.5t149 -115t115 -149t74 -176t26 -195
t-26.5 -195t-74 -175.5t-114.5 -148.5t-149 -115t-176 -74t-195 -26t-195 26t-175.5 74t-148.5 115t-115 148.5t-74 175.5t-26 195zM212 720q0 -132 47.5 -246.5t130.5 -199t195.5 -133.5t241.5 -49q86 0 166 22t148.5 62.5t125 97.5t96.5 127t62 150.5t22 168.5t-22 169.5
t-62 151.5t-96.5 127.5t-125 98.5t-148.5 63.5t-166 22.5q-129 0 -241.5 -49.5t-195.5 -135t-130.5 -201t-47.5 -247.5z" />
    <glyph glyph-name="registered" unicode="&#xae;" horiz-adv-x="1655" 
d="M93 720q0 101 26 195t74 176t115 149t148.5 115t175.5 74.5t195 26.5t195 -26.5t176 -74.5t149 -115t115 -149t74 -176t26 -195t-26.5 -195t-74 -175.5t-114.5 -148.5t-149 -115t-176 -74t-195 -26t-195 26t-175.5 74t-148.5 115t-115 148.5t-74 175.5t-26 195zM212 720
q0 -132 47.5 -246.5t130.5 -199t195.5 -133.5t241.5 -49q86 0 166 22t148.5 62.5t125 97.5t96.5 127t62 150.5t22 168.5t-22 169.5t-62 151.5t-96.5 127.5t-125 98.5t-148.5 63.5t-166 22.5q-129 0 -241.5 -49.5t-195.5 -135t-130.5 -201t-47.5 -247.5zM700 613v-338h-186
v894h305q180 0 265 -64t85 -189q0 -91 -49 -157.5t-150 -94.5q20 -12 33.5 -29.5t25.5 -40.5l204 -319h-179q-39 0 -56 29l-171 280q-10 14 -22 21.5t-38 7.5h-67zM700 748h102q53 0 88.5 9.5t56.5 27.5t29.5 45t8.5 62q0 34 -7.5 59t-26.5 41.5t-51 25t-81 8.5h-119v-278z
" />
    <glyph glyph-name="trademark" unicode="&#x2122;" horiz-adv-x="1507" 
d="M986 1140q7 -16 13 -31.5t11 -31.5q5 16 11 31.5t14 31.5l150 277q11 15 20.5 19t28.5 4h127v-598h-131v330l10 88l-167 -317q-16 -33 -51 -33h-22q-35 0 -51 33l-167 315l10 -86v-330h-131v598h127q20 0 29 -4t21 -19zM578 1440v-124h-172v-474h-150v474h-171v124h493z
" />
    <glyph glyph-name="degree" unicode="&#xb0;" horiz-adv-x="830" 
d="M78 1125q0 69 26 130t71 106t106.5 71t132.5 26t133 -26t107.5 -71t71.5 -106t26 -130q0 -68 -26 -128t-71.5 -105t-107.5 -71.5t-133 -26.5t-132.5 26.5t-106.5 71.5t-71 105t-26 128zM229 1124q0 -39 14 -73t38.5 -59t58.5 -39.5t74 -14.5t74 14.5t59 39.5t39 59t14 73
q0 40 -14 74.5t-39 60t-59 40t-74 14.5t-74 -14.5t-58.5 -40t-38.5 -60t-14 -74.5z" />
    <glyph glyph-name="Euro" unicode="&#x20ac;" horiz-adv-x="1160" 
d="M25 915h139q22 124 70.5 223.5t120 169.5t163 108t198.5 38q137 0 234 -51.5t165 -141.5l-74 -83q-9 -10 -19 -17.5t-27 -7.5q-12 0 -24 8.5t-26 21t-32.5 27.5t-44.5 27.5t-61 21t-82 8.5q-65 0 -120 -22.5t-98.5 -67t-74.5 -110.5t-47 -152h524v-67q0 -20 -16.5 -37.5
t-44.5 -17.5h-477q-2 -18 -2 -36v-37v-27t1 -26h445v-67q0 -20 -16.5 -37.5t-44.5 -17.5h-373q28 -187 115.5 -279.5t218.5 -92.5q51 0 88.5 10t65 24.5t47 32t35 32t27.5 24.5t26 10q10 0 17.5 -3t15.5 -12l92 -86q-71 -106 -177 -163t-249 -57q-117 0 -210 39.5
t-161.5 112.5t-112 176.5t-60.5 231.5h-134v122h124q-1 13 -1 26v27v37t2 36h-125v122z" />
    <glyph glyph-name="dollar" unicode="$" horiz-adv-x="1160" 
d="M475 -11q-118 14 -219.5 62.5t-173.5 121.5l65 99q9 13 23.5 21.5t31.5 8.5q20 0 44.5 -17t58 -39.5t78.5 -44t106 -31.5l37 485q-71 21 -139.5 47.5t-122.5 70.5t-87.5 110t-33.5 166q0 75 29.5 145.5t86 126.5t139 91.5t189.5 40.5l11 134q1 22 17 39t41 17h80
l-15 -196q105 -16 182 -58.5t134 -97.5l-52 -80q-22 -35 -54 -35q-15 0 -35.5 11t-48 25.5t-62.5 29.5t-78 23l-35 -445q72 -22 142.5 -48.5t126.5 -68t91 -103.5t35 -155q0 -91 -30.5 -171.5t-89.5 -142t-144.5 -100t-194.5 -45.5l-12 -160q-1 -21 -17 -38.5t-41 -17.5h-80
zM864 411q0 43 -16 75t-43.5 56t-65.5 41.5t-82 32.5l-35 -448q119 14 180.5 77.5t61.5 165.5zM345 1070q0 -42 15 -74t41.5 -57t62.5 -43.5t78 -33.5l31 407q-60 -6 -103 -24.5t-71 -45t-41 -59.5t-13 -70z" />
    <glyph glyph-name="cent" unicode="&#xa2;" horiz-adv-x="1160" 
d="M548 -10q-91 12 -168 52t-133 106.5t-87.5 157.5t-31.5 204q0 110 33 204t96.5 163.5t157 111t214.5 45.5l13 167q2 21 18 38.5t41 17.5h79l-18 -230q81 -14 145.5 -46.5t118.5 -82.5l-55 -76q-8 -12 -17.5 -18.5t-26.5 -6.5q-13 0 -28.5 7.5t-36.5 18t-48.5 22
t-64.5 18.5l-55 -713q58 5 96.5 20t65.5 31t46.5 28.5t37.5 12.5q27 0 40 -19l59 -76q-66 -78 -159 -115t-199 -45l-12 -159q-2 -21 -17.5 -38.5t-41.5 -17.5h-79zM340 510q0 -146 58 -235.5t163 -115.5l55 709q-139 -14 -207.5 -107t-68.5 -251z" />
    <glyph glyph-name="sterling" unicode="&#xa3;" horiz-adv-x="1160" 
d="M42 676q0 30 18.5 52t54.5 22h120v247q0 94 27.5 177.5t83.5 146t140 99t197 36.5q79 0 141 -20t110 -54.5t83.5 -81t61.5 -100.5l-86 -56q-30 -15 -57.5 -13t-50.5 29q-19 24 -38.5 44.5t-42.5 35.5t-52.5 23.5t-68.5 8.5q-114 0 -171 -73.5t-57 -200.5v-248h424v-87
q0 -21 -17.5 -39t-44.5 -18h-362v-216q0 -69 -26.5 -122t-72.5 -97q67 14 132 14h629v-91q0 -17 -6.5 -33.5t-19 -30t-29.5 -22t-38 -8.5h-961v137q34 9 65 25t55 39.5t38 56t14 75.5v273h-193v70z" />
    <glyph glyph-name="yen" unicode="&#xa5;" horiz-adv-x="1160" 
d="M143 629h291l-403 811h178q31 0 50 -14.5t30 -38.5l246 -523q16 -40 27.5 -74t19.5 -67q7 33 18 67.5t27 73.5l244 523q9 20 29 36.5t49 16.5h180l-403 -811h291v-121h-330v-100h330v-122h-330v-286h-214v286h-330v122h330v100h-330v121z" />
    <glyph glyph-name="numbersign" unicode="#" horiz-adv-x="1160" 
d="M811 414l-80 -414h-98q-15 0 -28.5 7t-22.5 19.5t-12.5 29t0.5 35.5l64 323h-225l-63 -334q-8 -43 -35.5 -61.5t-62.5 -18.5h-95l80 414h-129q-33 0 -48 20.5t-8 68.5l11 69h197l57 298h-222l16 90q6 35 27.5 51t67.5 16h133l67 338q7 35 32.5 55t60.5 20h97l-80 -413
h225l80 413h95q35 0 54.5 -22t13.5 -55l-67 -336h207l-16 -90q-6 -35 -27.5 -51t-67.5 -16h-118l-57 -298h159q33 0 48 -20t7 -69l-10 -69h-227zM432 572h225l58 298h-225z" />
    <glyph glyph-name="zero" unicode="0" horiz-adv-x="1160" 
d="M1105 720q0 -189 -40.5 -327t-111.5 -229t-167 -135t-207 -44t-207 44t-166.5 135t-110.5 229t-40 327t40 327.5t110.5 229t166.5 135t207 44.5t207 -44.5t167 -135t111.5 -229t40.5 -327.5zM883 720q0 160 -25.5 266.5t-67.5 170.5t-97 91t-114 27q-60 0 -114.5 -27
t-96.5 -91t-67 -170.5t-25 -266.5t25 -266.5t67 -170.5t96.5 -91t114.5 -27q59 0 114 27t97 91t67.5 170.5t25.5 266.5z" />
    <glyph glyph-name="one" unicode="1" horiz-adv-x="1160" 
d="M242 163h300v902q0 47 3 98l-231 -195q-15 -12 -30.5 -15.5t-29 -0.5t-24 9.5t-16.5 14.5l-67 94l434 373h175v-1280h271v-163h-785v163z" />
    <glyph glyph-name="two" unicode="2" horiz-adv-x="1160" 
d="M593 1456q96 0 176.5 -28.5t139 -81t91.5 -127.5t33 -169q0 -80 -23.5 -148t-63.5 -130t-93.5 -120.5t-112.5 -118.5l-348 -356q43 11 86.5 18.5t82.5 7.5h423q35 0 55 -20.5t20 -52.5v-130h-974v73q0 22 9 46t29 44l448 449q57 57 101.5 109t76 104t48 105.5t16.5 112.5
q0 57 -17.5 100.5t-48 72t-73 43t-93.5 14.5q-49 0 -90.5 -14t-74 -39t-54 -59.5t-31.5 -75.5q-15 -41 -38.5 -55t-68.5 -6l-113 20q15 102 56.5 179t104.5 128.5t144.5 78t176.5 26.5z" />
    <glyph glyph-name="three" unicode="3" horiz-adv-x="1160" 
d="M600 1456q96 0 174.5 -27.5t135 -76.5t87 -117t30.5 -149q0 -137 -63.5 -214.5t-174.5 -112.5q269 -79 269 -338q0 -104 -39 -185t-105.5 -137t-155 -85.5t-187.5 -29.5q-111 0 -192 26.5t-139.5 76t-97.5 119.5t-66 157l93 39q37 16 70.5 9t48.5 -37q16 -32 36 -68.5
t51.5 -67t78 -51t114.5 -20.5q69 0 120.5 22.5t86 58t51.5 79.5t17 87q0 54 -13 99.5t-50.5 77.5t-106 50.5t-179.5 18.5v155q91 1 153.5 18.5t100 48t54 73.5t16.5 94q0 55 -17 97t-47.5 70.5t-72.5 42.5t-93 14q-49 0 -90.5 -14t-74 -39t-54.5 -59.5t-32 -75.5
q-14 -41 -37.5 -55t-68.5 -6l-113 20q15 102 56.5 179t104.5 128.5t144.5 78t176.5 26.5z" />
    <glyph glyph-name="four" unicode="4" horiz-adv-x="1160" 
d="M908 532h199v-124q0 -18 -11.5 -31t-34.5 -13h-153v-364h-187v364h-623q-23 0 -39.5 13.5t-21.5 33.5l-22 110l691 920h202v-909zM721 1058q0 30 2 65t7 73l-484 -664h475v526z" />
    <glyph glyph-name="five" unicode="5" horiz-adv-x="1160" 
d="M991 1347q0 -46 -29 -75t-97 -29h-422l-58 -335q103 21 191 21q113 0 199.5 -33.5t145 -92.5t88 -138.5t29.5 -172.5q0 -115 -40 -209t-111 -160.5t-167.5 -102.5t-208.5 -36q-66 0 -125.5 13t-111.5 35.5t-96 52t-79 61.5l66 92q21 30 56 30q22 0 48 -16t60.5 -34.5
t81.5 -34.5t112 -16q71 0 127 23t94.5 64.5t58.5 99.5t20 127q0 63 -18.5 113t-55 85t-91.5 53.5t-127 18.5q-53 0 -108.5 -9t-112.5 -28l-134 38l118 688h697v-93z" />
    <glyph glyph-name="seven" unicode="7" horiz-adv-x="1160" 
d="M1087 1440v-95q0 -42 -9 -68t-18 -44l-569 -1158q-15 -32 -42.5 -53.5t-72.5 -21.5h-155l580 1139q16 31 32 56t36 48h-719q-20 0 -35 15.5t-15 35.5v146h987z" />
    <glyph glyph-name="nine" unicode="9" horiz-adv-x="1160" 
d="M677 565q20 25 37 47.5t33 45.5q-53 -38 -117 -57t-136 -19q-78 0 -150 26.5t-128 79t-89.5 130t-33.5 178.5q0 95 35.5 179t99.5 146.5t153 98.5t197 36q107 0 194 -34.5t148 -97t94 -149t33 -190.5q0 -65 -11.5 -123t-33 -112.5t-52 -107t-68.5 -106.5l-339 -486
q-15 -22 -44.5 -36t-66.5 -14h-197zM841 1009q0 63 -19.5 112.5t-55 84.5t-84.5 53.5t-107 18.5q-61 0 -110 -20t-84 -55.5t-54 -84t-19 -106.5q0 -128 68.5 -196.5t191.5 -68.5q66 0 116.5 21t85.5 56.5t53 83t18 101.5z" />
    <glyph glyph-name="fraction" unicode="&#x2044;" horiz-adv-x="280" 
d="M-176 63q-23 -37 -48.5 -50t-60.5 -13h-91l827 1368q21 34 48 53t65 19h92z" />
    <glyph glyph-name="plus" unicode="+" horiz-adv-x="1160" 
d="M667 1170v-418h397v-162h-397v-419h-175v419h-395v162h395v418h175z" />
    <glyph glyph-name="divide" unicode="&#xf7;" horiz-adv-x="1160" 
d="M96 752h967v-162h-967v162zM440 1027q0 29 10.5 54.5t29.5 44t44 29.5t55 11q29 0 54.5 -11t44 -29.5t29.5 -44t11 -54.5q0 -30 -11 -55t-29.5 -44t-44 -29.5t-54.5 -10.5q-30 0 -55 10.5t-44 29.5t-29.5 44t-10.5 55zM440 315q0 29 10.5 54.5t29.5 44t44 29.5t55 11
q29 0 54.5 -11t44 -29.5t29.5 -44t11 -54.5q0 -30 -11 -55t-29.5 -44t-44 -29.5t-54.5 -10.5q-30 0 -55 10.5t-44 29.5t-29.5 44t-10.5 55z" />
    <glyph glyph-name="equal" unicode="=" horiz-adv-x="1160" 
d="M143 582h874v-163h-874v163zM143 926h874v-162h-874v162z" />
    <glyph glyph-name="notequal" unicode="&#x2260;" horiz-adv-x="1160" 
d="M144 926h496l112 230h154l-112 -230h224v-162h-303l-88 -182h391v-163h-471l-117 -242h-154l117 242h-249v163h329l88 182h-417v162z" />
    <glyph glyph-name="approxequal" unicode="&#x2248;" horiz-adv-x="1160" 
d="M788 879q30 0 58.5 7t52.5 17.5t41.5 22.5t25.5 21l27 -137q-37 -50 -96 -73t-122 -23q-53 0 -105 16t-102 35.5t-98 35.5t-92 16q-32 0 -61 -7t-53 -18t-41 -23.5t-25 -22.5l-33 132q37 54 97 79t129 25q53 0 105.5 -16t102.5 -35.5t97.5 -35.5t91.5 -16zM788 531
q30 0 58.5 7t52.5 17.5t41.5 22.5t25.5 21l27 -137q-37 -50 -96 -73t-122 -23q-53 0 -105 16t-102 35.5t-98 35.5t-92 16q-32 0 -61 -7t-53 -18t-41 -23.5t-25 -22.5l-33 132q37 54 97 79t129 25q53 0 105.5 -16t102.5 -35.5t97.5 -35.5t91.5 -16z" />
    <glyph glyph-name="less" unicode="&#x3c;" horiz-adv-x="1160" 
d="M156 718l784 408v-155q0 -18 -9 -33t-31 -26l-404 -205q-22 -11 -46 -19t-50 -15q26 -6 50 -14.5t46 -19.5l404 -204q22 -11 31 -26t9 -34v-154l-784 408v89z" />
    <glyph glyph-name="greater" unicode="&#x3e;" horiz-adv-x="1160" 
d="M1004 629l-784 -408v154q0 19 9 34t31 26l404 204q21 11 45 19.5t51 14.5q-27 7 -51 15t-45 19l-404 205q-22 11 -31 26t-9 33v155l784 -408v-89z" />
    <glyph glyph-name="plusminus" unicode="&#xb1;" horiz-adv-x="1160" 
d="M666 1224v-364h398v-162h-398v-353h-174v353h-396v162h396v364h174zM96 242h968v-162h-968v162z" />
    <glyph glyph-name="lessequal" unicode="&#x2264;" horiz-adv-x="1160" 
d="M179 818l783 378v-148q0 -18 -9.5 -34.5t-39.5 -28.5l-394 -179q-25 -10 -51 -17.5t-55 -14.5q29 -6 55.5 -14t50.5 -18l394 -182q29 -13 39 -29t10 -34v-148l-783 381v88zM179 242h783v-162h-783v162z" />
    <glyph glyph-name="greaterequal" unicode="&#x2265;" horiz-adv-x="1160" 
d="M981 818v-88l-783 -381v148q0 18 10 34t39 29l394 182q24 10 50.5 18t55.5 14q-29 7 -55.5 14.5t-50.5 17.5l-394 179q-30 12 -39.5 28.5t-9.5 34.5v148zM981 80h-783v162h783v-162z" />
    <glyph glyph-name="logicalnot" unicode="&#xac;" horiz-adv-x="1160" 
d="M140 752h874v-447h-182v285h-692v162z" />
    <glyph glyph-name="infinity" unicode="&#x221e;" horiz-adv-x="1469" 
d="M1049 242q-55 0 -100.5 16t-84 43t-70.5 63t-60 76q-28 -40 -59.5 -76t-70 -63t-84 -43t-100.5 -16q-65 0 -123 25.5t-101.5 71.5t-69.5 110t-26 142t26 142.5t69.5 110.5t101.5 71.5t123 25.5q55 0 100.5 -16t84 -43t70 -63t59.5 -76q28 40 60 76t70.5 63t84 43
t100.5 16q64 0 122 -25.5t102 -71.5t70 -110.5t26 -142.5t-26 -142t-70 -110t-102 -71.5t-122 -25.5zM429 417q33 0 61 13.5t53.5 37.5t48.5 55.5t46 67.5q-23 36 -46 68t-48.5 55.5t-53.5 37.5t-61 14q-32 0 -61 -10.5t-51 -32t-35 -54.5t-13 -78t13 -77.5t35 -54t51 -32
t61 -10.5zM1041 417q32 0 60.5 10.5t50.5 32t34.5 54t12.5 77.5t-12.5 78t-34.5 54.5t-50.5 32t-60.5 10.5q-33 0 -61.5 -14t-54 -37.5t-48.5 -55.5t-46 -68q23 -36 46 -67.5t48.5 -55.5t54 -37.5t61.5 -13.5z" />
    <glyph glyph-name="partialdiff" unicode="&#x2202;" horiz-adv-x="1161" 
d="M323 1336q40 29 78.5 51t80 37t87.5 23t101 8q92 0 168 -37.5t130.5 -108.5t84.5 -173t30 -231q0 -205 -37 -374.5t-112 -290.5t-187.5 -187.5t-263.5 -66.5q-89 0 -163.5 29.5t-128.5 84t-84.5 132t-30.5 174.5q0 116 39 216.5t108 174.5t164 116.5t206 42.5
q101 0 174 -39t121 -114q2 28 2 54v48q0 187 -67 282.5t-182 95.5q-40 0 -74.5 -10t-63 -22.5t-50 -22.5t-35.5 -10q-12 0 -24 7t-24 29zM508 155q60 0 114 24.5t99 76t79 131.5t53 192q-10 41 -28 78.5t-46.5 66.5t-68.5 46t-94 17q-79 0 -138.5 -28.5t-99.5 -79
t-60 -119.5t-20 -151q0 -121 56.5 -187.5t153.5 -66.5z" />
    <glyph glyph-name="integral" unicode="&#x222b;" horiz-adv-x="1006" 
d="M466 1239q13 103 46.5 177t84 122t116.5 71t144 23q36 0 75.5 -7t72.5 -24l-12 -91q-2 -12 -6.5 -20.5t-14 -13t-25 -6.5t-40.5 -2q-58 0 -99.5 -12.5t-69.5 -39t-44 -68.5t-23 -102l-130 -1198q-13 -102 -46.5 -176.5t-84 -122.5t-116.5 -71t-144 -23q-35 0 -74.5 7
t-72.5 24l12 91q2 13 6.5 21t13.5 12.5t25 6.5t41 2q58 0 99.5 12.5t69.5 39t44 69t23 102.5z" />
    <glyph glyph-name="radical" unicode="&#x221a;" horiz-adv-x="1246" 
d="M264 651h-144q-33 0 -57.5 20t-24.5 68v69h344q25 0 41.5 -12t22.5 -30l124 -355q12 -38 19.5 -76.5t12.5 -77.5q5 31 12 62.5t16 64.5l408 1282q6 19 22.5 31t38.5 12h140l-551 -1709h-181z" />
    <glyph glyph-name="product" unicode="&#x220f;" horiz-adv-x="1397" 
d="M1327 1440v-183h-176v-1596h-222v1596h-461v-1596h-221v1596h-177v183h1257z" />
    <glyph glyph-name="summation" unicode="&#x2211;" horiz-adv-x="1366" 
d="M72 1440h1204v-183h-871l541 -675v-63l-542 -675h872v-183h-1204v77q0 16 5.5 34t17.5 32l612 750l-612 744q-12 14 -17.5 31.5t-5.5 34.5v76z" />
    <glyph glyph-name="lozenge" unicode="&#x25ca;" horiz-adv-x="1160" 
d="M93 712l412 815h150l412 -815l-412 -816h-150zM303 712l227 -471q17 -38 29.5 -76t20.5 -76q8 38 20.5 75.5t30.5 75.5l230 472l-234 480q-17 34 -28 68.5t-19 69.5q-15 -70 -45 -136z" />
    <glyph glyph-name="florin" unicode="&#x192;" horiz-adv-x="689" 
d="M181 849l-100 14q-25 5 -40.5 18t-15.5 37v88h156v86q0 87 25.5 156t73 117t115.5 73.5t152 25.5q67 0 129 -20l-5 -108q-2 -27 -26 -32t-62 -5q-45 0 -80.5 -10.5t-61 -35.5t-39 -66t-13.5 -102v-79h278v-155h-271v-864q0 -84 -21 -154.5t-64.5 -121t-110.5 -78.5
t-159 -28q-51 0 -91.5 9t-87.5 29l23 94q8 26 20.5 34t27.5 8q14 0 33.5 -6.5t54.5 -6.5q160 0 160 196v887z" />
    <glyph glyph-name="l" unicode="l" horiz-adv-x="485" 
d="M350 1480v-1480h-215v1480h215z" />
    <glyph glyph-name="six" unicode="6" horiz-adv-x="1160" 
d="M499 910q-16 -20 -30.5 -38.5t-28.5 -36.5q46 27 100.5 42t118.5 15q84 0 161 -27.5t135.5 -82t93.5 -135t35 -185.5q0 -100 -36.5 -187t-102.5 -151.5t-158.5 -102t-204.5 -37.5t-202 36t-153.5 101.5t-97.5 157.5t-34 205q0 98 42 205t130 225l354 475q16 21 46.5 36
t68.5 15h190zM302 449q0 -64 18 -117t53 -90.5t86.5 -58.5t118.5 -21q65 0 119 21.5t92.5 59.5t59.5 90t21 113q0 66 -20.5 118.5t-58 88.5t-90 55.5t-115.5 19.5q-65 0 -117.5 -22t-89.5 -60t-57 -89t-20 -108z" />
    <glyph glyph-name="eight" unicode="8" horiz-adv-x="1160" 
d="M580 -16q-110 0 -200.5 29.5t-155.5 83.5t-101 131t-36 172q0 132 66.5 221t199.5 130q-108 43 -162.5 125t-54.5 197q0 81 32 151t90.5 121.5t140.5 81t181 29.5t180.5 -29.5t140 -81t91 -121.5t32.5 -151q0 -115 -54.5 -197t-162.5 -125q132 -41 199 -130t67 -221
q0 -95 -36 -172t-101 -131t-155.5 -83.5t-200.5 -29.5zM580 154q65 0 116 18.5t85.5 52t52.5 79.5t18 100q0 66 -20.5 114t-57 79.5t-86.5 47t-108 15.5t-108 -15.5t-86.5 -47t-57 -79.5t-20.5 -114q0 -54 18 -100t52.5 -79.5t85.5 -52t116 -18.5zM580 831q65 0 110 20
t72.5 53.5t40 76.5t12.5 88t-14.5 85.5t-44 70.5t-73.5 48t-103 18t-103.5 -18t-73.5 -48t-43.5 -70.5t-14.5 -85.5t12.5 -88t40 -76.5t72.5 -53.5t110 -20z" />
    <glyph glyph-name="percent" unicode="%" horiz-adv-x="1622" 
d="M734 1092q0 -83 -26.5 -149t-71.5 -112.5t-104 -71t-124 -24.5q-70 0 -129.5 24.5t-103 71t-68.5 112.5t-25 149q0 85 25 152.5t68.5 114t103 71.5t129.5 25t129.5 -25t103 -71.5t68.5 -114t25 -152.5zM568 1092q0 61 -12.5 103.5t-34 69t-51 38t-62.5 11.5
q-34 0 -63 -11.5t-50 -38t-33 -69t-12 -103.5q0 -60 12 -101t33 -66.5t50 -36.5t63 -11q33 0 62.5 11t51 36.5t34 66.5t12.5 101zM1228 1405q11 14 26.5 24.5t43.5 10.5h155l-1061 -1407q-11 -14 -27 -23.5t-39 -9.5h-160zM1540 339q0 -83 -27 -149t-72 -112t-104 -70.5
t-124 -24.5q-70 0 -129.5 24.5t-103 70.5t-68 112t-24.5 149q0 85 24.5 152.5t68 114.5t103 71.5t129.5 24.5t130 -24.5t103.5 -71.5t68.5 -114.5t25 -152.5zM1374 339q0 61 -12.5 103.5t-34.5 69t-51.5 38t-62.5 11.5t-62 -11.5t-50.5 -38t-33.5 -69t-12 -103.5
q0 -60 12 -101t33.5 -66.5t50.5 -36.5t62 -11t62.5 11t51.5 36.5t34.5 66.5t12.5 101z" />
    <glyph glyph-name="exclamdown" unicode="&#xa1;" horiz-adv-x="523" 
d="M161 -339v537q0 45 2 88.5t6 88t9.5 90.5t11.5 96h145q7 -50 12 -96t9 -90.5t6 -88t2 -88.5v-537h-203zM121 897q0 30 10.5 55t29 44t44 29.5t54.5 10.5t54.5 -10.5t44.5 -29.5t30 -44t11 -55q0 -29 -11 -54.5t-30 -44.5t-44.5 -30t-54.5 -11t-54.5 11t-44 30t-29 44.5
t-10.5 54.5z" />
    <glyph glyph-name="questiondown" unicode="&#xbf;" horiz-adv-x="896" 
d="M829 -207q-33 -30 -72 -56.5t-84.5 -46.5t-99 -31.5t-115.5 -11.5q-83 0 -153 22.5t-120 65t-78 103t-28 136.5t22 129t56 91t74 64.5t75.5 49.5t61 46.5t30.5 56.5l20 150h147l15 -165q5 -49 -15.5 -82.5t-54 -59t-73.5 -48.5t-75.5 -51.5t-59 -66.5t-23.5 -95
q0 -39 15 -70.5t41.5 -53.5t62.5 -34t78 -12q58 0 99.5 13.5t70.5 30t48 30.5t33 14q30 0 45 -27zM357 896q0 29 10.5 54.5t29 44.5t44 30t54.5 11t54.5 -11t44.5 -30t30 -44.5t11 -54.5q0 -30 -11 -55t-30 -44t-44.5 -29.5t-54.5 -10.5t-54.5 10.5t-44 29.5t-29 44
t-10.5 55z" />
    <glyph glyph-name="perthousand" unicode="&#x2030;" horiz-adv-x="2351" 
d="M734 1092q0 -83 -26.5 -149t-71.5 -112.5t-104 -71t-124 -24.5q-70 0 -129.5 24.5t-103 71t-68.5 112.5t-25 149q0 85 25 152.5t68.5 114t103 71.5t129.5 25t129.5 -25t103 -71.5t68.5 -114t25 -152.5zM568 1092q0 61 -12.5 103.5t-34 69t-51 38t-62.5 11.5
q-34 0 -63 -11.5t-50 -38t-33 -69t-12 -103.5q0 -60 12 -101t33 -66.5t50 -36.5t63 -11q33 0 62.5 11t51 36.5t34 66.5t12.5 101zM1228 1405q11 14 26.5 24.5t43.5 10.5h155l-1061 -1407q-11 -14 -27 -23.5t-39 -9.5h-160zM1540 339q0 -83 -27 -149t-72 -112t-104 -70.5
t-124 -24.5q-70 0 -129.5 24.5t-103 70.5t-68 112t-24.5 149q0 85 24.5 152.5t68 114.5t103 71.5t129.5 24.5t130 -24.5t103.5 -71.5t68.5 -114.5t25 -152.5zM1374 339q0 61 -12.5 103.5t-34.5 69t-51.5 38t-62.5 11.5t-62 -11.5t-50.5 -38t-33.5 -69t-12 -103.5
q0 -60 12 -101t33.5 -66.5t50.5 -36.5t62 -11t62.5 11t51.5 36.5t34.5 66.5t12.5 101zM2277 339q0 -83 -26.5 -149t-71.5 -112t-104.5 -70.5t-124.5 -24.5q-70 0 -129.5 24.5t-103 70.5t-68 112t-24.5 149q0 85 24.5 152.5t68 114.5t103 71.5t129.5 24.5t130 -24.5
t103.5 -71.5t68.5 -114.5t25 -152.5zM2111 339q0 61 -12.5 103.5t-34.5 69t-51 38t-63 11.5q-33 0 -62 -11.5t-50.5 -38t-33.5 -69t-12 -103.5q0 -60 12 -101t33.5 -66.5t50.5 -36.5t62 -11q34 0 63 11t51 36.5t34.5 66.5t12.5 101z" />
    <glyph glyph-name="uniF8FF" unicode="&#xf8ff;" horiz-adv-x="1578" 
d="M636 1478q-85 -58 -150.5 -149t-113.5 -201t-80.5 -232t-51.5 -241.5t-27.5 -229.5t-8.5 -195t11 -144.5t30.5 -104.5t45.5 -79t57 -68l-12 -12q-59 55 -106 113t-80.5 127.5t-51.5 155.5t-18 198q0 154 35 308.5t104 296t172.5 262.5t240.5 207zM1080 774h-174v-342
q0 -38 25.5 -60t78.5 -22q9 0 25 0.5t33 3.5l20 -214q-50 -20 -107 -31t-119 -11q-96 0 -160 23t-103 68t-55 111t-16 152v300l-100 46v218l120 12l100 244h258v-252h174v-246zM942 -166q85 57 150.5 148t113.5 200.5t80 231.5t52 241t28 228t8 195t-11 146.5t-30.5 105.5
t-45.5 79.5t-57 68.5l12 12q59 -56 106.5 -114t80.5 -128t51 -156t18 -196q0 -154 -35 -308.5t-104 -296t-172.5 -262.5t-240.5 -207z" />
    <glyph glyph-name="uni000D" unicode="&#xd;" horiz-adv-x="0" 
 />
    <glyph glyph-name="Agrave" unicode="&#xc0;" horiz-adv-x="1373" 
d="M0 0zM1376 0h-181q-31 0 -50 15.5t-29 38.5l-120 318h-620l-120 -318q-8 -20 -28 -37t-50 -17h-181l571 1440h237zM439 540h494l-198 526q-12 29 -24.5 69t-24.5 86q-12 -47 -24.5 -86.5t-23.5 -69.5zM516 1857q18 0 31.5 -1t24 -5t19.5 -11.5t19 -19.5l222 -273h-155
q-26 0 -40.5 3t-31.5 19l-316 288h227z" />
    <glyph glyph-name="Aacute" unicode="&#xc1;" horiz-adv-x="1373" 
d="M0 0zM1376 0h-181q-31 0 -50 15.5t-29 38.5l-120 318h-620l-120 -318q-8 -20 -28 -37t-50 -17h-181l571 1440h237zM439 540h494l-198 526q-12 29 -24.5 69t-24.5 86q-12 -47 -24.5 -86.5t-23.5 -69.5zM1086 1857l-325 -286q-18 -16 -34 -20t-40 -4h-155l220 273
q9 13 18 20t20 11t24.5 5t31.5 1h240z" />
    <glyph glyph-name="Acircumflex" unicode="&#xc2;" horiz-adv-x="1373" 
d="M0 0zM1376 0h-181q-31 0 -50 15.5t-29 38.5l-120 318h-620l-120 -318q-8 -20 -28 -37t-50 -17h-181l571 1440h237zM439 540h494l-198 526q-12 29 -24.5 69t-24.5 86q-12 -47 -24.5 -86.5t-23.5 -69.5zM1026 1547h-156q-14 0 -33 5t-39 30l-99 121q-4 5 -7 9.5t-6 9.5
q-3 -5 -6 -9.5t-7 -9.5l-99 -121q-20 -25 -39 -30t-33 -5h-149l240 274h193z" />
    <glyph glyph-name="Atilde" unicode="&#xc3;" horiz-adv-x="1373" 
d="M0 0zM1376 0h-181q-31 0 -50 15.5t-29 38.5l-120 318h-620l-120 -318q-8 -20 -28 -37t-50 -17h-181l571 1440h237zM439 540h494l-198 526q-12 29 -24.5 69t-24.5 86q-12 -47 -24.5 -86.5t-23.5 -69.5zM811 1683q23 0 40 9t28 23t16.5 31t5.5 34h131q0 -47 -13 -90
t-37.5 -76t-61 -53t-83.5 -20q-48 0 -85 16t-67.5 35.5t-57 35.5t-53.5 16q-23 0 -39.5 -9t-27.5 -23t-16.5 -31.5t-5.5 -34.5h-132q0 46 13 89.5t38 77t61.5 53.5t83.5 20q48 0 85 -16t67.5 -35.5t56.5 -35.5t53 -16z" />
    <glyph glyph-name="Adieresis" unicode="&#xc4;" horiz-adv-x="1373" 
d="M0 0zM1376 0h-181q-31 0 -50 15.5t-29 38.5l-120 318h-620l-120 -318q-8 -20 -28 -37t-50 -17h-181l571 1440h237zM439 540h494l-198 526q-12 29 -24.5 69t-24.5 86q-12 -47 -24.5 -86.5t-23.5 -69.5zM594 1667q0 -25 -10 -47t-27 -38.5t-40 -26t-48 -9.5q-24 0 -46 9.5
t-38.5 26t-26 38.5t-9.5 47t9.5 47.5t26 39.5t38.5 27t46 10q25 0 48 -10t40 -27t27 -39.5t10 -47.5zM1023 1667q0 -25 -10 -47t-26.5 -38.5t-38.5 -26t-47 -9.5q-26 0 -48 9.5t-39 26t-26.5 38.5t-9.5 47t9.5 47.5t26.5 39.5t39 27t48 10q25 0 47 -10t38.5 -27t26.5 -39.5
t10 -47.5z" />
    <glyph glyph-name="Aring" unicode="&#xc5;" horiz-adv-x="1373" 
d="M0 0zM1376 0h-181q-31 0 -50 15.5t-29 38.5l-120 318h-620l-120 -318q-8 -20 -28 -37t-50 -17h-181l571 1440h237zM439 540h494l-198 526q-12 29 -24.5 69t-24.5 86q-12 -47 -24.5 -86.5t-23.5 -69.5zM488 1702q0 41 16 75.5t43 59t63 38t75 13.5q41 0 77.5 -13.5t64 -38
t43.5 -59t16 -75.5q0 -40 -16 -73.5t-43.5 -57.5t-64 -37t-77.5 -13q-39 0 -75 13t-63 37t-43 57.5t-16 73.5zM592 1702q0 -41 25.5 -67.5t70.5 -26.5q42 0 68 26.5t26 67.5q0 43 -26 69t-68 26q-45 0 -70.5 -26t-25.5 -69z" />
    <glyph glyph-name="Egrave" unicode="&#xc8;" horiz-adv-x="1152" 
d="M171 0zM1069 1440v-189h-663v-434h530v-183h-530v-445h664l-1 -189h-898v1440h898zM465 1857q18 0 31.5 -1t24 -5t19.5 -11.5t19 -19.5l222 -273h-155q-26 0 -40.5 3t-31.5 19l-316 288h227z" />
    <glyph glyph-name="Eacute" unicode="&#xc9;" horiz-adv-x="1152" 
d="M171 0zM1069 1440v-189h-663v-434h530v-183h-530v-445h664l-1 -189h-898v1440h898zM1035 1857l-325 -286q-18 -16 -34 -20t-40 -4h-155l220 273q9 13 18 20t20 11t24.5 5t31.5 1h240z" />
    <glyph glyph-name="Ecircumflex" unicode="&#xca;" horiz-adv-x="1152" 
d="M171 0zM1069 1440v-189h-663v-434h530v-183h-530v-445h664l-1 -189h-898v1440h898zM974 1547h-156q-14 0 -33 5t-39 30l-99 121q-4 5 -7 9.5t-6 9.5q-3 -5 -6 -9.5t-7 -9.5l-99 -121q-20 -25 -39 -30t-33 -5h-149l240 274h193z" />
    <glyph glyph-name="Edieresis" unicode="&#xcb;" horiz-adv-x="1152" 
d="M171 0zM1069 1440v-189h-663v-434h530v-183h-530v-445h664l-1 -189h-898v1440h898zM542 1667q0 -25 -10 -47t-27 -38.5t-40 -26t-48 -9.5q-24 0 -46 9.5t-38.5 26t-26 38.5t-9.5 47t9.5 47.5t26 39.5t38.5 27t46 10q25 0 48 -10t40 -27t27 -39.5t10 -47.5zM971 1667
q0 -25 -10 -47t-26.5 -38.5t-38.5 -26t-47 -9.5q-26 0 -48 9.5t-39 26t-26.5 38.5t-9.5 47t9.5 47.5t26.5 39.5t39 27t48 10q25 0 47 -10t38.5 -27t26.5 -39.5t10 -47.5z" />
    <glyph glyph-name="Igrave" unicode="&#xcc;" horiz-adv-x="577" 
d="M0 0zM406 0h-235v1440h235v-1440zM123 1857q18 0 31.5 -1t24 -5t19.5 -11.5t19 -19.5l222 -273h-155q-26 0 -40.5 3t-31.5 19l-316 288h227z" />
    <glyph glyph-name="Iacute" unicode="&#xcd;" horiz-adv-x="577" 
d="M139 0zM406 0h-235v1440h235v-1440zM693 1857l-325 -286q-18 -16 -34 -20t-40 -4h-155l220 273q9 13 18 20t20 11t24.5 5t31.5 1h240z" />
    <glyph glyph-name="Icircumflex" unicode="&#xce;" horiz-adv-x="577" 
d="M0 0zM406 0h-235v1440h235v-1440zM632 1547h-156q-14 0 -33 5t-39 30l-99 121q-4 5 -7 9.5t-6 9.5q-3 -5 -6 -9.5t-7 -9.5l-99 -121q-20 -25 -39 -30t-33 -5h-149l240 274h193z" />
    <glyph glyph-name="Idieresis" unicode="&#xcf;" horiz-adv-x="577" 
d="M0 0zM406 0h-235v1440h235v-1440zM200 1667q0 -25 -10 -47t-27 -38.5t-40 -26t-48 -9.5q-24 0 -46 9.5t-38.5 26t-26 38.5t-9.5 47t9.5 47.5t26 39.5t38.5 27t46 10q25 0 48 -10t40 -27t27 -39.5t10 -47.5zM629 1667q0 -25 -10 -47t-26.5 -38.5t-38.5 -26t-47 -9.5
q-26 0 -48 9.5t-39 26t-26.5 38.5t-9.5 47t9.5 47.5t26.5 39.5t39 27t48 10q25 0 47 -10t38.5 -27t26.5 -39.5t10 -47.5z" />
    <glyph glyph-name="Ntilde" unicode="&#xd1;" horiz-adv-x="1535" 
d="M293 1440q15 0 25.5 -1.5t19.5 -5.5t17 -12t17 -20l792 -1017q-3 31 -4.5 61t-1.5 56v939h205v-1440h-119q-27 0 -46 9.5t-36 31.5l-791 1016q3 -29 4.5 -57.5t1.5 -52.5v-947h-206v1440h122zM903 1682q23 0 40 9t28 23t16.5 31t5.5 34h131q0 -47 -13 -90t-37.5 -76
t-61 -53t-83.5 -20q-48 0 -85 16t-67.5 35.5t-57 35.5t-53.5 16q-23 0 -39.5 -9t-27.5 -23t-16.5 -31.5t-5.5 -34.5h-132q0 46 13 89.5t38 77t61.5 53.5t83.5 20q48 0 85 -16t67.5 -35.5t56.5 -35.5t53 -16z" />
    <glyph glyph-name="Ograve" unicode="&#xd2;" horiz-adv-x="1609" 
d="M84 0zM1524 720q0 -160 -52 -295t-146.5 -232.5t-227 -152.5t-294.5 -55q-161 0 -293.5 55t-227.5 152.5t-147 232.5t-52 295t52 295t147 233t227.5 153t293.5 55q162 0 294.5 -55t227 -153t146.5 -233t52 -295zM1285 720q0 124 -33.5 223t-96 168t-151.5 106t-200 37
q-110 0 -199 -37t-152 -106t-97 -168t-34 -223q0 -125 34 -224t97 -167.5t152 -105t199 -36.5q111 0 200 36.5t151.5 105t96 167.5t33.5 224zM637 1857q18 0 31.5 -1t24 -5t19.5 -11.5t19 -19.5l222 -273h-155q-26 0 -40.5 3t-31.5 19l-316 288h227z" />
    <glyph glyph-name="Oacute" unicode="&#xd3;" horiz-adv-x="1609" 
d="M84 0zM1524 720q0 -160 -52 -295t-146.5 -232.5t-227 -152.5t-294.5 -55q-161 0 -293.5 55t-227.5 152.5t-147 232.5t-52 295t52 295t147 233t227.5 153t293.5 55q162 0 294.5 -55t227 -153t146.5 -233t52 -295zM1285 720q0 124 -33.5 223t-96 168t-151.5 106t-200 37
q-110 0 -199 -37t-152 -106t-97 -168t-34 -223q0 -125 34 -224t97 -167.5t152 -105t199 -36.5q111 0 200 36.5t151.5 105t96 167.5t33.5 224zM1207 1857l-325 -286q-18 -16 -34 -20t-40 -4h-155l220 273q9 13 18 20t20 11t24.5 5t31.5 1h240z" />
    <glyph glyph-name="Ocircumflex" unicode="&#xd4;" horiz-adv-x="1609" 
d="M84 0zM1524 720q0 -160 -52 -295t-146.5 -232.5t-227 -152.5t-294.5 -55q-161 0 -293.5 55t-227.5 152.5t-147 232.5t-52 295t52 295t147 233t227.5 153t293.5 55q162 0 294.5 -55t227 -153t146.5 -233t52 -295zM1285 720q0 124 -33.5 223t-96 168t-151.5 106t-200 37
q-110 0 -199 -37t-152 -106t-97 -168t-34 -223q0 -125 34 -224t97 -167.5t152 -105t199 -36.5q111 0 200 36.5t151.5 105t96 167.5t33.5 224zM1146 1547h-156q-14 0 -33 5t-39 30l-99 121q-4 5 -7 9.5t-6 9.5q-3 -5 -6 -9.5t-7 -9.5l-99 -121q-20 -25 -39 -30t-33 -5h-149
l240 274h193z" />
    <glyph glyph-name="Otilde" unicode="&#xd5;" horiz-adv-x="1609" 
d="M84 0zM1524 720q0 -160 -52 -295t-146.5 -232.5t-227 -152.5t-294.5 -55q-161 0 -293.5 55t-227.5 152.5t-147 232.5t-52 295t52 295t147 233t227.5 153t293.5 55q162 0 294.5 -55t227 -153t146.5 -233t52 -295zM1285 720q0 124 -33.5 223t-96 168t-151.5 106t-200 37
q-110 0 -199 -37t-152 -106t-97 -168t-34 -223q0 -125 34 -224t97 -167.5t152 -105t199 -36.5q111 0 200 36.5t151.5 105t96 167.5t33.5 224zM931 1683q23 0 40 9t28 23t16.5 31t5.5 34h131q0 -47 -13 -90t-37.5 -76t-61 -53t-83.5 -20q-48 0 -85 16t-67.5 35.5t-57 35.5
t-53.5 16q-23 0 -39.5 -9t-27.5 -23t-16.5 -31.5t-5.5 -34.5h-132q0 46 13 89.5t38 77t61.5 53.5t83.5 20q48 0 85 -16t67.5 -35.5t56.5 -35.5t53 -16z" />
    <glyph glyph-name="Odieresis" unicode="&#xd6;" horiz-adv-x="1609" 
d="M84 0zM1524 720q0 -160 -52 -295t-146.5 -232.5t-227 -152.5t-294.5 -55q-161 0 -293.5 55t-227.5 152.5t-147 232.5t-52 295t52 295t147 233t227.5 153t293.5 55q162 0 294.5 -55t227 -153t146.5 -233t52 -295zM1285 720q0 124 -33.5 223t-96 168t-151.5 106t-200 37
q-110 0 -199 -37t-152 -106t-97 -168t-34 -223q0 -125 34 -224t97 -167.5t152 -105t199 -36.5q111 0 200 36.5t151.5 105t96 167.5t33.5 224zM714 1667q0 -25 -10 -47t-27 -38.5t-40 -26t-48 -9.5q-24 0 -46 9.5t-38.5 26t-26 38.5t-9.5 47t9.5 47.5t26 39.5t38.5 27t46 10
q25 0 48 -10t40 -27t27 -39.5t10 -47.5zM1143 1667q0 -25 -10 -47t-26.5 -38.5t-38.5 -26t-47 -9.5q-26 0 -48 9.5t-39 26t-26.5 38.5t-9.5 47t9.5 47.5t26.5 39.5t39 27t48 10q25 0 47 -10t38.5 -27t26.5 -39.5t10 -47.5z" />
    <glyph glyph-name="Ugrave" unicode="&#xd9;" horiz-adv-x="1479" 
d="M153 0zM739 189q83 0 148.5 28t111 78t69.5 120.5t24 156.5v868h233v-868q0 -127 -40.5 -235t-116.5 -186.5t-184.5 -123t-244.5 -44.5t-244.5 44.5t-184.5 123t-116.5 186.5t-40.5 235v868h234v-867q0 -86 24 -156.5t69 -121t110.5 -78.5t148.5 -28zM570 1857
q18 0 31.5 -1t24 -5t19.5 -11.5t19 -19.5l222 -273h-155q-26 0 -40.5 3t-31.5 19l-316 288h227z" />
    <glyph glyph-name="Uacute" unicode="&#xda;" horiz-adv-x="1479" 
d="M153 0zM739 189q83 0 148.5 28t111 78t69.5 120.5t24 156.5v868h233v-868q0 -127 -40.5 -235t-116.5 -186.5t-184.5 -123t-244.5 -44.5t-244.5 44.5t-184.5 123t-116.5 186.5t-40.5 235v868h234v-867q0 -86 24 -156.5t69 -121t110.5 -78.5t148.5 -28zM1140 1857
l-325 -286q-18 -16 -34 -20t-40 -4h-155l220 273q9 13 18 20t20 11t24.5 5t31.5 1h240z" />
    <glyph glyph-name="Ucircumflex" unicode="&#xdb;" horiz-adv-x="1479" 
d="M153 0zM739 189q83 0 148.5 28t111 78t69.5 120.5t24 156.5v868h233v-868q0 -127 -40.5 -235t-116.5 -186.5t-184.5 -123t-244.5 -44.5t-244.5 44.5t-184.5 123t-116.5 186.5t-40.5 235v868h234v-867q0 -86 24 -156.5t69 -121t110.5 -78.5t148.5 -28zM1079 1547h-156
q-14 0 -33 5t-39 30l-99 121q-4 5 -7 9.5t-6 9.5q-3 -5 -6 -9.5t-7 -9.5l-99 -121q-20 -25 -39 -30t-33 -5h-149l240 274h193z" />
    <glyph glyph-name="Udieresis" unicode="&#xdc;" horiz-adv-x="1479" 
d="M153 0zM739 189q83 0 148.5 28t111 78t69.5 120.5t24 156.5v868h233v-868q0 -127 -40.5 -235t-116.5 -186.5t-184.5 -123t-244.5 -44.5t-244.5 44.5t-184.5 123t-116.5 186.5t-40.5 235v868h234v-867q0 -86 24 -156.5t69 -121t110.5 -78.5t148.5 -28zM647 1667
q0 -25 -10 -47t-27 -38.5t-40 -26t-48 -9.5q-24 0 -46 9.5t-38.5 26t-26 38.5t-9.5 47t9.5 47.5t26 39.5t38.5 27t46 10q25 0 48 -10t40 -27t27 -39.5t10 -47.5zM1076 1667q0 -25 -10 -47t-26.5 -38.5t-38.5 -26t-47 -9.5q-26 0 -48 9.5t-39 26t-26.5 38.5t-9.5 47t9.5 47.5
t26.5 39.5t39 27t48 10q25 0 47 -10t38.5 -27t26.5 -39.5t10 -47.5z" />
    <glyph glyph-name="Ydieresis" unicode="&#x178;" horiz-adv-x="1273" 
d="M0 0zM753 564v-564h-233v564l-526 876h205q31 0 49 -15t30 -38l295 -516q20 -39 36.5 -74t28.5 -69q12 35 28 69.5t36 73.5l293 516q10 20 29 36.5t49 16.5h206zM547 1667q0 -25 -10 -47t-27 -38.5t-40 -26t-48 -9.5q-24 0 -46 9.5t-38.5 26t-26 38.5t-9.5 47t9.5 47.5
t26 39.5t38.5 27t46 10q25 0 48 -10t40 -27t27 -39.5t10 -47.5zM976 1667q0 -25 -10 -47t-26.5 -38.5t-38.5 -26t-47 -9.5q-26 0 -48 9.5t-39 26t-26.5 38.5t-9.5 47t9.5 47.5t26.5 39.5t39 27t48 10q25 0 47 -10t38.5 -27t26.5 -39.5t10 -47.5z" />
    <glyph glyph-name="agrave" unicode="&#xe0;" horiz-adv-x="1005" 
d="M57 0zM789 0q-31 0 -47 9.5t-27 38.5l-21 83q-39 -36 -77 -63t-78.5 -46t-87 -28.5t-102.5 -9.5q-62 0 -115.5 17t-92.5 51.5t-61.5 85.5t-22.5 120q0 59 31.5 115t104 100.5t191 73.5t292.5 33v68q0 110 -47 164t-138 54q-62 0 -104 -15.5t-73 -33.5t-55 -33.5
t-51 -15.5q-22 0 -37.5 11.5t-25.5 28.5l-39 70q173 161 412 161q88 0 156.5 -28.5t115 -80.5t71 -123.5t24.5 -158.5v-648h-96zM414 134q84 0 144.5 31.5t117.5 90.5v190q-115 -5 -194 -19t-128 -37t-70.5 -53.5t-21.5 -67.5q0 -36 11.5 -61.5t32 -42t48 -24t60.5 -7.5z
M401 1456q37 0 55 -12t32 -37l146 -242h-122q-25 0 -40.5 7t-31.5 25l-241 259h202z" />
    <glyph glyph-name="aacute" unicode="&#xe1;" horiz-adv-x="1005" 
d="M57 0zM789 0q-31 0 -47 9.5t-27 38.5l-21 83q-39 -36 -77 -63t-78.5 -46t-87 -28.5t-102.5 -9.5q-62 0 -115.5 17t-92.5 51.5t-61.5 85.5t-22.5 120q0 59 31.5 115t104 100.5t191 73.5t292.5 33v68q0 110 -47 164t-138 54q-62 0 -104 -15.5t-73 -33.5t-55 -33.5
t-51 -15.5q-22 0 -37.5 11.5t-25.5 28.5l-39 70q173 161 412 161q88 0 156.5 -28.5t115 -80.5t71 -123.5t24.5 -158.5v-648h-96zM414 134q84 0 144.5 31.5t117.5 90.5v190q-115 -5 -194 -19t-128 -37t-70.5 -53.5t-21.5 -67.5q0 -36 11.5 -61.5t32 -42t48 -24t60.5 -7.5z
M815 1456l-241 -259q-16 -18 -31.5 -25t-40.5 -7h-128l145 242q14 25 32.5 37t54.5 12h209z" />
    <glyph glyph-name="acircumflex" unicode="&#xe2;" horiz-adv-x="1005" 
d="M57 0zM789 0q-31 0 -47 9.5t-27 38.5l-21 83q-39 -36 -77 -63t-78.5 -46t-87 -28.5t-102.5 -9.5q-62 0 -115.5 17t-92.5 51.5t-61.5 85.5t-22.5 120q0 59 31.5 115t104 100.5t191 73.5t292.5 33v68q0 110 -47 164t-138 54q-62 0 -104 -15.5t-73 -33.5t-55 -33.5
t-51 -15.5q-22 0 -37.5 11.5t-25.5 28.5l-39 70q173 161 412 161q88 0 156.5 -28.5t115 -80.5t71 -123.5t24.5 -158.5v-648h-96zM414 134q84 0 144.5 31.5t117.5 90.5v190q-115 -5 -194 -19t-128 -37t-70.5 -53.5t-21.5 -67.5q0 -36 11.5 -61.5t32 -42t48 -24t60.5 -7.5z
M822 1169h-144q-13 0 -25.5 4t-25.5 18l-110 116q-5 5 -9.5 10t-9.5 11q-9 -12 -18 -21l-112 -116q-11 -11 -24 -16.5t-27 -5.5h-149l227 271h200z" />
    <glyph glyph-name="atilde" unicode="&#xe3;" horiz-adv-x="1005" 
d="M57 0zM789 0q-31 0 -47 9.5t-27 38.5l-21 83q-39 -36 -77 -63t-78.5 -46t-87 -28.5t-102.5 -9.5q-62 0 -115.5 17t-92.5 51.5t-61.5 85.5t-22.5 120q0 59 31.5 115t104 100.5t191 73.5t292.5 33v68q0 110 -47 164t-138 54q-62 0 -104 -15.5t-73 -33.5t-55 -33.5
t-51 -15.5q-22 0 -37.5 11.5t-25.5 28.5l-39 70q173 161 412 161q88 0 156.5 -28.5t115 -80.5t71 -123.5t24.5 -158.5v-648h-96zM414 134q84 0 144.5 31.5t117.5 90.5v190q-115 -5 -194 -19t-128 -37t-70.5 -53.5t-21.5 -67.5q0 -36 11.5 -61.5t32 -42t48 -24t60.5 -7.5z
M604 1344q32 0 50 18.5t19 61.5h131q0 -52 -14 -94.5t-39.5 -73t-61 -47t-77.5 -16.5q-35 0 -66 13.5t-58 29.5t-51 29.5t-45 13.5q-32 0 -50 -19.5t-18 -62.5h-133q0 52 14.5 95t40 73.5t61 47.5t77.5 17q36 0 67 -13.5t58 -29.5t50.5 -29.5t44.5 -13.5z" />
    <glyph glyph-name="adieresis" unicode="&#xe4;" horiz-adv-x="1005" 
d="M57 0zM789 0q-31 0 -47 9.5t-27 38.5l-21 83q-39 -36 -77 -63t-78.5 -46t-87 -28.5t-102.5 -9.5q-62 0 -115.5 17t-92.5 51.5t-61.5 85.5t-22.5 120q0 59 31.5 115t104 100.5t191 73.5t292.5 33v68q0 110 -47 164t-138 54q-62 0 -104 -15.5t-73 -33.5t-55 -33.5
t-51 -15.5q-22 0 -37.5 11.5t-25.5 28.5l-39 70q173 161 412 161q88 0 156.5 -28.5t115 -80.5t71 -123.5t24.5 -158.5v-648h-96zM414 134q84 0 144.5 31.5t117.5 90.5v190q-115 -5 -194 -19t-128 -37t-70.5 -53.5t-21.5 -67.5q0 -36 11.5 -61.5t32 -42t48 -24t60.5 -7.5z
M424 1291q0 -26 -10 -48.5t-27.5 -39t-41 -26.5t-49.5 -10q-25 0 -47.5 10t-39.5 26.5t-27 39t-10 48.5t10 49.5t27 41t39.5 27.5t47.5 10q26 0 49.5 -10t41 -27.5t27.5 -41t10 -49.5zM818 1291q0 -26 -10 -48.5t-27.5 -39t-40.5 -26.5t-49 -10t-48.5 10t-39.5 26.5t-27 39
t-10 48.5t10 49.5t27 41t39.5 27.5t48.5 10t49 -10t40.5 -27.5t27.5 -41t10 -49.5z" />
    <glyph glyph-name="aring" unicode="&#xe5;" horiz-adv-x="1005" 
d="M57 0zM789 0q-31 0 -47 9.5t-27 38.5l-21 83q-39 -36 -77 -63t-78.5 -46t-87 -28.5t-102.5 -9.5q-62 0 -115.5 17t-92.5 51.5t-61.5 85.5t-22.5 120q0 59 31.5 115t104 100.5t191 73.5t292.5 33v68q0 110 -47 164t-138 54q-62 0 -104 -15.5t-73 -33.5t-55 -33.5
t-51 -15.5q-22 0 -37.5 11.5t-25.5 28.5l-39 70q173 161 412 161q88 0 156.5 -28.5t115 -80.5t71 -123.5t24.5 -158.5v-648h-96zM414 134q84 0 144.5 31.5t117.5 90.5v190q-115 -5 -194 -19t-128 -37t-70.5 -53.5t-21.5 -67.5q0 -36 11.5 -61.5t32 -42t48 -24t60.5 -7.5z
M285 1321q0 44 17 80.5t46 62.5t67.5 40t80.5 14q43 0 82 -14t68 -40t46.5 -62.5t17.5 -80.5t-17.5 -79.5t-46.5 -61t-68 -39.5t-82 -14q-42 0 -80.5 14t-67.5 39.5t-46 61t-17 79.5zM403 1321q0 -42 25 -68t70 -26q42 0 68 26t26 68q0 43 -26 69t-68 26q-45 0 -70 -26
t-25 -69z" />
    <glyph glyph-name="egrave" unicode="&#xe8;" horiz-adv-x="1062" 
d="M74 0zM558 1036q94 0 174 -30.5t138 -89.5t90.5 -144.5t32.5 -194.5q0 -50 -11 -67t-40 -17h-655q4 -87 27 -150.5t61.5 -105.5t92 -62.5t119.5 -20.5q63 0 109 14.5t80 32t58 32t44 14.5q26 0 40 -20l61 -79q-38 -45 -86 -76t-102 -50.5t-111 -28t-111 -8.5
q-106 0 -196.5 35.5t-157 104.5t-104 171t-37.5 235q0 106 33.5 198t96 160t152 107.5t202.5 39.5zM562 880q-117 0 -184 -67t-85 -188h507q0 54 -15.5 100.5t-45.5 81t-74.5 54t-102.5 19.5zM469 1456q37 0 55 -12t32 -37l146 -242h-122q-25 0 -40.5 7t-31.5 25l-241 259
h202z" />
    <glyph glyph-name="eacute" unicode="&#xe9;" horiz-adv-x="1062" 
d="M74 0zM558 1036q94 0 174 -30.5t138 -89.5t90.5 -144.5t32.5 -194.5q0 -50 -11 -67t-40 -17h-655q4 -87 27 -150.5t61.5 -105.5t92 -62.5t119.5 -20.5q63 0 109 14.5t80 32t58 32t44 14.5q26 0 40 -20l61 -79q-38 -45 -86 -76t-102 -50.5t-111 -28t-111 -8.5
q-106 0 -196.5 35.5t-157 104.5t-104 171t-37.5 235q0 106 33.5 198t96 160t152 107.5t202.5 39.5zM562 880q-117 0 -184 -67t-85 -188h507q0 54 -15.5 100.5t-45.5 81t-74.5 54t-102.5 19.5zM883 1456l-241 -259q-16 -18 -31.5 -25t-40.5 -7h-128l145 242q14 25 32.5 37
t54.5 12h209z" />
    <glyph glyph-name="ecircumflex" unicode="&#xea;" horiz-adv-x="1062" 
d="M74 0zM558 1036q94 0 174 -30.5t138 -89.5t90.5 -144.5t32.5 -194.5q0 -50 -11 -67t-40 -17h-655q4 -87 27 -150.5t61.5 -105.5t92 -62.5t119.5 -20.5q63 0 109 14.5t80 32t58 32t44 14.5q26 0 40 -20l61 -79q-38 -45 -86 -76t-102 -50.5t-111 -28t-111 -8.5
q-106 0 -196.5 35.5t-157 104.5t-104 171t-37.5 235q0 106 33.5 198t96 160t152 107.5t202.5 39.5zM562 880q-117 0 -184 -67t-85 -188h507q0 54 -15.5 100.5t-45.5 81t-74.5 54t-102.5 19.5zM890 1169h-144q-13 0 -25.5 4t-25.5 18l-110 116q-5 5 -9.5 10t-9.5 11
q-9 -12 -18 -21l-112 -116q-11 -11 -24 -16.5t-27 -5.5h-149l227 271h200z" />
    <glyph glyph-name="edieresis" unicode="&#xeb;" horiz-adv-x="1062" 
d="M74 0zM558 1036q94 0 174 -30.5t138 -89.5t90.5 -144.5t32.5 -194.5q0 -50 -11 -67t-40 -17h-655q4 -87 27 -150.5t61.5 -105.5t92 -62.5t119.5 -20.5q63 0 109 14.5t80 32t58 32t44 14.5q26 0 40 -20l61 -79q-38 -45 -86 -76t-102 -50.5t-111 -28t-111 -8.5
q-106 0 -196.5 35.5t-157 104.5t-104 171t-37.5 235q0 106 33.5 198t96 160t152 107.5t202.5 39.5zM562 880q-117 0 -184 -67t-85 -188h507q0 54 -15.5 100.5t-45.5 81t-74.5 54t-102.5 19.5zM492 1291q0 -26 -10 -48.5t-27.5 -39t-41 -26.5t-49.5 -10q-25 0 -47.5 10
t-39.5 26.5t-27 39t-10 48.5t10 49.5t27 41t39.5 27.5t47.5 10q26 0 49.5 -10t41 -27.5t27.5 -41t10 -49.5zM886 1291q0 -26 -10 -48.5t-27.5 -39t-40.5 -26.5t-49 -10t-48.5 10t-39.5 26.5t-27 39t-10 48.5t10 49.5t27 41t39.5 27.5t48.5 10t49 -10t40.5 -27.5t27.5 -41
t10 -49.5z" />
    <glyph glyph-name="igrave" unicode="&#xec;" horiz-adv-x="495" 
d="M0 0zM354 1020v-1020h-214v1020h214zM159 1456q37 0 55 -12t32 -37l146 -242h-122q-25 0 -40.5 7t-31.5 25l-241 259h202z" />
    <glyph glyph-name="iacute" unicode="&#xed;" horiz-adv-x="495" 
d="M133 0zM355 1020v-1020h-214v1020h214zM574 1456l-241 -259q-16 -18 -31.5 -25t-40.5 -7h-128l145 242q14 25 32.5 37t54.5 12h209z" />
    <glyph glyph-name="icircumflex" unicode="&#xee;" horiz-adv-x="495" 
d="M0 0zM354 1020v-1020h-214v1020h214zM580 1169h-144q-13 0 -25.5 4t-25.5 18l-110 116q-5 5 -9.5 10t-9.5 11q-9 -12 -18 -21l-112 -116q-11 -11 -24 -16.5t-27 -5.5h-149l227 271h200z" />
    <glyph glyph-name="idieresis" unicode="&#xef;" horiz-adv-x="495" 
d="M0 0zM354 1020v-1020h-214v1020h214zM216 1291q0 -26 -10.5 -48.5t-28 -39t-40.5 -26.5t-49 -10q-25 0 -47.5 10t-39.5 26.5t-27 39t-10 48.5t10 49.5t27 41t39.5 27.5t47.5 10q26 0 49 -10t40.5 -27.5t28 -41t10.5 -49.5zM542 1291q0 -26 -10 -48.5t-27 -39t-40 -26.5
t-49 -10t-49 10t-40 26.5t-27 39t-10 48.5t10 49.5t27 41t40 27.5t49 10t49 -10t40 -27.5t27 -41t10 -49.5z" />
    <glyph glyph-name="ntilde" unicode="&#xf1;" horiz-adv-x="1122" 
d="M131 0zM131 0v1020h130q44 0 56 -41l15 -95q32 34 67.5 62t75.5 48t85.5 31t98.5 11q84 0 147.5 -28t107 -79t65.5 -122.5t22 -157.5v-649h-214v649q0 103 -47.5 160t-144.5 57q-72 0 -133.5 -33t-115.5 -90v-743h-215zM678 1344q32 0 50 18.5t19 61.5h131
q0 -52 -14 -94.5t-39.5 -73t-61 -47t-77.5 -16.5q-35 0 -66 13.5t-58 29.5t-51 29.5t-45 13.5q-32 0 -50 -19.5t-18 -62.5h-133q0 52 14.5 95t40 73.5t61 47.5t77.5 17q36 0 67 -13.5t58 -29.5t50.5 -29.5t44.5 -13.5z" />
    <glyph glyph-name="ograve" unicode="&#xf2;" horiz-adv-x="1142" 
d="M75 0zM572 1036q113 0 204.5 -37t156 -105t99.5 -165t35 -218t-35 -218t-99.5 -165.5t-156 -105.5t-204.5 -37q-114 0 -205.5 37t-156.5 105.5t-100 165.5t-35 218t35 218t100 165t156.5 105t205.5 37zM572 153q138 0 205.5 92.5t67.5 264.5t-67.5 265.5t-205.5 93.5
q-140 0 -208 -93.5t-68 -265.5t68 -264.5t208 -92.5zM479 1456q37 0 55 -12t32 -37l146 -242h-122q-25 0 -40.5 7t-31.5 25l-241 259h202z" />
    <glyph glyph-name="oacute" unicode="&#xf3;" horiz-adv-x="1142" 
d="M75 0zM572 1036q113 0 204.5 -37t156 -105t99.5 -165t35 -218t-35 -218t-99.5 -165.5t-156 -105.5t-204.5 -37q-114 0 -205.5 37t-156.5 105.5t-100 165.5t-35 218t35 218t100 165t156.5 105t205.5 37zM572 153q138 0 205.5 92.5t67.5 264.5t-67.5 265.5t-205.5 93.5
q-140 0 -208 -93.5t-68 -265.5t68 -264.5t208 -92.5zM893 1456l-241 -259q-16 -18 -31.5 -25t-40.5 -7h-128l145 242q14 25 32.5 37t54.5 12h209z" />
    <glyph glyph-name="ocircumflex" unicode="&#xf4;" horiz-adv-x="1142" 
d="M75 0zM572 1036q113 0 204.5 -37t156 -105t99.5 -165t35 -218t-35 -218t-99.5 -165.5t-156 -105.5t-204.5 -37q-114 0 -205.5 37t-156.5 105.5t-100 165.5t-35 218t35 218t100 165t156.5 105t205.5 37zM572 153q138 0 205.5 92.5t67.5 264.5t-67.5 265.5t-205.5 93.5
q-140 0 -208 -93.5t-68 -265.5t68 -264.5t208 -92.5zM900 1169h-144q-13 0 -25.5 4t-25.5 18l-110 116q-5 5 -9.5 10t-9.5 11q-9 -12 -18 -21l-112 -116q-11 -11 -24 -16.5t-27 -5.5h-149l227 271h200z" />
    <glyph glyph-name="otilde" unicode="&#xf5;" horiz-adv-x="1142" 
d="M75 0zM572 1036q113 0 204.5 -37t156 -105t99.5 -165t35 -218t-35 -218t-99.5 -165.5t-156 -105.5t-204.5 -37q-114 0 -205.5 37t-156.5 105.5t-100 165.5t-35 218t35 218t100 165t156.5 105t205.5 37zM572 153q138 0 205.5 92.5t67.5 264.5t-67.5 265.5t-205.5 93.5
q-140 0 -208 -93.5t-68 -265.5t68 -264.5t208 -92.5zM682 1344q32 0 50 18.5t19 61.5h131q0 -52 -14 -94.5t-39.5 -73t-61 -47t-77.5 -16.5q-35 0 -66 13.5t-58 29.5t-51 29.5t-45 13.5q-32 0 -50 -19.5t-18 -62.5h-133q0 52 14.5 95t40 73.5t61 47.5t77.5 17q36 0 67 -13.5
t58 -29.5t50.5 -29.5t44.5 -13.5z" />
    <glyph glyph-name="odieresis" unicode="&#xf6;" horiz-adv-x="1142" 
d="M75 0zM572 1036q113 0 204.5 -37t156 -105t99.5 -165t35 -218t-35 -218t-99.5 -165.5t-156 -105.5t-204.5 -37q-114 0 -205.5 37t-156.5 105.5t-100 165.5t-35 218t35 218t100 165t156.5 105t205.5 37zM572 153q138 0 205.5 92.5t67.5 264.5t-67.5 265.5t-205.5 93.5
q-140 0 -208 -93.5t-68 -265.5t68 -264.5t208 -92.5zM502 1291q0 -26 -10 -48.5t-27.5 -39t-41 -26.5t-49.5 -10q-25 0 -47.5 10t-39.5 26.5t-27 39t-10 48.5t10 49.5t27 41t39.5 27.5t47.5 10q26 0 49.5 -10t41 -27.5t27.5 -41t10 -49.5zM896 1291q0 -26 -10 -48.5
t-27.5 -39t-40.5 -26.5t-49 -10t-48.5 10t-39.5 26.5t-27 39t-10 48.5t10 49.5t27 41t39.5 27.5t48.5 10t49 -10t40.5 -27.5t27.5 -41t10 -49.5z" />
    <glyph glyph-name="ugrave" unicode="&#xf9;" horiz-adv-x="1122" 
d="M121 0zM336 1020v-649q0 -103 47.5 -160t144.5 -57q71 0 132.5 32.5t115.5 89.5v744h215v-1020h-130q-43 0 -55 41l-16 95q-65 -68 -143.5 -110t-182.5 -42q-84 0 -148 28t-107.5 79t-65.5 122.5t-22 157.5v649h215zM468 1456q37 0 55 -12t32 -37l146 -242h-122
q-25 0 -40.5 7t-31.5 25l-241 259h202z" />
    <glyph glyph-name="uacute" unicode="&#xfa;" horiz-adv-x="1122" 
d="M121 0zM336 1020v-649q0 -103 47.5 -160t144.5 -57q71 0 132.5 32.5t115.5 89.5v744h215v-1020h-130q-43 0 -55 41l-16 95q-65 -68 -143.5 -110t-182.5 -42q-84 0 -148 28t-107.5 79t-65.5 122.5t-22 157.5v649h215zM882 1456l-241 -259q-16 -18 -31.5 -25t-40.5 -7h-128
l145 242q14 25 32.5 37t54.5 12h209z" />
    <glyph glyph-name="ucircumflex" unicode="&#xfb;" horiz-adv-x="1122" 
d="M121 0zM336 1020v-649q0 -103 47.5 -160t144.5 -57q71 0 132.5 32.5t115.5 89.5v744h215v-1020h-130q-43 0 -55 41l-16 95q-65 -68 -143.5 -110t-182.5 -42q-84 0 -148 28t-107.5 79t-65.5 122.5t-22 157.5v649h215zM889 1169h-144q-13 0 -25.5 4t-25.5 18l-110 116
q-5 5 -9.5 10t-9.5 11q-9 -12 -18 -21l-112 -116q-11 -11 -24 -16.5t-27 -5.5h-149l227 271h200z" />
    <glyph glyph-name="udieresis" unicode="&#xfc;" horiz-adv-x="1122" 
d="M121 0zM336 1020v-649q0 -103 47.5 -160t144.5 -57q71 0 132.5 32.5t115.5 89.5v744h215v-1020h-130q-43 0 -55 41l-16 95q-65 -68 -143.5 -110t-182.5 -42q-84 0 -148 28t-107.5 79t-65.5 122.5t-22 157.5v649h215zM491 1291q0 -26 -10 -48.5t-27.5 -39t-41 -26.5
t-49.5 -10q-25 0 -47.5 10t-39.5 26.5t-27 39t-10 48.5t10 49.5t27 41t39.5 27.5t47.5 10q26 0 49.5 -10t41 -27.5t27.5 -41t10 -49.5zM885 1291q0 -26 -10 -48.5t-27.5 -39t-40.5 -26.5t-49 -10t-48.5 10t-39.5 26.5t-27 39t-10 48.5t10 49.5t27 41t39.5 27.5t48.5 10
t49 -10t40.5 -27.5t27.5 -41t10 -49.5z" />
    <glyph glyph-name="ydieresis" unicode="&#xff;" horiz-adv-x="1044" 
d="M13 0zM474 -290q-11 -23 -26.5 -36t-47.5 -13h-159l188 408l-416 951h187q27 0 41.5 -12.5t21.5 -29.5l243 -579q18 -50 30 -100q8 26 16.5 51t18.5 50l233 578q7 18 23.5 30t36.5 12h172zM477 1291q0 -26 -10 -48.5t-27.5 -39t-41 -26.5t-49.5 -10q-25 0 -47.5 10
t-39.5 26.5t-27 39t-10 48.5t10 49.5t27 41t39.5 27.5t47.5 10q26 0 49.5 -10t41 -27.5t27.5 -41t10 -49.5zM871 1291q0 -26 -10 -48.5t-27.5 -39t-40.5 -26.5t-49 -10t-48.5 10t-39.5 26.5t-27 39t-10 48.5t10 49.5t27 41t39.5 27.5t48.5 10t49 -10t40.5 -27.5t27.5 -41
t10 -49.5z" />
    <glyph glyph-name="Delta" unicode="&#x2206;" horiz-adv-x="1457" 
d="M63 67q0 32 7 66.5t21 70.5l521 1236h237l517 -1232q28 -68 28 -140v-68h-1331v67zM304 187h827l-357 879q-13 32 -26.5 75.5t-25.5 94.5q-12 -52 -26 -95t-27 -76z" />
    <glyph glyph-name="Omega" unicode="&#x2126;" horiz-adv-x="1640" 
d="M933 269q75 13 140 58t113 114t75.5 157.5t27.5 188.5q0 117 -38 204.5t-102 145.5t-149.5 87t-179.5 29q-95 0 -180 -29t-149 -87t-102 -145.5t-38 -204.5q0 -100 27.5 -188.5t75.5 -157.5t113 -114t140 -58v-269h-526q-36 0 -57.5 21t-21.5 54v121h257q41 0 84.5 -4.5
t85.5 -10.5q-90 32 -165.5 90.5t-129.5 137t-84.5 175.5t-30.5 205q0 147 54.5 269.5t149.5 211t222.5 137.5t274.5 49t274.5 -49t222.5 -137.5t149.5 -211t54.5 -269.5q0 -108 -30.5 -205t-85 -175.5t-129.5 -137t-165 -90.5q42 6 85 10.5t85 4.5h257v-121q0 -33 -21.5 -54
t-57.5 -21h-526v269z" />
    <glyph glyph-name="mu" unicode="&#xb5;" horiz-adv-x="1310" 
d="M387 1020v-609q0 -102 48 -162.5t144 -60.5q85 0 147 46t102 129v657h215v-730q0 -72 36 -106t96 -34h66v-86q0 -29 -36.5 -51.5t-102.5 -22.5q-42 0 -81 12t-71 37t-55.5 63t-35.5 91q-57 -87 -129.5 -134.5t-164.5 -47.5q-132 0 -206 76q8 -42 11 -86t3 -82v-258h-106
q-45 0 -70 23.5t-25 67.5v1268h215z" />
    <glyph glyph-name="Aogonek" unicode="&#x104;" horiz-adv-x="1371" 
d="M1381 -198q16 0 21 -14l33 -80q-32 -23 -79.5 -37t-101.5 -14q-94 0 -145.5 40t-51.5 106q0 56 37.5 106.5t101.5 90.5h-2q-31 0 -50 15.5t-29 38.5l-120 318h-620l-120 -318q-8 -20 -28 -37t-50 -17h-181l571 1440h237l571 -1440h-46q-20 -11 -39.5 -26t-35.5 -33
t-26 -39.5t-10 -45.5q0 -33 21.5 -52.5t59.5 -19.5q21 0 34 3t22 6t15 6t11 3zM438 540h494l-198 526q-12 29 -24.5 69t-24.5 86q-12 -47 -24.5 -86.5t-23.5 -69.5z" />
    <glyph glyph-name="Eth" unicode="&#xd0;" horiz-adv-x="1539" 
d="M1 793h188v647h544q162 0 294.5 -52.5t227 -147.5t146.5 -227.5t52 -292.5t-52 -292.5t-146.5 -227.5t-227 -147.5t-294.5 -52.5h-544v658h-188v135zM1214 720q0 124 -33.5 223t-96 167t-151.5 104.5t-200 36.5h-309v-458h277v-135h-277v-469h309q111 0 200 36
t151.5 104.5t96 167t33.5 223.5z" />
    <glyph glyph-name="Eogonek" unicode="&#x118;" horiz-adv-x="1152" 
d="M1030 -198q16 0 21 -14l33 -80q-32 -23 -79.5 -37t-101.5 -14q-94 0 -145.5 40t-51.5 106q0 56 37.5 106.5t101.5 90.5h-674v1440h898v-189h-663v-434h530v-183h-530v-445h664l-1 -189h-91q-20 -11 -39.5 -26t-35.5 -33t-26 -39.5t-10 -45.5q0 -33 21.5 -52.5t59.5 -19.5
q21 0 34 3t22 6t15 6t11 3z" />
    <glyph glyph-name="Hbar" unicode="&#x126;" horiz-adv-x="1552" 
d="M1372 1175h157v-138h-157v-1037h-234v641h-723v-641h-235v1037h-157v138h157v265h235v-265h723v265h234v-265zM1138 810v227h-723v-227h723z" />
    <glyph glyph-name="Iogonek" unicode="&#x12e;" horiz-adv-x="578" 
d="M424 -198q16 0 21 -14l33 -80q-32 -23 -79.5 -37t-101.5 -14q-94 0 -145.5 40t-51.5 106q0 56 37.5 106.5t101.5 90.5h-67v1440h235v-1440h-35q-20 -11 -39.5 -26t-35.5 -33t-26 -39.5t-10 -45.5q0 -33 21.5 -52.5t59.5 -19.5q21 0 34 3t22 6t15 6t11 3z" />
    <glyph glyph-name="Lslash" unicode="&#x141;" horiz-adv-x="1064" 
d="M435 841l371 187v-159q0 -37 -31 -50l-340 -176v-447h598v-196h-832v539l-183 -93v163q0 32 28 44l155 81v706h234v-599z" />
    <glyph glyph-name="Lcaron" unicode="&#x13d;" horiz-adv-x="1033" 
d="M171 0zM405 196h598v-196h-832v1440h234v-1244zM775 1482q25 0 31 -11.5t6 -23.5q0 -9 -3.5 -25.5t-13.5 -45.5t-27 -75.5t-45 -115.5q-12 -25 -29.5 -32.5t-46.5 -7.5h-75l59 337h144z" />
    <glyph glyph-name="Eng" unicode="&#x14a;" horiz-adv-x="1535" 
d="M293 1440q15 0 25.5 -1.5t19.5 -5.5t17 -12t17 -20l792 -1017q-3 31 -4.5 61t-1.5 56v939h205v-1415q0 -84 -19.5 -154.5t-61 -121t-107 -78.5t-158.5 -28q-51 0 -91.5 9t-87.5 29l24 94q7 26 19.5 34t28.5 8q14 0 33 -6.5t54 -6.5q160 0 160 196v47l-786 1010
q3 -29 4.5 -57.5t1.5 -52.5v-947h-206v1440h122v0z" />
    <glyph glyph-name="Thorn" unicode="&#xde;" horiz-adv-x="1215" 
d="M405 266v-266h-234v1440h234v-255h214q141 0 244.5 -33t171 -93t100.5 -143.5t33 -184.5q0 -102 -35 -187.5t-104 -147t-171.5 -96t-238.5 -34.5h-214zM405 451h214q78 0 137.5 20t99 56.5t59.5 88.5t20 115q0 126 -78 198.5t-238 72.5h-214v-551z" />
    <glyph glyph-name="Scedilla" unicode="&#x15e;" horiz-adv-x="1091" 
d="M437 -242q7 0 14.5 -3t18 -6.5t24 -6.5t31.5 -3q38 0 56.5 14.5t18.5 35.5q0 34 -39 47.5t-114 24.5l41 124q-65 3 -126 17.5t-116 39t-103.5 57.5t-87.5 74l68 112q9 14 23 22t31 8q23 0 51 -21.5t67.5 -47t95.5 -47t134 -21.5q127 0 196.5 62t69.5 171q0 61 -29 99.5
t-76.5 64.5t-108.5 44t-124 38.5t-124 48t-108.5 72t-76.5 110t-29 163.5q0 78 30.5 151t89 129.5t144.5 90.5t196 34q124 0 227.5 -39t178.5 -111l-57 -112q-11 -18 -23 -26.5t-30 -8.5q-19 0 -42.5 16t-58 35.5t-81.5 36t-112 16.5q-60 0 -105.5 -15t-76.5 -42
t-46.5 -63.5t-15.5 -79.5q0 -55 29 -91.5t76.5 -62.5t108.5 -45.5t124.5 -41.5t124.5 -50t108.5 -71t76.5 -105t29 -151q0 -86 -26.5 -162.5t-77.5 -137t-125 -101t-169 -53.5l-16 -58q94 -20 133.5 -56.5t39.5 -90.5q0 -33 -17 -59.5t-47.5 -45t-73 -28.5t-93.5 -10
q-41 0 -77.5 7t-69.5 20l20 67q6 21 26 21z" />
    <glyph glyph-name="Tbar" unicode="&#x166;" horiz-adv-x="1218" 
d="M1175 1440v-195h-449v-393h319v-135h-319v-717h-233v717h-320v135h320v393h-450v195h1132z" />
    <glyph glyph-name="Uogonek" unicode="&#x172;" horiz-adv-x="1479" 
d="M905 -201q16 0 21 -14l33 -80q-32 -23 -79.5 -37t-101.5 -14q-94 0 -145.5 40t-51.5 106q0 51 32 98.5t88 85.5q-128 6 -229.5 53t-172 125t-108.5 182.5t-38 227.5v868h234v-867q0 -86 24 -156.5t69 -121t110.5 -78.5t148.5 -28t148.5 28t111 78t69.5 120.5t24 156.5
v868h233v-868q0 -127 -40.5 -235t-116.5 -186.5t-184.5 -123t-244.5 -44.5q-10 0 -19.5 0.5t-18.5 0.5q10 7 20.5 13.5t21.5 12.5l110 -13q-20 -11 -39.5 -26t-35.5 -33t-26 -39.5t-10 -45.5q0 -33 21.5 -52.5t59.5 -19.5q21 0 34 3t22 6t15 6t11 3z" />
    <glyph glyph-name="aogonek" unicode="&#x105;" horiz-adv-x="1005" 
d="M937 -198q16 0 21 -14l33 -80q-32 -23 -79.5 -37t-101.5 -14q-94 0 -145.5 40t-51.5 106q0 57 39 108.5t105 91.5q-28 7 -42 45l-21 83q-39 -36 -77 -63t-78.5 -46t-87 -28.5t-102.5 -9.5q-62 0 -115.5 17t-92.5 51.5t-61.5 85.5t-22.5 120q0 59 31.5 115t104 100.5
t191 73.5t292.5 33v68q0 110 -47 164t-138 54q-62 0 -104 -15.5t-73 -33.5t-55 -33.5t-51 -15.5q-22 0 -37.5 11.5t-25.5 28.5l-39 70q173 161 412 161q88 0 156.5 -28.5t115 -80.5t71 -123.5t24.5 -158.5v-648q-20 -11 -39.5 -26t-35.5 -33t-26 -39.5t-10 -45.5
q0 -33 21.5 -52.5t59.5 -19.5q21 0 34 3t22 6t15 6t11 3zM414 134q84 0 144.5 31.5t117.5 90.5v190q-115 -5 -194 -19t-128 -37t-70.5 -53.5t-21.5 -67.5q0 -36 11.5 -61.5t32 -42t48 -24t60.5 -7.5z" />
    <glyph glyph-name="c_h.dlig" horiz-adv-x="2094" 
d="M852 820q-10 -13 -19 -20t-26 -7t-35.5 12t-44 26.5t-61.5 26.5t-90 12q-70 0 -122.5 -25t-88 -71.5t-53 -113t-17.5 -149.5q0 -86 19 -153t54.5 -113t86 -70t113.5 -24q62 0 101 15t65 33t44.5 33t39.5 15q26 0 40 -20l61 -79q-37 -45 -82 -76t-95 -50.5t-104 -28
t-109 -8.5q-95 0 -177.5 35.5t-144 103t-97 165t-35.5 222.5q0 113 32 209.5t93.5 166.5t152.5 109.5t210 39.5q20 0 38.5 -1.5t36.5 -3.5q-24 47 -37 97t-13 101q0 71 25.5 132.5t75 106.5t121 71t163.5 26q66 0 117 -12.5t90.5 -28.5t71 -29.5t59.5 -14.5h6v-581
q63 62 138 99.5t175 37.5q84 0 147.5 -28t107 -79t65.5 -122.5t22 -157.5v-649h-214v649q0 103 -47.5 160t-144.5 57q-72 0 -133.5 -33t-115.5 -90v-743h-215v1375q-9 19 -27 34t-42 25t-53 15t-59 5q-57 0 -100.5 -17.5t-72 -47.5t-43 -70.5t-14.5 -86.5q0 -68 28.5 -132.5
t79.5 -119.5q59 -31 110 -82z" />
    <glyph glyph-name="c_k.dlig" horiz-adv-x="2015" 
d="M852 820q-10 -13 -19 -20t-26 -7t-35.5 12t-44 26.5t-61.5 26.5t-90 12q-70 0 -122.5 -25t-88 -71.5t-53 -113t-17.5 -149.5q0 -86 19 -153t54.5 -113t86 -70t113.5 -24q62 0 101 15t65 33t44.5 33t39.5 15q26 0 40 -20l61 -79q-37 -45 -82 -76t-95 -50.5t-104 -28
t-109 -8.5q-95 0 -177.5 35.5t-144 103t-97 165t-35.5 222.5q0 113 32 209.5t93.5 166.5t152.5 109.5t210 39.5q20 0 38.5 -1.5t36.5 -3.5q-24 47 -37 97t-13 101q0 71 25.5 132.5t75 106.5t121 71t163.5 26q68 0 119.5 -13.5t92 -29t72 -29t60.5 -13.5v-858h46q22 0 36 6
t29 25l286 327q15 20 33 30t46 10h195l-344 -388q-30 -39 -66 -62q20 -14 35 -31.5t29 -39.5l367 -499h-192q-26 0 -44.5 8.5t-32.5 31.5l-295 400q-15 23 -30 29.5t-45 6.5h-53v-476h-215v1375q-9 19 -27 34t-42 25t-53 15t-59 5q-57 0 -100.5 -17.5t-72 -47.5t-43 -70.5
t-14.5 -86.5q0 -68 28.5 -132.5t79.5 -119.5q59 -31 110 -82z" />
    <glyph glyph-name="c_t.dlig" horiz-adv-x="1681" 
d="M1358 1006h283v-155h-283v-579q0 -55 27.5 -84t71.5 -29q25 0 43.5 6.5t31.5 14t22.5 14t18.5 6.5q10 0 16 -4.5t13 -15.5l64 -105q-51 -44 -118.5 -67.5t-139.5 -23.5q-128 0 -196 71.5t-68 201.5v594h-113q-18 0 -30.5 11.5t-12.5 34.5v87l175 26q9 29 18 61.5t15.5 66
t11 66.5t4.5 62q0 44 -11.5 82t-37 66.5t-67.5 44.5t-102 16q-71 0 -125 -22t-91 -59t-55.5 -85t-18.5 -100q0 -58 24 -117t72 -112q60 -33 109 -82l-57 -78q-10 -13 -19 -20t-26 -7t-35.5 12t-44 26.5t-61.5 26.5t-90 12q-70 0 -122.5 -25t-88 -71.5t-53 -113t-17.5 -149.5
q0 -86 19 -153t54.5 -113t86 -70t113.5 -24q62 0 101 15t65 33t44.5 33t39.5 15q26 0 40 -20l61 -79q-37 -45 -82 -76t-95 -50.5t-104 -28t-109 -8.5q-95 0 -177.5 35.5t-144 103t-97 165t-35.5 222.5q0 113 32 209.5t93.5 166.5t152.5 109.5t210 39.5q41 0 79 -6
q-41 87 -41 178q0 69 24.5 133.5t73.5 114t123 79.5t172 30q96 0 165 -28.5t113 -75t65 -106t21 -122.5v-227z" />
    <glyph glyph-name="ccedilla_t.dlig" horiz-adv-x="1682" 
d="M1358 1006h283v-155h-283v-579q0 -55 27.5 -84t71.5 -29q25 0 43.5 6.5t31.5 14t22.5 14t18.5 6.5q10 0 16 -4.5t13 -15.5l64 -105q-51 -44 -118.5 -67.5t-139.5 -23.5q-128 0 -196 71.5t-68 201.5v594h-113q-18 0 -30.5 11.5t-12.5 34.5v87l175 26q9 29 18 61.5t15.5 66
t11 66.5t4.5 62q0 44 -11.5 82t-37 66.5t-67.5 44.5t-102 16q-71 0 -125 -22t-91 -59t-55.5 -85t-18.5 -100q0 -58 24 -117t72 -112q60 -33 109 -82l-57 -78q-10 -13 -19 -20t-26 -7t-35.5 12t-44 26.5t-61.5 26.5t-90 12q-70 0 -122.5 -25t-88 -71.5t-53 -113t-17.5 -149.5
q0 -86 19 -153t54.5 -113t86 -70t113.5 -24q62 0 101 15t65 33t44.5 33t39.5 15q26 0 40 -20l61 -79q-63 -76 -147.5 -113.5t-177.5 -46.5l-15 -55q94 -20 133.5 -56.5t39.5 -90.5q0 -33 -17 -59.5t-47.5 -45t-73 -28.5t-93.5 -10q-41 0 -77.5 7t-69.5 20l20 67q6 21 26 21
q7 0 14.5 -3t18 -6.5t24 -6.5t31.5 -3q38 0 56.5 14.5t18.5 35.5q0 34 -39 47.5t-114 24.5l42 127q-85 10 -157.5 49.5t-126 106.5t-83.5 159t-30 208q0 113 32 209.5t93.5 166.5t152.5 109.5t210 39.5q41 0 79 -6q-41 87 -41 178q0 69 24.5 133.5t73.5 114t123 79.5t172 30
q96 0 165 -28.5t113 -75t65 -106t21 -122.5v-227z" />
    <glyph glyph-name="dcaron" unicode="&#x10f;" horiz-adv-x="1128" 
d="M77 0zM867 0q-43 0 -55 41l-19 110q-32 -37 -68 -67.5t-77.5 -52.5t-88.5 -34t-101 -12q-86 0 -156 34.5t-120 100.5t-77.5 163.5t-27.5 223.5q0 114 30.5 211t87.5 168.5t138.5 112t182.5 40.5q90 0 153 -28.5t113 -79.5v549h215v-1480h-130zM530 158q82 0 141 35
t111 101v475q-46 57 -99.5 80.5t-116.5 23.5q-126 0 -197 -92.5t-71 -273.5q0 -94 16 -160.5t46 -108.5t73 -61t97 -19zM1289 1482q25 0 31 -11.5t6 -23.5q0 -9 -3.5 -25.5t-13.5 -45.5t-27 -75.5t-45 -115.5q-12 -25 -29.5 -32.5t-46.5 -7.5h-75l59 337h144z" />
    <glyph glyph-name="dcroat" unicode="&#x111;" horiz-adv-x="1129" 
d="M552 1272h232v208h214v-208h146v-136h-146v-1136h-130q-43 0 -55 41l-19 110q-63 -74 -145 -120t-189 -46q-86 0 -156.5 32t-120.5 96t-77.5 159t-27.5 221q0 114 30.5 209t87.5 164t138.5 107.5t183.5 38.5q90 0 153 -29t113 -80v233h-232v136zM532 158q81 0 141 35.5
t111 101.5v446q-46 58 -99.5 81.5t-117.5 23.5q-63 0 -112.5 -21t-84 -64.5t-52.5 -110t-18 -157.5q0 -94 15.5 -158t45.5 -103.5t73 -56.5t98 -17z" />
    <glyph glyph-name="eth" unicode="&#xf0;" horiz-adv-x="1137" 
d="M403 1063q-14 21 -9 40.5t27 32.5l87 55q-38 16 -80 30t-90 26q-14 4 -25.5 12.5t-18.5 21t-7.5 30t7.5 38.5l25 75q98 -16 190.5 -47t174.5 -79l171 117l42 -69q12 -20 7.5 -39t-24.5 -31l-87 -55q58 -50 106 -112.5t81.5 -139t52 -167t18.5 -196.5q0 -145 -32.5 -260
t-96 -195t-157 -122.5t-216.5 -42.5q-101 0 -187.5 33t-151 95.5t-101 152t-36.5 203.5q0 93 31.5 176t90.5 146t142.5 100t187.5 37q98 0 181 -38.5t146 -113.5q-21 119 -74.5 204t-144.5 145l-190 -131zM555 152q64 0 116.5 23.5t90.5 74t60.5 128.5t25.5 186
q-16 40 -40.5 76t-59 63.5t-79.5 43.5t-102 16q-69 0 -121.5 -23t-88 -62.5t-53.5 -93.5t-18 -115q0 -77 21 -136t58 -99.5t85.5 -61t104.5 -20.5z" />
    <glyph glyph-name="eogonek" unicode="&#x119;" horiz-adv-x="1062" 
d="M746 -198q16 0 21 -14l33 -80q-32 -23 -79.5 -37t-101.5 -14q-94 0 -145.5 40t-51.5 106q0 51 31.5 98t86.5 85q-101 5 -186 42.5t-147.5 106.5t-97.5 168.5t-35 227.5q0 106 33.5 198t96 160t152 107.5t202.5 39.5q94 0 174 -30.5t138 -89.5t90.5 -144.5t32.5 -194.5
q0 -50 -11 -67t-40 -17h-655q4 -87 27 -150.5t61.5 -105.5t92 -62.5t119.5 -20.5q63 0 109 14.5t80 32t58 32t44 14.5q26 0 40 -20l61 -79q-56 -66 -133.5 -103t-161.5 -51q-19 -11 -37 -25.5t-32.5 -32t-23 -38t-8.5 -42.5q0 -33 21.5 -52.5t59.5 -19.5q21 0 34 3t22 6
t15 6t11 3zM562 880q-117 0 -184 -67t-85 -188h507q0 54 -15.5 100.5t-45.5 81t-74.5 54t-102.5 19.5z" />
    <glyph glyph-name="g.salt" horiz-adv-x="1128" 
d="M997 1020v-953q0 -93 -33.5 -171t-96.5 -134.5t-154 -88.5t-206 -32q-130 0 -222 37t-152 91l50 82q18 32 56 32q21 0 41.5 -13.5t49.5 -29.5t69.5 -29.5t101.5 -13.5q70 0 123 20t88 55t53 82.5t18 102.5v96q-32 -36 -65 -62.5t-69 -44t-78 -26t-92 -8.5
q-93 0 -167.5 34.5t-126.5 100t-80 160.5t-28 216q0 109 30.5 203t87.5 163.5t138.5 109t183.5 39.5q97 0 163 -33t119 -93l13 67q12 41 55 41h130zM536 185q78 0 137 35t110 101v447q-45 57 -99 81t-118 24q-126 0 -196.5 -88.5t-70.5 -261.5q0 -177 62 -257.5t175 -80.5z
" />
    <glyph glyph-name="hcircumflex" unicode="&#x125;" horiz-adv-x="1122" 
d="M0 0zM131 0v1480h215v-581q63 62 138 99.5t175 37.5q84 0 147.5 -28t107 -79t65.5 -122.5t22 -157.5v-649h-214v649q0 103 -47.5 160t-144.5 57q-72 0 -133.5 -33t-115.5 -90v-743h-215zM574 1547h-156q-14 0 -33 5t-39 30l-99 121q-4 5 -7 9.5t-6 9.5q-3 -5 -6 -9.5
t-7 -9.5l-99 -121q-20 -25 -39 -30t-33 -5h-149l240 274h193z" />
    <glyph glyph-name="hbar" unicode="&#x127;" horiz-adv-x="1122" 
d="M-17 1282h148v198h214v-198h287v-136h-287v-275q63 63 138 100.5t175 37.5q84 0 148 -28t107.5 -79t65.5 -122t22 -157v-623h-215v623q0 103 -47.5 159.5t-144.5 56.5q-71 0 -133 -33t-116 -90v-716h-214v1146h-148v136z" />
    <glyph glyph-name="iogonek" unicode="&#x12f;" horiz-adv-x="495" 
d="M64 0zM355 1020v-1020h-215v1020h215zM391 1328q0 -29 -11.5 -55t-31.5 -45.5t-46.5 -31t-56.5 -11.5q-29 0 -54.5 11.5t-44.5 31t-30.5 45.5t-11.5 55q0 30 11.5 56t30.5 45.5t44.5 31t54.5 11.5q30 0 56.5 -11.5t46.5 -31t31.5 -45.5t11.5 -56zM388 -198q16 0 21 -14
l33 -80q-32 -23 -79.5 -37t-101.5 -14q-94 0 -145.5 40t-51.5 106q0 60 44 114.5t118 95.5l110 -13q-20 -11 -39.5 -26t-35.5 -33t-26 -39.5t-10 -45.5q0 -33 21.5 -52.5t59.5 -19.5q21 0 34 3t22 6t15 6t11 3z" />
    <glyph glyph-name="i_j.dlig" horiz-adv-x="1058" 
d="M336 1020v-649q0 -103 47.5 -159.5t144.5 -56.5q33 0 59 5t47 17t40 31t39 47v765h215v-1005q0 -83 -22.5 -151.5t-69.5 -118.5t-120.5 -77.5t-175.5 -27.5q-35 0 -70 4.5t-64 14.5l15 117q2 10 6 15t12.5 7.5t22 3t34.5 0.5q109 0 163 49t54 164v81
q-50 -55 -108.5 -82.5t-142.5 -27.5q-86 0 -149.5 28t-106.5 78.5t-64 121.5t-21 157v649h215zM968 1328q0 -29 -11.5 -55t-31.5 -45.5t-46.5 -31t-55.5 -11.5t-54.5 11.5t-45 31t-31 45.5t-11.5 55q0 30 11.5 56t31 45.5t45 31t54.5 11.5t55.5 -11.5t46.5 -31t31.5 -45.5
t11.5 -56zM378 1328q0 -29 -11.5 -55t-31.5 -45.5t-46 -31t-56 -11.5q-29 0 -54.5 11.5t-45 31t-30.5 45.5t-11 55q0 30 11 56t30.5 45.5t45 31t54.5 11.5q30 0 56 -11.5t46 -31t31.5 -45.5t11.5 -56z" />
    <glyph glyph-name="uni0237" unicode="&#x237;" horiz-adv-x="496" 
d="M355 1020v-1073q0 -64 -17 -120.5t-53.5 -98.5t-95 -66t-142.5 -24q-34 0 -62.5 5t-57.5 14l8 117q2 10 6 15t11.5 7.5t19.5 3t31 0.5q38 0 64.5 8t43 25.5t23.5 45.5t7 68v1073h214z" />
    <glyph glyph-name="kgreenlandic" unicode="&#x138;" horiz-adv-x="1044" 
d="M346 1020v-398h46q22 0 36 6t29 25l286 327q15 20 33 30t46 10h195l-344 -388q-30 -39 -66 -62q20 -14 35 -31.5t29 -39.5l367 -499h-192q-26 0 -44.5 8.5t-32.5 31.5l-295 400q-15 23 -30 29.5t-45 6.5h-53v-476h-215v1020h215z" />
    <glyph glyph-name="lslash" unicode="&#x142;" horiz-adv-x="639" 
d="M429 1480v-534l183 76v-124q0 -37 -31 -50l-152 -66v-782h-215v705l-173 -72v128q0 31 28 44l145 64v611h215z" />
    <glyph glyph-name="lcaron" unicode="&#x13e;" horiz-adv-x="485" 
d="M135 0zM350 1480v-1480h-215v1480h215zM657 1482q25 0 31 -11.5t6 -23.5q0 -9 -3.5 -25.5t-13.5 -45.5t-27 -75.5t-45 -115.5q-12 -25 -29.5 -32.5t-46.5 -7.5h-75l59 337h144z" />
    <glyph glyph-name="eng" unicode="&#x14b;" horiz-adv-x="1122" 
d="M131 0v1020h130q44 0 56 -41l15 -95q32 34 67.5 62t75.5 48t85.5 31t98.5 11q84 0 147.5 -28t107 -79t65.5 -122.5t22 -157.5v-629q0 -85 -20.5 -155.5t-64 -121t-110.5 -78.5t-160 -28q-51 0 -91.5 9t-86.5 29l23 95q7 26 20 34t28 8q14 0 33.5 -6.5t54.5 -6.5
q79 0 119.5 48t40.5 148v654q0 103 -47.5 160t-144.5 57q-72 0 -133.5 -33t-115.5 -90v-743h-215z" />
    <glyph glyph-name="thorn" unicode="&#xfe;" horiz-adv-x="1129" 
d="M131 -339v1819h215v-595q63 69 141.5 110t182.5 41q86 0 156 -34t120 -99.5t77.5 -162.5t27.5 -223q0 -113 -30.5 -210.5t-87.5 -169t-138 -112t-183 -40.5q-91 0 -153.5 33t-112.5 90v-447h-215zM598 866q-83 0 -142 -35.5t-110 -101.5v-473q45 -58 98.5 -81.5
t118.5 -23.5q126 0 196.5 92t70.5 274q0 94 -16 160.5t-46 108.5t-73 61t-97 19z" />
    <glyph glyph-name="scedilla" unicode="&#x15f;" horiz-adv-x="873" 
d="M299 -242q7 0 14.5 -3t18 -6.5t24 -6.5t31.5 -3q38 0 56.5 14.5t18.5 35.5q0 34 -39 47.5t-114 24.5l41 126q-89 9 -165 41.5t-128 80.5l50 82q9 15 22.5 23.5t33.5 8.5q21 0 41.5 -13.5t48 -29.5t66.5 -29.5t97 -13.5q48 0 83 11.5t58 31.5t34 45.5t11 54.5q0 39 -22 64
t-58.5 43t-83 32t-94.5 30t-94.5 37t-83 53.5t-58.5 79t-22 113.5q0 61 24.5 116t72 97t117 66.5t160.5 24.5q103 0 187 -33t141 -90l-48 -78q-8 -14 -18 -20t-25 -6q-17 0 -37 10.5t-47 23.5t-63.5 23.5t-85.5 10.5q-40 0 -72.5 -9.5t-55 -27t-34.5 -41t-12 -50.5
q0 -36 22 -60t58 -41.5t82 -31.5t94 -30t94 -37t82 -51.5t58 -74t22 -105.5q0 -65 -21.5 -122t-63 -100.5t-103 -71.5t-141.5 -36l-15 -55q94 -20 133.5 -56.5t39.5 -90.5q0 -33 -17 -59.5t-47.5 -45t-73 -28.5t-93.5 -10q-41 0 -77.5 7t-69.5 20l20 67q6 21 26 21z" />
    <glyph glyph-name="s_t.dlig" horiz-adv-x="1613" 
d="M740 835q-8 -14 -18 -20t-25 -6q-17 0 -37 10.5t-47 23.5t-63.5 23.5t-85.5 10.5q-40 0 -72.5 -9.5t-55 -27t-34.5 -41t-12 -50.5q0 -36 22 -60t58 -41.5t82 -31.5t94 -30t94 -37t82 -51.5t58 -74t22 -105.5q0 -72 -26 -133t-76 -106t-124.5 -70t-170.5 -25
q-53 0 -102.5 9.5t-94 26t-83 39.5t-68.5 50l50 82q9 15 22.5 23.5t33.5 8.5q21 0 41.5 -13.5t48 -29.5t66.5 -29.5t97 -13.5q48 0 83 11.5t58 31.5t34 45.5t11 54.5q0 39 -22 64t-58.5 43t-83 32t-94.5 30t-94.5 37t-83 53.5t-58.5 79t-22 113.5q0 61 24.5 116t72 97
t117 66.5t160.5 24.5q54 0 107 -11q-38 84 -38 175q0 73 23 139.5t70.5 116.5t120.5 79.5t173 29.5q97 0 168 -29t117 -76t68 -107t22 -123v-224h283v-155h-283v-579q0 -55 27 -84t72 -29q25 0 43 6.5t31 14t22.5 14t18.5 6.5q18 0 29 -20l64 -105q-50 -44 -118 -67.5
t-140 -23.5q-127 0 -195.5 71.5t-68.5 201.5v594h-112q-18 0 -31 11.5t-13 34.5v87l175 26q9 28 18 60.5t15.5 65.5t11 65.5t4.5 61.5q0 44 -12.5 82.5t-40 67.5t-71 45.5t-104.5 16.5q-72 0 -125 -22t-88.5 -59.5t-53 -87t-17.5 -105.5q0 -69 31 -135t90 -123l35 -30z" />
    <glyph glyph-name="glyph288" horiz-adv-x="1614" 
d="M299 -242q7 0 14.5 -3t18 -6.5t24 -6.5t31.5 -3q38 0 56.5 14.5t18.5 35.5q0 34 -39 47.5t-114 24.5l41 126q-89 9 -165 41.5t-128 80.5l50 82q9 15 22.5 23.5t33.5 8.5q21 0 41.5 -13.5t48 -29.5t66.5 -29.5t97 -13.5q48 0 83 11.5t58 31.5t34 45.5t11 54.5q0 39 -22 64
t-58.5 43t-83 32t-94.5 30t-94.5 37t-83 53.5t-58.5 79t-22 113.5q0 61 24.5 116t72 97t117 66.5t160.5 24.5q54 0 107 -11q-38 84 -38 175q0 73 23 139.5t70.5 116.5t120.5 79.5t173 29.5q97 0 168 -29t117 -76t68 -107t22 -123v-224h283v-155h-283v-579q0 -55 27 -84
t72 -29q25 0 43 6.5t31 14t22.5 14t18.5 6.5q18 0 29 -20l64 -105q-50 -44 -118 -67.5t-140 -23.5q-127 0 -195.5 71.5t-68.5 201.5v594h-112q-18 0 -31 11.5t-13 34.5v87l175 26q9 28 18 60.5t15.5 65.5t11 65.5t4.5 61.5q0 44 -12.5 82.5t-40 67.5t-71 45.5t-104.5 16.5
q-72 0 -125 -22t-88.5 -59.5t-53 -87t-17.5 -105.5q0 -69 31 -135t90 -123l35 -30l-48 -78q-8 -14 -18 -20t-25 -6q-17 0 -37 10.5t-47 23.5t-63.5 23.5t-85.5 10.5q-40 0 -72.5 -9.5t-55 -27t-34.5 -41t-12 -50.5q0 -36 22 -60t58 -41.5t82 -31.5t94 -30t94 -37t82 -51.5
t58 -74t22 -105.5q0 -65 -21.5 -122t-63 -100.5t-103 -71.5t-141.5 -36l-15 -55q94 -20 133.5 -56.5t39.5 -90.5q0 -33 -17 -59.5t-47.5 -45t-73 -28.5t-93.5 -10q-41 0 -77.5 7t-69.5 20l20 67q6 21 26 21z" />
    <glyph glyph-name="longs" unicode="&#x17f;" horiz-adv-x="587" 
d="M201 0v849l-100 14q-25 5 -40.5 18t-15.5 37v88h156v86q0 87 25.5 156t73.5 117t116 73.5t152 25.5q67 0 129 -20l-7 -112q-1 -11 -8 -16.5t-18.5 -7.5t-27 -2h-32.5q-45 0 -80 -12t-59 -38t-36.5 -68t-12.5 -103v-1085h-215z" />
    <glyph glyph-name="tcaron" unicode="&#x165;" horiz-adv-x="730" 
d="M37 0zM457 -16q-127 0 -195.5 71.5t-68.5 201.5v594h-112q-18 0 -31 11.5t-13 34.5v87l165 24l47 295q5 17 17 27.5t32 10.5h110v-335h283v-155h-283v-579q0 -55 27 -84t72 -29q25 0 43 6.5t31 14t22.5 14t18.5 6.5q18 0 29 -20l64 -105q-50 -44 -118 -67.5t-140 -23.5z
M801 1482q25 0 31 -11.5t6 -23.5q0 -9 -3.5 -25.5t-13.5 -45.5t-27 -75.5t-45 -115.5q-12 -25 -29.5 -32.5t-46.5 -7.5h-75l59 337h144z" />
    <glyph glyph-name="tbar" unicode="&#x167;" horiz-adv-x="739" 
d="M61 693h136v158h-112q-18 0 -31 11.5t-13 34.5v87l165 24l47 295q5 17 17 27.5t32 10.5h110v-335h283v-155h-283v-158h287v-135h-287v-286q0 -55 27 -84t72 -29q25 0 43 6.5t31 14t22.5 14t18.5 6.5q18 0 29 -20l64 -105q-50 -44 -118 -67.5t-140 -23.5
q-127 0 -195.5 71.5t-68.5 201.5v301h-136v135z" />
    <glyph glyph-name="uogonek" unicode="&#x173;" horiz-adv-x="1122" 
d="M1043 -198q16 0 21 -14l33 -80q-32 -23 -79.5 -37t-101.5 -14q-94 0 -145.5 40t-51.5 106q0 56 37.5 106.5t101.5 90.5q-40 0 -52 41l-16 95q-65 -68 -143.5 -110t-182.5 -42q-84 0 -148 28t-107.5 79t-65.5 122.5t-22 157.5v649h215v-649q0 -103 47.5 -160t144.5 -57
q71 0 132.5 32.5t115.5 89.5v744h215v-1020q-20 -11 -39.5 -26t-35.5 -33t-26 -39.5t-10 -45.5q0 -33 21.5 -52.5t59.5 -19.5q21 0 34 3t22 6t15 6t11 3z" />
    <glyph glyph-name="ordfeminine.case" horiz-adv-x="812" 
d="M710 841h-119q-17 0 -28.5 8.5t-16.5 22.5l-32 89h-216l-32 -89q-4 -12 -15.5 -21.5t-28.5 -9.5h-121l236 599h138zM337 1072h138l-54 151q-9 21 -15 50q-7 -31 -15 -51z" />
    <glyph glyph-name="a.superior" horiz-adv-x="562" 
d="M422 916q-21 0 -31.5 6t-18.5 25l-11 29q-20 -17 -38.5 -29.5t-38 -21t-41.5 -13t-49 -4.5q-71 0 -113.5 36.5t-42.5 108.5q0 28 14 57t49.5 53t94.5 40.5t149 18.5v21q0 46 -20 66t-55 20q-28 0 -46.5 -6t-32.5 -13.5t-27 -13.5t-31 -6q-15 0 -26 8.5t-18 19.5l-27 50
q47 42 104 62t123 20q47 0 84.5 -15.5t63.5 -43t40 -65.5t14 -83v-327h-69zM241 1012q32 0 56 11t48 36v70q-48 -2 -79.5 -8t-50 -15t-26 -20.5t-7.5 -24.5q0 -26 15.5 -37.5t43.5 -11.5z" />
    <glyph glyph-name="b.superior" horiz-adv-x="620" 
d="M228 1384q29 29 66 46.5t88 17.5q41 0 76 -18t60.5 -52t40 -83.5t14.5 -112.5q0 -59 -16.5 -109t-46 -87t-70.5 -57.5t-91 -20.5q-48 0 -78 18t-55 47l-3 -28q-4 -17 -13 -23t-23 -6h-100v756h151v-288zM326 1329q-30 0 -52.5 -12t-45.5 -38v-221q18 -19 39.5 -26
t45.5 -7q45 0 74 35.5t29 121.5q0 82 -24 114.5t-66 32.5z" />
    <glyph glyph-name="c.superior" horiz-adv-x="533" 
d="M455 1314q-7 -8 -13.5 -13t-18.5 -5q-11 0 -20.5 5.5t-21 12.5t-27 12.5t-39.5 5.5q-60 0 -87.5 -40.5t-27.5 -112.5q0 -75 30 -114.5t82 -39.5q28 0 44.5 6.5t28 15t20.5 15t23 6.5q18 0 27 -14l44 -56q-24 -28 -50 -45.5t-54 -27.5t-56 -13.5t-55 -3.5q-48 0 -91.5 18
t-76 53t-52 85t-19.5 115q0 57 16.5 106t49.5 85.5t81.5 57t112.5 20.5q61 0 107 -20t83 -58z" />
    <glyph glyph-name="d.superior" horiz-adv-x="620" 
d="M450 916q-29 0 -37 26l-8 46q-32 -36 -71.5 -58t-95.5 -22q-41 0 -76 18t-60.5 52.5t-39.5 84.5t-14 113q0 59 16 109.5t45.5 87t70.5 57t92 20.5q41 0 69 -12t51 -32v266h151v-756h-93zM298 1029q29 0 51.5 12t42.5 36v221q-19 20 -40.5 28t-44.5 8q-46 0 -75 -36
t-29 -122q0 -41 6.5 -69.5t18.5 -45.5t29.5 -24.5t40.5 -7.5z" />
    <glyph glyph-name="e.superior" horiz-adv-x="583" 
d="M302 1448q51 0 94 -16t74 -47t48 -75.5t17 -101.5q0 -35 -6.5 -47t-27.5 -12h-305q8 -65 41 -93.5t85 -28.5q28 0 48 6.5t35.5 14t28.5 14t27 6.5q18 0 27 -14l44 -56q-24 -28 -51.5 -45.5t-57 -27.5t-58.5 -13.5t-56 -3.5q-55 0 -103 18t-84 53t-56.5 88t-20.5 122
q0 52 18 99.5t51 82.5t80.5 56t107.5 21zM305 1339q-46 0 -72.5 -25t-34.5 -73h202q0 18 -5 36t-16.5 31.5t-29.5 22t-44 8.5z" />
    <glyph glyph-name="f.superior" horiz-adv-x="406" 
d="M110 916v415l-37 8q-17 4 -27.5 12.5t-10.5 25.5v62h75v30q0 90 54.5 143.5t152.5 53.5q19 0 35.5 -2t33.5 -7l-4 -77q-1 -17 -11.5 -23t-33.5 -6q-38 0 -59.5 -18t-21.5 -70v-24h124v-108h-120v-415h-150z" />
    <glyph glyph-name="g.superior" horiz-adv-x="580" 
d="M268 1450q68 0 118 -26h155v-58q0 -25 -31 -32l-39 -9q3 -11 5 -22.5t2 -23.5q0 -39 -16 -70.5t-44.5 -53.5t-67 -34t-82.5 -12q-13 0 -25.5 1t-23.5 3q-18 -11 -18 -24q0 -18 24.5 -22.5t61 -6.5t79.5 -4t79.5 -14.5t61 -40t24.5 -77.5q0 -36 -17 -69.5t-50 -60
t-81.5 -42.5t-110.5 -16q-61 0 -105.5 11.5t-73.5 30.5t-43 43.5t-14 51.5q0 35 20 58t55 37q-19 11 -29.5 29.5t-10.5 47.5q0 23 16.5 49.5t52.5 43.5q-41 22 -64 57.5t-23 83.5q0 40 16.5 71.5t45.5 53.5t68 34t85 12zM392 899q0 18 -18 25.5t-46 10.5t-62.5 3.5
t-67.5 4.5q-32 -21 -32 -47q0 -12 5 -22.5t17.5 -18.5t33.5 -12.5t53 -4.5q61 0 89 18.5t28 42.5zM268 1206q40 0 58 18.5t18 49.5q0 32 -18 50.5t-58 18.5q-41 0 -59 -18.5t-18 -50.5q0 -30 18 -49t59 -19z" />
    <glyph glyph-name="h.superior" horiz-adv-x="619" 
d="M77 916v756h151v-280q29 25 62 40.5t81 15.5q43 0 76 -15t55.5 -41.5t34 -63.5t11.5 -80v-332h-151v332q0 39 -18.5 60t-54.5 21q-27 0 -51 -11.5t-45 -30.5v-371h-151z" />
    <glyph glyph-name="i.superior" horiz-adv-x="301" 
d="M226 1413v-497h-151v497h151zM245 1583q0 -19 -7.5 -35.5t-20.5 -29t-30 -20t-36 -7.5q-18 0 -34.5 7.5t-29 20t-19.5 29t-7 35.5t7 36t19.5 30t29 20t34.5 7q19 0 36 -7t30 -20t20.5 -30t7.5 -36z" />
    <glyph glyph-name="j.superior" horiz-adv-x="302" 
d="M226 1413v-497q0 -37 -9 -69.5t-30 -57t-55.5 -39t-85.5 -14.5q-35 0 -69 9l5 83q1 11 7 16t25 5q18 0 30 3t19 10.5t9.5 20.5t2.5 33v497h151zM244 1583q0 -19 -7.5 -35.5t-20 -29t-29.5 -20t-36 -7.5q-18 0 -34.5 7.5t-29 20t-19.5 29t-7 35.5t7 36t19.5 30t29 20
t34.5 7q19 0 36 -7t29.5 -20t20 -30t7.5 -36z" />
    <glyph glyph-name="k.superior" horiz-adv-x="607" 
d="M228 1672v-423h23q14 0 22.5 4t14.5 15l105 146q11 26 49 26h138l-140 -186q-17 -28 -45 -45q24 -11 39 -43l153 -250h-137q-17 0 -30.5 5.5t-18.5 20.5l-106 185q-5 14 -13.5 17t-23.5 3h-30v-231h-151v756h151z" />
    <glyph glyph-name="l.superior" horiz-adv-x="305" 
d="M228 1672v-756h-151v756h151z" />
    <glyph glyph-name="m.superior" horiz-adv-x="902" 
d="M77 916v524h94q26 0 34 -28l4 -35q28 30 60.5 50.5t82.5 20.5q48 0 78.5 -24.5t47.5 -66.5q26 49 72 70t96 21q90 0 137 -52t47 -148v-332h-150v332q0 81 -73 81q-33 0 -55 -21t-22 -60v-332h-151v332q0 40 -17 60.5t-55 20.5q-23 0 -42.5 -10t-36.5 -27v-376h-151z" />
    <glyph glyph-name="uni207F" unicode="&#x207f;" horiz-adv-x="618" 
d="M77 916v524h80q29 0 40 -31l8 -38q33 34 71 55.5t94 21.5q43 0 76 -15t55.5 -41.5t34 -63t11.5 -79.5v-333h-150v333q0 79 -74 79q-26 0 -50 -11t-46 -31v-370h-150z" />
    <glyph glyph-name="o.superior" horiz-adv-x="621" 
d="M311 1448q59 0 108 -18.5t84 -53.5t54 -85t19 -112q0 -63 -19 -113t-54 -85t-84 -54t-108 -19t-108 19t-84 54t-54.5 85t-19.5 113q0 62 19.5 112t54.5 85t84 53.5t108 18.5zM311 1025q57 0 83 37.5t26 115.5t-26 115.5t-83 37.5q-111 0 -111 -153t111 -153z" />
    <glyph glyph-name="p.superior" horiz-adv-x="620" 
d="M77 750v690h94q31 0 37 -26l6 -44q32 35 72 57.5t97 22.5q41 0 76 -18t60.5 -52.5t39.5 -84.5t14 -113q0 -59 -16 -109t-45.5 -87t-71 -57.5t-91.5 -20.5q-42 0 -70 11.5t-51 31.5v-201h-151zM330 1329q-35 0 -58 -13t-44 -37v-220q19 -20 40.5 -27t44.5 -7
q46 0 75.5 35.5t29.5 121.5q0 82 -24 114.5t-64 32.5z" />
    <glyph glyph-name="q.superior" horiz-adv-x="620" 
d="M542 1440v-690h-151v223q-30 -29 -67 -47t-87 -18q-41 0 -76 18t-60.5 52.5t-39.5 84.5t-14 113q0 59 16 109.5t45.5 87t71 57t91.5 20.5q48 0 79 -16t57 -42l5 22q9 26 37 26h93zM293 1029q31 0 54 12.5t44 36.5v221q-19 19 -40 27t-44 8q-50 0 -77.5 -37t-27.5 -121
q0 -41 7 -69.5t19 -45.5t28.5 -24.5t36.5 -7.5z" />
    <glyph glyph-name="r.superior" horiz-adv-x="419" 
d="M77 916v524h90q23 0 31 -8.5t13 -28.5l4 -51q25 45 57.5 71.5t75.5 26.5q35 0 58 -17l-10 -116q-4 -20 -24 -20q-8 0 -23.5 2.5t-28.5 2.5q-36 0 -57 -19t-35 -53v-314h-151z" />
    <glyph glyph-name="s.superior" horiz-adv-x="490" 
d="M405 1324q-6 -9 -12 -13t-17 -4t-21.5 4.5t-24 10.5t-30 10.5t-37.5 4.5q-31 0 -47.5 -11t-16.5 -31q0 -19 18 -30.5t45 -20.5t59 -18.5t59 -26.5t45 -43.5t18 -68.5q0 -79 -55.5 -129t-162.5 -50q-54 0 -105 18.5t-82 45.5l36 59q6 11 15 16.5t23 5.5q13 0 24 -6
t23.5 -13.5t30 -13.5t43.5 -6q38 0 53.5 14t15.5 31q0 21 -18 32t-45.5 20t-59.5 18.5t-59.5 27.5t-45.5 47.5t-18 77.5q0 33 13 63.5t38.5 53t64 36t89.5 13.5q56 0 102.5 -19.5t75.5 -48.5z" />
    <glyph glyph-name="t.superior" horiz-adv-x="438" 
d="M258 908q-74 0 -112.5 42t-38.5 111v270h-46q-12 0 -20.5 8t-8.5 23v62l84 16l30 127q5 25 33 25h78v-153h132v-108h-132v-259q0 -18 9.5 -29.5t26.5 -11.5q19 0 26.5 5.5t17.5 5.5q7 0 11 -3t9 -11l45 -74q-29 -23 -66.5 -34.5t-77.5 -11.5z" />
    <glyph glyph-name="u.superior" horiz-adv-x="618" 
d="M221 1440v-333q0 -38 18.5 -59t54.5 -21q26 0 50 10.5t46 30.5v372h151v-524h-93q-28 0 -37 26l-7 34q-32 -30 -68 -49t-88 -19q-43 0 -76 15t-55.5 41.5t-34 63t-11.5 79.5v333h150z" />
    <glyph glyph-name="v.superior" horiz-adv-x="554" 
d="M345 916h-137l-203 524h125q16 0 28 -7.5t14 -20.5l82 -233q7 -30 13 -58.5t11 -57.5q6 29 12.5 57.5t14.5 59.5l84 232q3 13 14 20.5t26 7.5h120z" />
    <glyph glyph-name="w.superior" horiz-adv-x="861" 
d="M23 1440h124q17 0 29 -8.5t14 -25.5l59 -225q4 -27 8.5 -51.5t9.5 -48.5q10 47 25 100l71 227q5 16 16 24.5t25 8.5h60q35 0 44 -34l69 -226q6 -26 11 -50.5t10 -47.5l19 98l63 226q3 17 15 25t26 8h118l-166 -524h-119q-20 0 -27 27l-80 259q-5 17 -9 33t-7 33
q-6 -36 -15 -68l-81 -257q-8 -27 -32 -27h-117z" />
    <glyph glyph-name="x.superior" horiz-adv-x="592" 
d="M194 1187l-167 253h145q16 0 23.5 -4t13.5 -15l97 -161q6 22 16 43l71 116q10 21 33 21h139l-169 -246l176 -278h-146q-16 0 -25.5 8t-15.5 19l-97 166q-3 -11 -6.5 -20t-7.5 -17l-80 -129q-5 -11 -15 -19t-25 -8h-134z" />
    <glyph glyph-name="y.superior" horiz-adv-x="555" 
d="M276 790q-10 -23 -20.5 -31.5t-31.5 -8.5h-113l99 212l-208 478h134q17 0 26.5 -8.5t14.5 -19.5l90 -223q5 -17 9.5 -32.5t8.5 -32.5q5 17 10.5 34t11.5 34l88 220q5 12 16 20t25 8h116z" />
    <glyph glyph-name="z.superior" horiz-adv-x="506" 
d="M459 1377q0 -17 -5.5 -33t-16.5 -29l-221 -282h238v-117h-412v65q0 9 5.5 24.5t19.5 32.5l220 285h-230v117h402v-63z" />
    <glyph glyph-name="grave.case" 
d="M244 1857q18 0 31.5 -1t24 -5t19.5 -11.5t19 -19.5l222 -273h-155q-26 0 -40.5 3t-31.5 19l-316 288h227z" />
    <glyph glyph-name="acute.case" 
d="M814 1857l-325 -286q-18 -16 -34 -20t-40 -4h-155l220 273q9 13 18 20t20 11t24.5 5t31.5 1h240z" />
    <glyph glyph-name="circumflex.case" 
d="M740 1547h-156q-14 0 -33 5t-39 30l-99 121q-4 5 -7 9.5t-6 9.5q-3 -5 -6 -9.5t-7 -9.5l-99 -121q-20 -25 -39 -30t-33 -5h-149l240 274h193z" />
    <glyph glyph-name="caron.case" 
d="M60 1821h156q13 0 32.5 -4t33.5 -23l105 -132l13 -20l13 20l104 131q15 20 34 24t33 4h156l-240 -274h-200z" />
    <glyph glyph-name="uni0315" unicode="&#x315;" 
d="M491 1482q25 0 31 -11.5t6 -23.5q0 -9 -3.5 -25.5t-13.5 -45.5t-27 -75.5t-45 -115.5q-12 -25 -29.5 -32.5t-46.5 -7.5h-75l59 337h144z" />
    <glyph glyph-name="tilde.case" 
d="M525 1683q23 0 40 9t28 23t16.5 31t5.5 34h131q0 -47 -13 -90t-37.5 -76t-61 -53t-83.5 -20q-48 0 -85 16t-67.5 35.5t-57 35.5t-53.5 16q-23 0 -39.5 -9t-27.5 -23t-16.5 -31.5t-5.5 -34.5h-132q0 46 13 89.5t38 77t61.5 53.5t83.5 20q48 0 85 -16t67.5 -35.5
t56.5 -35.5t53 -16z" />
    <glyph glyph-name="dieresis.case" 
d="M308 1667q0 -25 -10 -47t-27 -38.5t-40 -26t-48 -9.5q-24 0 -46 9.5t-38.5 26t-26 38.5t-9.5 47t9.5 47.5t26 39.5t38.5 27t46 10q25 0 48 -10t40 -27t27 -39.5t10 -47.5zM737 1667q0 -25 -10 -47t-26.5 -38.5t-38.5 -26t-47 -9.5q-26 0 -48 9.5t-39 26t-26.5 38.5
t-9.5 47t9.5 47.5t26.5 39.5t39 27t48 10q25 0 47 -10t38.5 -27t26.5 -39.5t10 -47.5z" />
    <glyph glyph-name="macron.case" 
d="M110 1704h580v-126h-580v126z" />
    <glyph glyph-name="breve.case" 
d="M400 1545q-73 0 -131.5 16t-99.5 49.5t-63 84t-22 119.5h165q0 -65 33 -101.5t118 -36.5q84 0 117 36.5t33 101.5h165q0 -63 -22 -113t-63 -84.5t-99 -53t-131 -18.5z" />
    <glyph glyph-name="ring.case" 
d="M201 1702q0 41 16 75.5t43 59t63 38t75 13.5q41 0 77.5 -13.5t64 -38t43.5 -59t16 -75.5q0 -40 -16 -73.5t-43.5 -57.5t-64 -37t-77.5 -13q-39 0 -75 13t-63 37t-43 57.5t-16 73.5zM305 1702q0 -41 25.5 -67.5t70.5 -26.5q42 0 68 26.5t26 67.5q0 43 -26 69t-68 26
q-45 0 -70.5 -26t-25.5 -69z" />
    <glyph glyph-name="glyph337" 
d="M188 1321q0 44 17 80.5t46 62.5t67.5 40.5t80.5 14.5q43 0 82 -14.5t68 -40.5t46.5 -62.5t17.5 -80.5q0 -43 -17.5 -79t-46.5 -61.5t-68 -39.5t-82 -14q-42 0 -80.5 14t-67.5 39.5t-46 61.5t-17 79zM306 1321q0 -42 25 -68t70 -26q42 0 68 26t26 68q0 43 -26 69t-68 26
q-45 0 -70 -26t-25 -69zM771 1870l-241 -260q-16 -17 -31.5 -24.5t-40.5 -7.5h-129l146 243q14 25 32 37t55 12h209z" />
    <glyph glyph-name="glyph338" 
d="M211 1664q0 39 15 71t40.5 55.5t59.5 36t71 12.5q39 0 73.5 -12.5t60.5 -36t41 -55.5t15 -71q0 -38 -15 -70t-41 -54.5t-60.5 -35t-73.5 -12.5q-37 0 -71 12.5t-59.5 35t-40.5 54.5t-15 70zM308 1664q0 -39 24 -64.5t67 -25.5q41 0 66 25.5t25 64.5q0 42 -25 66.5
t-66 24.5q-43 0 -67 -24.5t-24 -66.5zM825 2118l-299 -211q-18 -16 -34 -19.5t-40 -3.5h-155l194 197q9 13 18 20t20 11t24.5 5t31.5 1h240z" />
    <glyph glyph-name="hungarumlaut.case" 
d="M527 1821l-206 -242q-17 -15 -32 -23.5t-40 -8.5h-102l143 225q14 23 37.5 36t59.5 13h140zM913 1821l-254 -242q-18 -16 -36 -24t-43 -8h-115l184 225q18 23 42 36t60 13h162z" />
    <glyph glyph-name="dotaccent.case" 
d="M537 1692q0 -27 -11 -51.5t-30.5 -43.5t-45 -30t-53.5 -11q-27 0 -51 11t-42.5 30t-29.5 43.5t-11 51.5q0 28 11 53.5t29.5 44.5t42.5 30t51 11q28 0 53.5 -11t45 -30t30.5 -44.5t11 -53.5z" />
    <glyph glyph-name="glyph341" 
d="M467 -93q26 0 32 -11.5t6 -23.5q0 -9 -2.5 -25.5t-9.5 -42.5t-20.5 -63.5t-34.5 -88.5q-11 -25 -28.5 -33t-46.5 -8h-76l50 296h130z" />
    <glyph glyph-name="glyph342" 
d="M492 1163h-188l103 282h135z" />
    <glyph glyph-name="Gamma" unicode="&#x393;" horiz-adv-x="1099" 
d="M1069 1257h-663v-1257h-235v1440h898v-183z" />
    <glyph glyph-name="uni0394" unicode="&#x394;" horiz-adv-x="1377" 
d="M22 67q0 32 7 66.5t21 70.5l522 1236h237l516 -1232q29 -70 29 -140v-68h-1332v67zM263 187h827l-356 879q-13 32 -26.5 76t-26.5 95q-12 -52 -26 -95.5t-27 -76.5z" />
    <glyph glyph-name="Theta" unicode="&#x398;" horiz-adv-x="1609" 
d="M530 820h547v-189h-547v189zM1524 720q0 -160 -52 -295t-146.5 -232.5t-227 -152.5t-294.5 -55q-161 0 -293.5 55t-227.5 152.5t-147 232.5t-52 295t52 295t147 233t227.5 153t293.5 55q162 0 294.5 -55t227 -153t146.5 -233t52 -295zM1285 720q0 124 -33.5 223t-96 168
t-151.5 106t-200 37q-110 0 -199 -37t-152 -106t-97 -168t-34 -223q0 -125 34 -224t97 -167.5t152 -105t199 -36.5q111 0 200 36.5t151.5 105t96 167.5t33.5 224z" />
    <glyph glyph-name="Lambda" unicode="&#x39b;" horiz-adv-x="1370" 
d="M1374 0h-201q-31 0 -50 15.5t-29 38.5l-370 940q-15 38 -29.5 84.5t-26.5 97.5q-11 -51 -24 -97.5t-27 -84.5l-370 -940q-8 -20 -28 -37t-49 -17h-175l584 1440h211z" />
    <glyph glyph-name="Xi" unicode="&#x39e;" horiz-adv-x="1242" 
d="M1166 1440v-196h-1086v196h1086zM1166 196v-196h-1086v196h1086zM328 827h587v-203h-587v203z" />
    <glyph glyph-name="Pi" unicode="&#x3a0;" horiz-adv-x="1535" 
d="M1363 0h-234v1257h-723v-1257h-235v1440h1192v-1440z" />
    <glyph glyph-name="Sigma" unicode="&#x3a3;" horiz-adv-x="1221" 
d="M769 740q0 -24 -11 -51.5t-49 -71.5l-294 -355q-32 -36 -53.5 -56t-43.5 -34q40 6 75 8.5t65 2.5h691v-183h-1086v88q0 26 12.5 51.5t30.5 45.5l456 534l-471 553q-12 14 -20 31.5t-8 35.5v101h1086v-183h-663q-51 0 -92 3.5t-81 11.5q45 -23 80 -50t65 -62l251 -308
q19 -22 30.5 -38.5t18 -29.5t9 -23.5t2.5 -20.5z" />
    <glyph glyph-name="Phi" unicode="&#x3a6;" horiz-adv-x="1685" 
d="M954 1367q154 -2 278 -53t211 -138.5t133.5 -204t46.5 -248.5t-46.5 -248.5t-133.5 -204t-211 -139t-278 -52.5v-192h-222v192q-155 1 -278.5 52.5t-210.5 139t-133.5 204t-46.5 248.5t47 248.5t134 204t211 138.5t277 53v186h222v-186zM289 723q0 -95 31 -178t89 -145.5
t140 -99.5t183 -38v923q-101 -2 -183 -39t-140 -99.5t-89 -146t-31 -177.5zM1397 723q0 94 -31.5 177.5t-89 146t-139.5 99.5t-183 39v-923q101 1 183 38t139.5 99.5t89 145.5t31.5 178z" />
    <glyph glyph-name="Psi" unicode="&#x3a8;" horiz-adv-x="1650" 
d="M248 1440q38 0 58 -23t20 -57v-436q0 -90 20.5 -159t66 -118t118 -76.5t175.5 -33.5v903h234v-903q103 6 176 33t118.5 76t66.5 118.5t21 159.5v436q0 34 20.5 57t57.5 23h157v-516q0 -127 -39.5 -230.5t-117 -178t-193 -118t-267.5 -49.5v-348h-234v348q-151 7 -266 50
t-192 117.5t-116.5 178t-39.5 230.5v516h156z" />
    <glyph glyph-name="uni03A9" unicode="&#x3a9;" horiz-adv-x="1624" 
d="M925 269q75 13 140 58t113 114t75.5 157.5t27.5 188.5q0 117 -38 204.5t-102 145.5t-149.5 87t-179.5 29q-95 0 -180 -29t-149 -87t-102 -145.5t-38 -204.5q0 -100 27.5 -188.5t75.5 -157.5t113 -114t140 -58v-269h-526q-36 0 -57.5 21t-21.5 54v121h257q41 0 84.5 -4.5
t85.5 -10.5q-90 32 -165.5 90.5t-129.5 137t-84.5 175.5t-30.5 205q0 147 54.5 269.5t149.5 211t222.5 137.5t274.5 49t274.5 -49t222.5 -137.5t149.5 -211t54.5 -269.5q0 -108 -30.5 -205t-85 -175.5t-129.5 -137t-165 -90.5q42 6 85 10.5t85 4.5h257v-121q0 -33 -21.5 -54
t-57.5 -21h-526v269z" />
    <glyph glyph-name="alpha" unicode="&#x3b1;" horiz-adv-x="1195" 
d="M1047 -9q-39 0 -74.5 10t-66.5 31.5t-54.5 54.5t-38.5 78q-33 -49 -73 -83t-83 -55.5t-88 -31.5t-88 -10q-86 0 -160 35t-129 100.5t-86 159t-31 211.5q0 124 35 225.5t96 173t144 110.5t179 39q102 0 179.5 -40t127.5 -103l17 83q13 41 56 41h130l-54 -535
q-2 -48 -6.5 -95.5t-4.5 -89.5q0 -39 11.5 -67.5t31.5 -46.5t46.5 -26.5t56.5 -8.5h66v-86q0 -29 -36.5 -51.5t-102.5 -22.5zM533 158q46 0 87.5 17.5t74.5 55t55 95.5t30 139l25 249q-14 31 -36.5 60t-52.5 51t-67.5 35t-81.5 13q-54 0 -103 -22t-86.5 -67.5t-59.5 -116.5
t-22 -170q0 -91 19 -155.5t51.5 -105t75.5 -59.5t91 -19z" />
    <glyph glyph-name="beta" unicode="&#x3b2;" horiz-adv-x="1126" 
d="M610 -15q-167 0 -265 105v-446h-215v1275q0 126 26.5 225.5t80.5 168.5t136 105.5t193 36.5q104 0 179.5 -30t124.5 -80t72.5 -114t23.5 -132q0 -110 -55 -189.5t-156 -115.5q72 -18 128 -52.5t94.5 -82.5t59 -108t20.5 -129q0 -88 -32 -167t-90.5 -139t-141 -95.5
t-183.5 -35.5zM525 873q54 0 98 11t75 35.5t48 64t17 96.5q0 109 -53.5 163t-147.5 54q-57 0 -98 -21t-67.5 -67t-39 -119t-12.5 -178v-651q40 -56 89.5 -82.5t121.5 -26.5q71 0 124 23t88.5 62.5t53 93t17.5 113.5q0 75 -23.5 125t-63.5 79.5t-92 42t-109 12.5h-62v170h36z
" />
    <glyph glyph-name="beta.salt" horiz-adv-x="1143" 
d="M996 1162q0 -88 -50.5 -159t-162.5 -134q68 -5 121.5 -36t90 -81t56 -117.5t19.5 -145.5q0 -117 -39 -210t-106.5 -158.5t-158.5 -100.5t-195 -35q-120 0 -208 47t-146 133.5t-86 209.5t-28 275q0 197 42 348t116.5 253t177.5 154t226 52q91 0 154 -26.5t102.5 -69
t57 -95t17.5 -104.5zM313 613q3 -123 22 -209.5t53 -142t82 -81t109 -25.5q62 0 114 24.5t89.5 69t58.5 106.5t21 136t-22.5 128t-64.5 83t-102.5 30t-136.5 -31zM641 1289q-62 0 -117 -28.5t-98 -90t-72 -158t-38 -232.5l220 84q72 29 120.5 62.5t78 69.5t42.5 74.5
t13 77.5q0 66 -36.5 103.5t-112.5 37.5z" />
    <glyph glyph-name="gamma" unicode="&#x3b3;" horiz-adv-x="1104" 
d="M449 -338v432q-20 100 -42 196t-48.5 182t-56.5 158.5t-65 125.5t-75 82.5t-85 29.5h-38v80q0 16 4.5 31t16.5 25.5t33 17t54 6.5q96 0 169 -52t127 -148.5t91 -235.5t62 -313q44 74 81 157t67 169.5t52.5 174t39.5 171.5q7 39 24.5 54t40.5 15h181q-27 -119 -70 -241
t-98 -241t-118.5 -232t-131.5 -214v-430h-215z" />
    <glyph glyph-name="delta" unicode="&#x3b4;" horiz-adv-x="1111" 
d="M906 1279q-4 -29 -17 -38t-40 -9q-15 0 -48.5 7.5t-75.5 17t-88 17t-87 7.5q-77 0 -109.5 -23t-32.5 -57q0 -32 27 -60t71.5 -56.5t101 -59.5t116 -68.5t116 -84t101 -106.5t71.5 -135.5t27 -170.5q0 -104 -33.5 -191t-95.5 -149.5t-151.5 -97.5t-201.5 -35
q-115 0 -205.5 36t-152.5 100t-95 151t-33 189q0 165 86.5 281t260.5 180q-44 26 -82.5 53.5t-67 60.5t-45.5 73t-17 90q0 54 21 99.5t65 78.5t111.5 52t160.5 19q36 0 81.5 -3t94 -8t96 -12.5t87.5 -16.5zM825 453q0 76 -22 135t-59 105t-85 82.5t-100 67.5
q-53 -20 -101 -51t-85 -76t-59 -106t-22 -140q0 -65 16 -123t49 -101.5t83 -69t117 -25.5q60 0 109 20.5t84.5 59.5t55 95t19.5 127z" />
    <glyph glyph-name="epsilon" unicode="&#x3b5;" horiz-adv-x="911" 
d="M794 829q-12 -19 -22.5 -25t-25.5 -6t-33 11t-45.5 24.5t-66.5 25t-95 11.5q-50 0 -87 -10t-62 -27.5t-37.5 -41.5t-12.5 -52q0 -60 57 -98.5t161 -38.5h165v-142h-165q-118 0 -174 -39.5t-56 -107.5q0 -35 14 -64.5t41 -51.5t65.5 -34t87.5 -12q63 0 104 15t69.5 33
t48.5 33t41 15q26 0 40 -20l61 -79q-37 -45 -82.5 -75.5t-95 -49.5t-100.5 -27.5t-98 -8.5q-83 0 -158 21t-132 60.5t-90.5 96.5t-33.5 130q0 86 49.5 146t131.5 93q-43 19 -73.5 44.5t-49.5 55.5t-27.5 61.5t-8.5 62.5q0 55 25.5 105.5t76 89t126 61t176.5 22.5
q115 0 198.5 -34.5t140.5 -89.5z" />
    <glyph glyph-name="zeta" unicode="&#x3b6;" horiz-adv-x="797" 
d="M818 1350q2 -11 -1 -24t-15 -31.5t-35 -45t-61 -63.5q-42 -40 -90 -86.5t-95.5 -99.5t-91 -111.5t-77 -122t-53.5 -131.5t-20 -139q0 -62 16.5 -106.5t49 -77t81 -55.5t112.5 -43q91 -29 148.5 -60t89.5 -65.5t43.5 -72t11.5 -79.5q0 -68 -22.5 -133t-64.5 -132l-166 66
q9 15 18.5 33.5t17.5 38.5t13 41t5 41q0 18 -7 36.5t-28.5 37t-61 37t-105.5 38.5q-87 26 -153.5 61t-111.5 83.5t-68.5 113.5t-23.5 152q0 113 38 217.5t105.5 206t160 202t202.5 205.5q-117 -18 -251 -18h-114q-24 0 -41 6.5t-27.5 17t-15 23t-4.5 24.5v105h672z" />
    <glyph glyph-name="eta" unicode="&#x3b7;" horiz-adv-x="1177" 
d="M1056 -339h-214v988q0 103 -47.5 160t-144.5 57q-72 0 -133.5 -33t-115.5 -90v-743h-215v730q0 72 -31 106t-91 34h-46v87q0 14 6 27t19 23.5t34.5 16.5t51.5 6q81 0 143 -37t89 -116q35 35 74 64.5t83 50.5t93 32.5t103 11.5q84 0 147.5 -28t107 -79t65.5 -122.5
t22 -157.5v-988z" />
    <glyph glyph-name="theta" unicode="&#x3b8;" horiz-adv-x="1200" 
d="M602 1457q113 0 204.5 -47t156 -140t99.5 -230.5t35 -317.5q0 -181 -35 -319t-99.5 -231t-156 -140t-204.5 -47q-114 0 -206 47t-157.5 140t-100.5 231t-35 319q0 180 35 317.5t100.5 230.5t157.5 140t206 47zM602 154q65 0 116.5 29.5t87.5 91.5t57 157t25 227h-575
q4 -132 24.5 -227t57 -157t88.5 -91.5t119 -29.5zM602 1290q-65 0 -116.5 -28.5t-88 -87.5t-57.5 -150t-27 -216h574q-5 125 -26.5 216t-57.5 150t-86.5 87.5t-114.5 28.5z" />
    <glyph glyph-name="theta.salt" horiz-adv-x="1308" 
d="M199 605q0 60 -19.5 87.5t-75.5 27.5h-66v87q0 28 37 50.5t105 22.5q49 0 92 -14t74.5 -46t49.5 -84.5t18 -130.5v-181q0 -61 13 -111t39.5 -85t66 -54.5t93.5 -19.5q64 0 117.5 31t92 99.5t59.5 178t21 267.5q0 35 -1.5 68.5t-3.5 65.5q-140 1 -251.5 21.5t-189.5 60
t-119.5 99t-41.5 140.5q0 57 21.5 106.5t62.5 85.5t100 56.5t134 20.5q176 0 296.5 -107t167.5 -327h183v-86q0 -27 -16.5 -48.5t-53.5 -21.5h-91q2 -32 3.5 -66t1.5 -69q0 -171 -31 -309t-94.5 -235t-159.5 -149t-225 -52q-103 0 -180 31.5t-128 89t-76 139t-25 180.5v181z
M504 1179q0 -83 95.5 -119t289.5 -40q-14 64 -36 115t-52.5 87t-70 55.5t-87.5 19.5q-68 0 -103.5 -32t-35.5 -86z" />
    <glyph glyph-name="iota" unicode="&#x3b9;" horiz-adv-x="546" 
d="M124 1020h215v-728q0 -71 30 -107.5t97 -36.5h88v-66q0 -23 -14.5 -40.5t-38.5 -29.5t-55 -18t-64 -6q-63 0 -111.5 21.5t-81 60.5t-49 92.5t-16.5 117.5v740z" />
    <glyph glyph-name="lambda" unicode="&#x3bb;" horiz-adv-x="1089" 
d="M427 924l-93 265q-11 31 -23.5 51t-30 32t-41.5 16.5t-58 4.5h-75v80q0 17 6 31.5t20.5 25.5t39 17.5t62.5 6.5q42 0 84 -8t79 -29t67 -56.5t50 -89.5l378 -1018q20 -54 50.5 -79t87.5 -25h61v-86q0 -46 -26.5 -60t-75.5 -14q-42 0 -83 8.5t-78 30.5t-68 61t-52 101
l-156 406q-9 24 -14 44.5t-8 40.5q-10 -39 -27 -82l-222 -557q-8 -17 -23 -29.5t-41 -12.5h-184z" />
    <glyph glyph-name="uni03BC" unicode="&#x3bc;" horiz-adv-x="1203" 
d="M346 1020v-609q0 -102 48 -162.5t144 -60.5q85 0 147 46t102 129v657h215v-730q0 -72 36 -106t96 -34h66v-86q0 -29 -36.5 -51.5t-102.5 -22.5q-42 0 -81 12t-71 37t-55.5 63t-35.5 91q-57 -87 -129.5 -134.5t-164.5 -47.5q-132 0 -206 76q8 -42 11 -86t3 -82v-258h-106
q-45 0 -70 23.5t-25 67.5v1268h215z" />
    <glyph glyph-name="nu" unicode="&#x3bd;" horiz-adv-x="1036" 
d="M1014 1020q-30 -135 -76 -271.5t-104.5 -267.5t-128.5 -253t-148 -228h-132l-410 1020h176q25 0 41.5 -12.5t21.5 -29.5l227 -594q13 -40 23 -79t18 -77q48 76 86 165.5t68 184t52.5 191t40.5 187.5q5 35 23 49.5t40 14.5h182z" />
    <glyph glyph-name="xi" unicode="&#x3be;" horiz-adv-x="799" 
d="M786 1350q0 -19 -7 -34.5t-19 -26t-27 -16.5t-31 -6h-91q-63 0 -114 -18.5t-88 -51t-57 -77.5t-20 -97q0 -89 69.5 -134.5t198.5 -45.5h95v-170h-143q-69 0 -119 -16t-82.5 -45.5t-48 -70.5t-15.5 -90q0 -51 18 -88t55 -67t94.5 -55.5t135.5 -53.5q62 -22 103.5 -47.5
t66.5 -55t35.5 -63.5t10.5 -74q0 -74 -22.5 -141t-64.5 -134l-167 66q19 31 37 72t18 79q0 21 -5.5 39t-20.5 34t-41.5 30t-68.5 26q-78 22 -149.5 54t-126.5 80.5t-88 116t-33 161.5q0 45 11 93.5t37 94t68 85t104 66.5q-78 36 -119 95.5t-41 142.5q0 46 15 86t41 73.5
t61.5 61.5t76.5 49h-18h-136q-48 0 -68 22.5t-20 60.5v80h700v-90z" />
    <glyph glyph-name="xi.salt" horiz-adv-x="804" 
d="M783 1351q0 -20 -7 -35t-19 -26t-27.5 -16.5t-31.5 -5.5h-101q-68 0 -118 -15.5t-83.5 -44t-50 -67.5t-16.5 -85q0 -106 69 -159.5t199 -53.5h95v-170h-143q-69 0 -119 -16t-82.5 -45.5t-48 -70.5t-15.5 -90q0 -51 18 -88t55 -67t94 -55.5t135 -53.5q63 -22 104.5 -47.5
t66.5 -55t35.5 -63.5t10.5 -74q0 -74 -22.5 -141t-64.5 -134l-167 66q9 15 18.5 33.5t18 38.5t13.5 40t5 39q0 21 -6 39t-21 34t-41.5 30t-68.5 26q-78 22 -149.5 54t-126 80.5t-87.5 116t-33 161.5q0 46 12 96.5t39.5 97t73 86.5t112.5 66q-87 37 -132 106.5t-45 176.5
q0 91 32 162t92 119.5t145 74t191 25.5h192v-89z" />
    <glyph glyph-name="rho" unicode="&#x3c1;" horiz-adv-x="1132" 
d="M118 581q0 104 31.5 188t91 143.5t145.5 92t196 32.5q98 0 184.5 -35t151.5 -101.5t102.5 -163.5t37.5 -220q0 -113 -30.5 -210.5t-87.5 -169t-138.5 -112t-183.5 -40.5q-86 0 -158 30t-128 83v-437h-214v920zM332 275q48 -66 110 -95t127 -29q126 0 196.5 92t70.5 274
q0 94 -18.5 160.5t-52 108.5t-80.5 61t-103 19q-52 0 -97.5 -19t-79.5 -55t-53.5 -89t-19.5 -122v-306z" />
    <glyph glyph-name="sigma" unicode="&#x3c3;" horiz-adv-x="1214" 
d="M918 852q69 -56 108 -144.5t39 -210.5q0 -112 -34.5 -206t-98.5 -162t-155 -106t-205 -38q-111 0 -203 35t-157.5 101.5t-101.5 161.5t-36 215q0 121 38.5 217.5t112 163.5t180 102.5t241.5 35.5h568v-103q0 -10 -4.5 -21t-13.5 -20t-22 -15t-29 -6h-227zM845 507
q0 59 -9 114.5t-27.5 101.5t-46.5 80t-67 49h-50q-93 0 -159 -23t-108.5 -68t-62 -112t-19.5 -155q0 -170 69.5 -255.5t205.5 -85.5q140 0 207 89t67 265z" />
    <glyph glyph-name="sigma1" unicode="&#x3c2;" horiz-adv-x="937" 
d="M851 820q-10 -13 -19.5 -20t-26.5 -7t-35 12t-43.5 26.5t-62 26.5t-89.5 12q-70 0 -122.5 -24t-88 -66t-53.5 -98.5t-18 -120.5q0 -93 23 -152t68.5 -98t113 -66.5t157.5 -57.5q62 -22 103.5 -47.5t66.5 -55t35.5 -63.5t10.5 -74q0 -74 -22.5 -141t-64.5 -134l-167 66
q19 31 37 72t18 79q0 21 -5.5 39t-20.5 34t-41.5 30t-68.5 26q-95 28 -179 64t-147 94.5t-100 147.5t-37 223q0 100 32 188.5t94 155.5t153 106t209 39q112 0 196 -36t150 -102z" />
    <glyph glyph-name="tau" unicode="&#x3c4;" horiz-adv-x="945" 
d="M21 944q0 27 18 48.5t55 21.5h823v-86q0 -38 -19.5 -57.5t-55.5 -19.5h-300v-556q0 -70 30 -106.5t97 -36.5h88v-67q0 -23 -14.5 -40t-38.5 -29t-55 -18t-64 -6q-63 0 -111.5 21.5t-81 60t-49 92t-16.5 117.5v568h-306v93z" />
    <glyph glyph-name="upsilon" unicode="&#x3c5;" horiz-adv-x="1112" 
d="M335 1020v-649q0 -51 15.5 -91.5t44 -68.5t68 -42.5t87.5 -14.5q45 0 90 18.5t81 63.5t58.5 120t22.5 188q0 51 -5.5 101.5t-13 100.5t-17 101t-16.5 102q-2 19 3 33t14 22t20.5 12t22.5 4h147q10 -63 20 -121.5t17 -116t11.5 -116t4.5 -122.5q0 -147 -39.5 -252.5
t-105.5 -174t-151.5 -101t-177.5 -32.5q-99 0 -176.5 27t-130.5 77t-81 122t-28 161v649h215z" />
    <glyph glyph-name="phi" unicode="&#x3c6;" horiz-adv-x="1511" 
d="M287 510q0 -80 24 -146t70.5 -114t114.5 -75t155 -29v560q0 87 22.5 149t65.5 102.5t104.5 59.5t138.5 19q102 0 186 -38.5t144 -105t93.5 -157.5t33.5 -196q0 -126 -42.5 -227.5t-119.5 -174t-185 -112t-240 -40.5v-323h-201v323q-131 2 -238 41.5t-183 109t-117 165
t-41 210.5q0 91 26.5 171t74.5 146t115.5 117.5t149.5 84.5l55 -87q8 -12 9 -26.5t-3 -27t-11.5 -22.5t-16.5 -14q-88 -48 -136 -136.5t-48 -206.5zM852 146q91 1 160.5 28.5t116.5 78t71 123t24 163.5q0 76 -21 138t-55.5 106t-77.5 68t-88 24q-61 0 -95.5 -38.5
t-34.5 -130.5v-560z" />
    <glyph glyph-name="phi.salt" horiz-adv-x="1512" 
d="M857 1440v-404q132 -1 239 -38.5t183.5 -105.5t118 -164.5t41.5 -216.5t-41.5 -217t-118 -165t-183.5 -105.5t-239 -38.5v-323h-201v323q-132 1 -239.5 38.5t-184 105.5t-118 165t-41.5 217t41.5 216.5t118 164.5t184 105.5t239.5 38.5v404h201zM288 510q0 -85 24.5 -152
t71.5 -114t115.5 -72t156.5 -26v729q-88 -1 -156.5 -26.5t-115.5 -72.5t-71.5 -114t-24.5 -152zM1225 510q0 85 -24.5 152t-71.5 114t-115.5 72.5t-156.5 26.5v-729q88 1 156.5 26t115.5 72t71.5 114t24.5 152z" />
    <glyph glyph-name="chi" unicode="&#x3c7;" horiz-adv-x="973" 
d="M461 210q-4 -32 -11.5 -61t-15.5 -52l-190 -391q-7 -17 -21.5 -29.5t-41.5 -12.5h-153l338 714l-171 390q-14 30 -28.5 50t-32.5 32t-42 17.5t-58 5.5h-36v79q0 17 0.5 31.5t8 25.5t25.5 17.5t53 6.5q53 0 97 -9.5t79.5 -31.5t63.5 -56.5t50 -85.5l156 -357q5 31 12 60
t15 52l177 374q7 17 21.5 29.5t41.5 12.5h153l-326 -691l186 -421q12 -27 24.5 -46.5t29 -32t38 -19t50.5 -6.5h37v-86q0 -23 -4 -37.5t-13.5 -22.5t-26 -11t-41.5 -3q-44 0 -84 8t-75.5 29.5t-66.5 61t-57 102.5z" />
    <glyph glyph-name="psi" unicode="&#x3c8;" horiz-adv-x="1555" 
d="M886 1440v-1282q78 8 142.5 31.5t111 68.5t72.5 115t26 171q0 75 -6.5 130.5t-15.5 101.5t-18 87t-13 86q0 39 19 55t41 16h154q12 -63 22 -121.5t17 -116t11 -116t4 -122.5q0 -149 -45.5 -250.5t-122.5 -166.5t-180.5 -97t-218.5 -41v-327h-214v325q-141 10 -245.5 48.5
t-173.5 102.5t-103 152.5t-34 198.5v531h148q13 0 25 -8t21 -20.5t14.5 -27t5.5 -27.5v-448q0 -73 23 -129.5t67 -97.5t107.5 -66.5t144.5 -35.5v1280h214z" />
    <glyph glyph-name="omega" unicode="&#x3c9;" horiz-adv-x="1558" 
d="M505 154q43 0 75 20.5t52 57t30 87t10 111.5v255h214v-255h1q0 -61 10 -111.5t30 -87t51.5 -57t75.5 -20.5q34 0 71.5 15.5t68.5 56t51 110.5t20 179q0 58 -14.5 121t-34 119.5t-40.5 101.5t-34 68q-11 26 -8.5 44t12 29.5t22.5 16.5t24 5h153q59 -115 96.5 -244.5
t37.5 -260.5q0 -119 -29 -217t-81.5 -167.5t-126 -108t-162.5 -38.5q-56 0 -102.5 13t-84 36.5t-66 55.5t-49.5 70q-21 -38 -50 -70t-66.5 -55.5t-83 -36.5t-99.5 -13q-89 0 -163 38.5t-126.5 108t-81.5 167.5t-29 217q0 131 37.5 260.5t96.5 244.5h153q11 0 24.5 -5
t23 -16.5t11.5 -29.5t-8 -44q-14 -23 -34.5 -68t-40.5 -101.5t-34 -119.5t-14 -121q0 -109 20 -179t51 -110.5t68.5 -56t71.5 -15.5z" />
    <glyph glyph-name="tonos" unicode="&#x384;" 
d="M335 1146l62 357h133q31 0 42 -19.5t0 -52.5l-111 -285h-126z" />
    <glyph glyph-name="dieresistonos" unicode="&#x385;" 
d="M332 1152l63 358h132q32 0 42.5 -20t-0.5 -53l-111 -285h-126zM284 1290q0 -21 -8.5 -40t-23 -33t-34 -22t-40.5 -8t-39.5 8t-33 22t-22.5 33t-8 40q0 22 8 41t22.5 33.5t33 23t39.5 8.5t40.5 -8.5t34 -23t23 -33.5t8.5 -41zM808 1290q0 -21 -8.5 -40t-22.5 -33t-33 -22
t-40 -8q-22 0 -41 8t-33 22t-22 33t-8 40q0 22 8 41t22 33.5t33 23t41 8.5q21 0 40 -8.5t33 -23t22.5 -33.5t8.5 -41z" />
    <glyph glyph-name="uni0374" unicode="&#x374;" horiz-adv-x="438" 
d="M329 1516q32 -157 -7 -304.5t-157 -272.5l-66 42q-20 13 -21.5 30t7.5 30q27 38 48.5 73.5t31 72.5t4.5 76t-31 83v112q0 25 13.5 41.5t43.5 16.5h134z" />
    <glyph glyph-name="uni0375" unicode="&#x375;" horiz-adv-x="438" 
d="M329 354q32 -157 -7 -304.5t-157 -272.5l-66 42q-20 13 -21.5 30t7.5 30q27 38 48.5 73.5t31 72.5t4.5 76t-31 83v112q0 25 13.5 41.5t43.5 16.5h134z" />
    <glyph glyph-name="uni0411" unicode="&#x411;" horiz-adv-x="1250" 
d="M1127 1257h-722v-423h256q136 0 233.5 -30t160.5 -82.5t92.5 -124.5t29.5 -155q0 -101 -34.5 -182.5t-100.5 -139.5t-162.5 -89t-219.5 -31h-489v1440h956v-183zM405 649v-464h255q79 0 133.5 17.5t88.5 49t49.5 74t15.5 92.5q0 54 -15 97t-49 72.5t-88.5 45.5t-133.5 16
h-256z" />
    <glyph glyph-name="uni0413" unicode="&#x413;" horiz-adv-x="1079" 
d="M1049 1257h-643v-1257h-235v1440h878v-183z" />
    <glyph glyph-name="uni0490" unicode="&#x490;" horiz-adv-x="1079" 
d="M1049 1257h-643v-1257h-235v1440h698v322h180v-505z" />
    <glyph glyph-name="uni0414" unicode="&#x414;" horiz-adv-x="1595" 
d="M1319 1440v-1257h229v-461q0 -30 -20.5 -49t-53.5 -19h-140v346h-1106v-278q0 -30 -20.5 -49t-53.5 -19h-140v529h152q29 15 58.5 48t56.5 93.5t51.5 154t44.5 228t34 315.5t21 418h887zM652 1257q-12 -227 -33 -400.5t-49.5 -303t-63 -220t-74.5 -150.5h652v1074h-432z
" />
    <glyph glyph-name="uni0416" unicode="&#x416;" horiz-adv-x="2108" 
d="M230 1440q35 0 66 -18t49 -50l326 -475q29 -44 62 -58.5t76 -14.5h135v616h219v-616h136q43 0 76 14.5t62 58.5l325 475q19 32 49.5 50t66.5 18h183l-393 -565q-29 -43 -59.5 -72t-74.5 -45q51 -17 91 -51t73 -91l400 -616h-155q-51 0 -87.5 22.5t-58.5 60.5l-328 482
q-27 43 -61 61.5t-85 18.5h-160v-645h-219v645h-159q-51 0 -85 -18.5t-61 -61.5l-328 -482q-22 -38 -58.5 -60.5t-87.5 -22.5h-156l401 616q33 57 72.5 91t90.5 51q-43 16 -73.5 44.5t-59.5 72.5l-394 565h184z" />
    <glyph glyph-name="uni0417" unicode="&#x417;" horiz-adv-x="1157" 
d="M1028 1082q0 -104 -50 -186.5t-144 -131.5q52 -24 95 -57t73.5 -73.5t47.5 -88t17 -100.5q0 -96 -35.5 -179.5t-104 -146t-167.5 -98t-226 -35.5q-76 0 -147.5 13.5t-135 38t-119 59.5t-100.5 78l68 112q9 14 23 22t31 8q16 0 34 -10t41.5 -25.5t52.5 -33t67 -33
t85 -25.5t106 -10q147 0 227.5 65t80.5 190q0 52 -21 94.5t-60 72.5t-94.5 46.5t-124.5 15.5h-200l-1 191h187q62 0 113 14t87 40.5t55.5 65t19.5 88.5q0 45 -18.5 81.5t-53.5 62.5t-87 40.5t-118 14.5q-77 0 -131 -16.5t-93 -36t-65 -35.5t-45 -16q-18 0 -29.5 8.5
t-22.5 26.5l-58 112q83 72 194.5 111t250.5 39q114 0 205.5 -27.5t156 -77t99 -118t34.5 -150.5z" />
    <glyph glyph-name="uni0418" unicode="&#x418;" horiz-adv-x="1535" 
d="M1085 1367q8 13 18.5 26t24 23.5t28.5 17t32 6.5h175v-1440h-234v956q0 48 2.5 100t10.5 112q-19 -52 -41 -96.5t-42 -78.5l-610 -920q-8 -13 -18.5 -26t-24 -23.5t-28.5 -17t-32 -6.5h-175v1440h235v-955q0 -48 -2.5 -100.5t-10.5 -110.5q19 51 40.5 95t41.5 78z" />
    <glyph glyph-name="uni041A" unicode="&#x41a;" horiz-adv-x="1368" 
d="M405 824h141q44 0 74 14t59 54l345 484q17 28 41.5 46t58.5 18h198l-412 -584q-25 -37 -57 -61t-71 -38q56 -15 95.5 -49t74.5 -94l407 -614h-211q-34 0 -57 18t-43 53l-341 503q-13 20 -26 33.5t-29 22t-36 12t-45 3.5h-166v-645h-234v1440h234v-616z" />
    <glyph glyph-name="uni041B" unicode="&#x41b;" horiz-adv-x="1470" 
d="M1299 1440v-1440h-235v1257h-432q-14 -274 -39 -474.5t-59.5 -341.5t-78.5 -230t-96 -139t-112 -68t-127 -18q-126 0 -126 45v148h74q37 0 74.5 13.5t72.5 57.5t67 127.5t58 223.5t44.5 345.5t27.5 493.5h887z" />
    <glyph glyph-name="uni0409" unicode="&#x409;" horiz-adv-x="2121" 
d="M1299 1440v-606h256q136 0 234 -30t161 -82.5t92.5 -124.5t29.5 -155q0 -101 -34.5 -182.5t-101 -139.5t-163 -89t-219.5 -31h-490v1257h-432q-14 -274 -39 -474.5t-59.5 -341.5t-78.5 -230t-96 -139t-112 -68t-127 -18q-126 0 -126 45v148h74q37 0 74.5 13.5t72.5 57.5
t67 127.5t58 223.5t44.5 345.5t27.5 493.5h887zM1299 649v-464h255q79 0 133.5 17.5t88.5 49t49.5 74t15.5 92.5q0 54 -15 97t-49 72.5t-88.5 45.5t-133.5 16h-256z" />
    <glyph glyph-name="uni040A" unicode="&#x40a;" horiz-adv-x="2185" 
d="M1363 834h256q136 0 234 -30t161 -82.5t92.5 -124.5t29.5 -155q0 -101 -34.5 -182.5t-101 -139.5t-162.5 -89t-219 -31h-490v641h-723v-641h-235v1440h235v-630h723v630h234v-606zM1363 649v-464h256q79 0 133.5 17.5t88.5 49t49 74t15 92.5q0 54 -15 97t-49 72.5
t-88.5 45.5t-133.5 16h-256z" />
    <glyph glyph-name="uni0472" unicode="&#x472;" horiz-adv-x="1609" 
d="M1524 720q0 -160 -52 -295t-146.5 -232.5t-227 -152.5t-294.5 -55q-161 0 -293.5 55t-227.5 152.5t-147 232.5t-52 295t52 295t147 233t227.5 153t293.5 55q162 0 294.5 -55t227 -153t146.5 -233t52 -295zM804 187q102 0 185.5 31t145 90t99 143.5t47.5 192.5h-956
q10 -108 48 -192.5t100 -143.5t145.5 -90t185.5 -31zM804 1254q-99 0 -180.5 -29.5t-143 -85.5t-100.5 -136.5t-52 -182.5h951q-13 102 -51.5 182.5t-99.5 136.5t-143 85.5t-181 29.5z" />
    <glyph glyph-name="uni041F" unicode="&#x41f;" horiz-adv-x="1481" 
d="M1310 0h-235v1257h-669v-1257h-235v1440h1139v-1440z" />
    <glyph glyph-name="uni0423" unicode="&#x423;" horiz-adv-x="1271" 
d="M334 179q24 0 48 5t46.5 17.5t43.5 35t39 58.5l63 129l-578 1016h219q30 0 48 -15t31 -38l316 -584q42 -79 66 -161q12 41 27.5 81t34.5 81l272 583q9 20 29 36.5t49 16.5h193l-583 -1245q-29 -62 -62.5 -102.5t-72 -64t-82.5 -33t-95 -9.5q-125 0 -125 45v148h73v0z" />
    <glyph glyph-name="uni0474" unicode="&#x474;" horiz-adv-x="1412" 
d="M-6 1440h187q31 0 50 -15.5t28 -38.5l371 -939q14 -39 29 -85.5t27 -97.5q11 51 23.5 97.5t27.5 85.5l267 793q34 106 104 157t179 51q62 0 84 -10.5t22 -34.5v-147h-54q-91 0 -130 -104l-421 -1152h-210z" />
    <glyph glyph-name="uni0424" unicode="&#x424;" horiz-adv-x="1588" 
d="M905 1333q136 -3 249 -50t194 -125t126 -182t45 -222t-45 -222t-126 -182.5t-194 -125.5t-249 -51v-173h-221v173q-136 4 -249.5 51t-195 125.5t-126.5 182.5t-45 222t45.5 222t127.5 182t195 125t248 50v170h221v-170zM302 754q0 -82 27.5 -154t77.5 -125.5t120.5 -85.5
t156.5 -33v796q-86 -2 -156.5 -33.5t-120.5 -85.5t-77.5 -126t-27.5 -153zM1287 754q0 81 -28 153t-78 126t-120.5 85.5t-155.5 33.5v-796q85 1 155.5 33t120.5 85.5t78 125.5t28 154z" />
    <glyph glyph-name="uni0426" unicode="&#x426;" horiz-adv-x="1575" 
d="M171 0v1440h235v-1257h669v1257h235v-1257h213v-461q0 -30 -21 -49t-54 -19h-139v346h-1138z" />
    <glyph glyph-name="uni040F" unicode="&#x40f;" horiz-adv-x="1481" 
d="M1310 0h-463v-278q0 -30 -20.5 -49t-53.5 -19h-140v346h-462v1440h235v-1257h669v1257h235v-1440z" />
    <glyph glyph-name="uni0427" unicode="&#x427;" horiz-adv-x="1338" 
d="M1167 0h-235v597q-116 -30 -224 -45.5t-202 -12.5t-171.5 27.5t-133 75.5t-86 131t-30.5 194v473h234v-473q0 -91 34 -149t108 -83t190.5 -17t280.5 49v673h235v-1440z" />
    <glyph glyph-name="uni0428" unicode="&#x428;" horiz-adv-x="2162" 
d="M1991 0h-1820v1440h235v-1257h556v1257h235v-1257h559v1257h235v-1440z" />
    <glyph glyph-name="uni0429" unicode="&#x429;" horiz-adv-x="2256" 
d="M171 0v1440h235v-1257h556v1257h235v-1257h559v1257h235v-1257h212v-461q0 -30 -20.5 -49t-53.5 -19h-140v346h-1818z" />
    </font>
</defs>
</svg>
